<svg xmlns="http://www.w3.org/2000/svg" viewBox="0 0 100 100" width="100%" height="100%">
  <!-- Triangle 1 -->
  <polygon points="10,10 30,50 0,50" fill="rgba(180, 180, 180, 0.2)" />
  <!-- Triangle 2 -->
  <polygon points="70,0 90,40 50,40" fill="rgba(180, 180, 180, 0.3)" />
  <!-- Triangle 3 -->
  <polygon points="40,20 60,60 20,60" fill="rgba(180, 180, 180, 0.15)" />
  <!-- Triangle 4 -->
  <polygon points="85,50 100,80 70,80" fill="rgba(180, 180, 180, 0.25)" />
  <!-- Triangle 5 -->
  <polygon points="5,70 25,100 0,100" fill="rgba(180, 180, 180, 0.2)" />
  <!-- Triangle 6 -->
  <polygon points="50,70 70,100 30,100" fill="rgba(180, 180, 180, 0.35)" />
  <!-- Triangle 7 -->
  <polygon points="10,40 30,70 0,70" fill="rgba(180, 180, 180, 0.2)" />
  <!-- Triangle 8 -->
  <polygon points="60,10 80,30 40,30" fill="rgba(180, 180, 180, 0.3)" />
  <!-- Triangle 9 -->
  <polygon points="75,25 95,50 55,50" fill="rgba(180, 180, 180, 0.2)" />
  <!-- Triangle 10 -->
  <polygon points="30,60 50,90 10,90" fill="rgba(180, 180, 180, 0.25)" />
</svg>