<svg width="24" height="24" viewBox="0 0 24 24" fill="none" xmlns="http://www.w3.org/2000/svg">
<path fill-rule="evenodd" clip-rule="evenodd" d="M10.2195 3.17534C6.10139 4.00167 2.99931 7.63855 2.99931 12C2.99931 16.9709 7.02906 21.0006 12 21.0006C16.9709 21.0006 21.0007 16.9709 21.0007 12C21.0007 11.3293 20.9275 10.677 20.7891 10.05L22.7421 9.61891C22.8416 10.0698 22.9134 10.5308 22.9558 11H23.0007V12C23.0007 18.0755 18.0755 23.0006 12 23.0006C5.92449 23.0006 0.999313 18.0755 0.999313 12C0.999313 5.92445 5.92448 0.999274 12 0.999268H12H13V1.04417C13.4691 1.0865 13.9301 1.15832 14.381 1.25786L13.9499 3.21084C13.3229 3.07243 12.6706 2.99927 12 2.99927C11.3905 2.99927 10.7951 3.05986 10.2195 3.17534C10.2195 3.17534 10.2195 3.17534 10.2195 3.17534ZM18.0806 5.36369C17.1227 4.48548 15.9752 3.81266 14.7077 3.41341L15.3086 1.50581C16.8607 1.99472 18.2632 2.81777 19.4321 3.8895L18.0806 5.36369ZM20.5865 9.29222C20.1873 8.02477 19.5145 6.87727 18.6362 5.91937L20.1104 4.5678C21.1822 5.73677 22.0052 7.13926 22.4941 8.69132L20.5865 9.29222ZM7.10526 8.3299C7.59244 8.32988 8.06849 8.47552 8.47226 8.74812C8.87603 9.02073 9.18906 9.40783 9.37114 9.8597C9.55322 10.3116 9.59602 10.8076 9.49406 11.284C9.39209 11.7603 9.15001 12.1954 8.79892 12.5331L7.24368 14.0297H9.54804V15.6582H4.66249V14.2544L7.66954 11.3598C7.76657 11.2665 7.83896 11.1506 7.88025 11.0225C7.92154 10.8944 7.93044 10.7581 7.90614 10.6257C7.88185 10.4934 7.82512 10.3691 7.74103 10.264C7.65695 10.1589 7.54813 10.0763 7.4243 10.0236C7.30048 9.97084 7.16552 9.94962 7.03149 9.96182C6.89746 9.97401 6.76854 10.0192 6.65627 10.0934C6.54399 10.1677 6.45186 10.2685 6.38812 10.3871C6.32438 10.5056 6.29101 10.6381 6.291 10.7727H4.66249C4.66249 10.3599 4.76694 9.95796 4.96122 9.6021C4.96122 9.6021 4.96122 9.6021 4.96122 9.60209C5.07189 9.39938 5.2117 9.21163 5.37796 9.04537C5.42787 8.99546 5.47972 8.94793 5.53333 8.90286C5.53333 8.90286 5.53333 8.90286 5.53334 8.90285C5.97178 8.53424 6.52799 8.3299 7.10526 8.3299ZM11.9908 8.3299V11.5869H13.6193V8.3299H15.2478V15.6582H13.6193V13.2155H10.3623V8.3299H11.9908ZM16.0621 15.6583V9.95847H17.2293V11.5606H18.1449C18.9277 11.5606 19.3191 11.9919 19.3191 12.8546V15.6583H18.1519V12.7776C18.1519 12.7108 18.1216 12.6774 18.0611 12.6774H17.2293V15.6583H16.0621Z" fill="#26272B"/>
</svg>
