<svg width="20" height="20" viewBox="0 0 20 20" fill="none" xmlns="http://www.w3.org/2000/svg">
<path d="M8.75 5H3.75C3.41848 5 3.10054 5.14048 2.86612 5.39052C2.6317 5.64057 2.5 5.97971 2.5 6.33333V17C2.5 17.3536 2.6317 17.6928 2.86612 17.9428C3.10054 18.1929 3.41848 18.3333 3.75 18.3333H8.75M8.75 5L12.5 9M8.75 5V9H12.5M12.5 9V12.6667M9.0625 11.6667H5M7.5 14.3333H5M6.25 9H5" stroke="#51525C" stroke-width="1.66667" stroke-linecap="round" stroke-linejoin="round"/>
<path d="M14.5831 1.66699H9.5831C9.25158 1.66699 8.93364 1.80747 8.69922 2.05752M14.5831 1.66699L18.3331 5.66699M14.5831 1.66699V5.66699H18.3331M18.3331 5.66699V10.417" stroke="#51525C" stroke-width="2" stroke-linecap="round" stroke-linejoin="round"/>
<path d="M18.332 13.333L13.1758 18.333L10.832 16.0603" stroke="#51525C" stroke-width="2" stroke-linecap="round" stroke-linejoin="round"/>
</svg>
