<svg width="56" height="56" viewBox="0 0 56 56" fill="none" xmlns="http://www.w3.org/2000/svg">
<path d="M4 28C4 14.7452 14.7452 4 28 4V4C41.2548 4 52 14.7452 52 28V28C52 41.2548 41.2548 52 28 52V52C14.7452 52 4 41.2548 4 28V28Z" fill="#FFF4CD"/>
<path d="M17 19V18C16.4477 18 16 18.4477 16 19H17ZM22 20C22.5523 20 23 19.5523 23 19C23 18.4477 22.5523 18 22 18V20ZM16 24C16 24.5523 16.4477 25 17 25C17.5523 25 18 24.5523 18 24H16ZM17 20H22V18H17V20ZM18 24V19H16V24H18Z" fill="#FEA500"/>
<path d="M39 19V18C39.5523 18 40 18.4477 40 19H39ZM34 20C33.4477 20 33 19.5523 33 19C33 18.4477 33.4477 18 34 18V20ZM40 24C40 24.5523 39.5523 25 39 25C38.4477 25 38 24.5523 38 24H40ZM39 20H34V18H39V20ZM38 24V19H40V24H38Z" fill="#FEA500"/>
<path d="M22 23V28V33" stroke="#FEA500" stroke-width="2" stroke-linecap="round"/>
<path d="M26 23V28V33" stroke="#FEA500" stroke-width="2" stroke-linecap="round"/>
<path d="M30 23V28V33" stroke="#FEA500" stroke-width="2" stroke-linecap="round"/>
<path d="M34 23V28V33" stroke="#FEA500" stroke-width="2" stroke-linecap="round"/>
<path d="M17 37V38C16.4477 38 16 37.5523 16 37H17ZM22 36C22.5523 36 23 36.4477 23 37C23 37.5523 22.5523 38 22 38V36ZM16 32C16 31.4477 16.4477 31 17 31C17.5523 31 18 31.4477 18 32H16ZM17 36H22V38H17V36ZM18 32V37H16V32H18Z" fill="#FEA500"/>
<path d="M39 37V38C39.5523 38 40 37.5523 40 37H39ZM34 36C33.4477 36 33 36.4477 33 37C33 37.5523 33.4477 38 34 38V36ZM40 32C40 31.4477 39.5523 31 39 31C38.4477 31 38 31.4477 38 32H40ZM39 36H34V38H39V36ZM38 32V37H40V32H38Z" fill="#FEA500"/>
<path d="M28 48C16.9543 48 8 39.0457 8 28H0C0 43.464 12.536 56 28 56V48ZM48 28C48 39.0457 39.0457 48 28 48V56C43.464 56 56 43.464 56 28H48ZM28 8C39.0457 8 48 16.9543 48 28H56C56 12.536 43.464 0 28 0V8ZM28 0C12.536 0 0 12.536 0 28H8C8 16.9543 16.9543 8 28 8V0Z" fill="#FFF8E3"/>
</svg>
