<svg width="24" height="24" viewBox="0 0 24 24" fill="none" xmlns="http://www.w3.org/2000/svg">
<path d="M1 3V2C0.447715 2 0 2.44772 0 3H1ZM6 4C6.55228 4 7 3.55228 7 3C7 2.44772 6.55228 2 6 2V4ZM0 8C0 8.55228 0.447715 9 1 9C1.55228 9 2 8.55228 2 8H0ZM1 4H6V2H1V4ZM2 8V3H0V8H2Z" fill="#18181B"/>
<path d="M23 3V2C23.5523 2 24 2.44772 24 3H23ZM18 4C17.4477 4 17 3.55228 17 3C17 2.44772 17.4477 2 18 2V4ZM24 8C24 8.55228 23.5523 9 23 9C22.4477 9 22 8.55228 22 8H24ZM23 4H18V2H23V4ZM22 8V3H24V8H22Z" fill="#18181B"/>
<path d="M6 7V12V17" stroke="#18181B" stroke-width="2" stroke-linecap="round"/>
<path d="M10 7V12V17" stroke="#18181B" stroke-width="2" stroke-linecap="round"/>
<path d="M14 7V12V17" stroke="#18181B" stroke-width="2" stroke-linecap="round"/>
<path d="M18 7V12V17" stroke="#18181B" stroke-width="2" stroke-linecap="round"/>
<path d="M1 21V22C0.447715 22 0 21.5523 0 21H1ZM6 20C6.55228 20 7 20.4477 7 21C7 21.5523 6.55228 22 6 22V20ZM0 16C0 15.4477 0.447715 15 1 15C1.55228 15 2 15.4477 2 16H0ZM1 20H6V22H1V20ZM2 16V21H0V16H2Z" fill="#18181B"/>
<path d="M23 21V22C23.5523 22 24 21.5523 24 21H23ZM18 20C17.4477 20 17 20.4477 17 21C17 21.5523 17.4477 22 18 22V20ZM24 16C24 15.4477 23.5523 15 23 15C22.4477 15 22 15.4477 22 16H24ZM23 20H18V22H23V20ZM22 16V21H24V16H22Z" fill="#18181B"/>
</svg>
