<svg width="24" height="24" viewBox="0 0 24 24" fill="none" xmlns="http://www.w3.org/2000/svg">
<g clip-path="url(#clip0_5165_237655)">
<path d="M12.9996 19.9843V21.7908C13.0003 21.9585 12.9659 22.1245 12.8986 22.2781C12.8313 22.4318 12.7325 22.5697 12.6087 22.6831C12.4849 22.7965 12.3387 22.8828 12.1795 22.9365C12.0203 22.9903 11.8517 23.0102 11.6843 22.9951C9.82768 22.7938 8.04426 22.1606 6.47734 21.1465C5.01953 20.222 3.78356 18.9884 2.8572 17.5335C1.83752 15.9626 1.20294 14.174 1.0049 12.3128C0.98982 12.1463 1.00965 11.9784 1.06312 11.82C1.11659 11.6615 1.20254 11.5159 1.31548 11.3924C1.42843 11.269 1.5659 11.1703 1.71915 11.1027C1.87239 11.0352 2.03805 11.0002 2.20558 11.0001H4.01565C4.30846 10.9972 4.59233 11.1007 4.81435 11.2912C5.03636 11.4818 5.18138 11.7464 5.22236 12.0358C5.29876 12.6139 5.44044 13.1815 5.64471 13.7278C5.72589 13.9434 5.74346 14.1776 5.69534 14.4028C5.64721 14.628 5.53542 14.8347 5.3732 14.9984L4.60694 15.7632C5.46585 17.2707 6.71655 18.5189 8.22708 19.3761L8.99334 18.6114C9.15739 18.4495 9.3645 18.3379 9.59013 18.2899C9.81577 18.2419 10.0505 18.2594 10.2664 18.3404C10.8138 18.5443 11.3826 18.6857 11.9619 18.7619C12.2549 18.8032 12.5226 18.9505 12.714 19.1759C12.9053 19.4013 13.007 19.689 12.9996 19.9843Z" stroke="#18181B" stroke-width="2" stroke-linecap="round" stroke-linejoin="round"/>
<path d="M12 2C7.89937 2 4.37521 4.46819 2.83209 8M16.5 20.9327C19.0131 19.6642 20.918 17.3663 21.6605 14.5931C21.7128 14.3977 21.7594 14.1999 21.8 14" stroke="#18181B" stroke-width="2" stroke-linecap="round" stroke-linejoin="round"/>
<path d="M15.5 8.5L21 14" stroke="#18181B" stroke-width="2" stroke-linecap="round"/>
<path fill-rule="evenodd" clip-rule="evenodd" d="M7.79289 7.79289C8.18342 7.40237 8.81658 7.40237 9.20711 7.79289C9.59763 8.18342 9.59763 8.81658 9.20711 9.20711L7.83211 10.5821L6.69105 11.7232C6.5806 11.1127 6.26323 10.558 5.79129 10.153C5.7264 10.0973 5.65916 10.0449 5.58983 9.99595L6.41789 9.16789L7.79289 7.79289ZM4.96578 10.62L4.79289 10.7929C4.40237 11.1834 4.40237 11.8166 4.79289 12.2071C5.18342 12.5976 5.81658 12.5976 6.20711 12.2071L6.26834 12.1459L4.96578 10.62Z" fill="#18181B"/>
<path d="M23.4 6C23.4 3.23858 21.1614 1 18.4 1C19.6506 2.36918 20.3614 4.14602 20.4 6H23.4Z" fill="white"/>
<path d="M20.4 6H16.4C16.4386 7.85398 17.1494 9.63082 18.4 11C19.6506 9.63082 20.3614 7.85398 20.4 6Z" fill="white"/>
<path d="M16.4 6H20.4C20.3614 4.14602 19.6506 2.36918 18.4 1C17.1494 2.36918 16.4386 4.14602 16.4 6Z" fill="white"/>
<path d="M18.4 11C21.1614 11 23.4 8.76142 23.4 6H20.4C20.3614 7.85398 19.6506 9.63082 18.4 11Z" fill="white"/>
<path d="M23.4 6C23.4 8.76142 21.1614 11 18.4 11M23.4 6C23.4 3.23858 21.1614 1 18.4 1M23.4 6H20.4M18.4 11C19.6506 9.63082 20.3614 7.85398 20.4 6M18.4 11C17.1494 9.63082 16.4386 7.85398 16.4 6M18.4 1C19.6506 2.36918 20.3614 4.14602 20.4 6M18.4 1C17.1494 2.36918 16.4386 4.14602 16.4 6M20.4 6H16.4" stroke="white" stroke-width="4" stroke-linecap="round" stroke-linejoin="round"/>
<path d="M23.4 6C23.4 3.23858 21.1614 1 18.4 1C19.6506 2.36918 20.3614 4.14602 20.4 6H23.4Z" fill="white"/>
<path d="M20.4 6H16.4C16.4386 7.85398 17.1494 9.63082 18.4 11C19.6506 9.63082 20.3614 7.85398 20.4 6Z" fill="white"/>
<path d="M16.4 6H20.4C20.3614 4.14602 19.6506 2.36918 18.4 1C17.1494 2.36918 16.4386 4.14602 16.4 6Z" fill="white"/>
<path d="M18.4 1C15.6386 1 13.4 3.23858 13.4 6H16.4C16.4386 4.14602 17.1494 2.36918 18.4 1Z" fill="white"/>
<path d="M13.4 6C13.4 8.76142 15.6386 11 18.4 11C17.1494 9.63082 16.4386 7.85398 16.4 6H13.4Z" fill="white"/>
<path d="M18.4 11C21.1614 11 23.4 8.76142 23.4 6H20.4C20.3614 7.85398 19.6506 9.63082 18.4 11Z" fill="white"/>
<path d="M23.4 6C23.4 8.76142 21.1614 11 18.4 11M23.4 6C23.4 3.23858 21.1614 1 18.4 1M23.4 6H13.4M23.4 6H20.4M18.4 11C15.6386 11 13.4 8.76142 13.4 6M18.4 11C19.6506 9.63082 20.3614 7.85398 20.4 6M18.4 11C17.1494 9.63082 16.4386 7.85398 16.4 6M13.4 6C13.4 3.23858 15.6386 1 18.4 1M13.4 6H16.4M18.4 1C19.6506 2.36918 20.3614 4.14602 20.4 6M18.4 1C17.1494 2.36918 16.4386 4.14602 16.4 6M20.4 6H16.4" stroke="#18181B" stroke-width="1.33" stroke-linecap="round" stroke-linejoin="round"/>
<path d="M12 8.5V15" stroke="#18181B" stroke-width="2" stroke-linecap="round" stroke-dasharray="4 4"/>
</g>
<defs>
<clipPath id="clip0_5165_237655">
<rect width="24" height="24" fill="white"/>
</clipPath>
</defs>
</svg>
