<?xml version="1.0" encoding="UTF-8"?>
<svg id="Ebene_1" data-name="Ebene 1" xmlns="http://www.w3.org/2000/svg" viewBox="0 0 24 24">
  <defs>
    <style>
      .cls-1 {
        fill: var(--figma-grey-500);
      }
    </style>
  </defs>
  <path class="cls-1" d="m12.92,17.13c-.5-.07-1-.19-1.47-.37-.39-.15-.82-.18-1.24-.09-.41.09-.79.29-1.09.59l-.2.2c-.86-.59-1.61-1.34-2.21-2.2l.21-.21c.3-.3.5-.68.59-1.09.09-.41.05-.84-.09-1.23-.15-.39-.25-.8-.32-1.23h0s-.01-.02-.01-.02c-.01-.08-.03-.16-.05-.24-.08-.53-.34-1.01-.75-1.36-.41-.35-.96-.54-1.45-.53h-1.81c-.31,0-.61.06-.89.19-.28.13-.53.3-.74.53-.21.23-.36.49-.46.78-.1.29-.13.6-.1.92.21,2.01.91,3.96,2,5.65,1,1.57,2.36,2.92,3.92,3.92,1.69,1.09,3.64,1.79,5.66,2,.07,0,.13,0,.2,0,.24,0,.48-.04.71-.12.29-.1.56-.25.79-.46s.41-.46.53-.74c.12-.28.19-.58.19-.89v-1.79c.01-.54-.17-1.06-.52-1.47-.35-.41-.84-.68-1.38-.76Zm-.09,2.21v1.81s-.07.15-.07.15l-.14.06c-1.69-.18-3.34-.77-4.78-1.7-1.33-.84-2.47-1.98-3.32-3.31-.93-1.43-1.52-3.09-1.7-4.78,0,0-.02-.11.05-.16.07-.05.16-.05.16-.05h1.82s.1.02.14.05c.04.03.06.08.07.12.09.65.25,1.3.48,1.91.01.04.02.08,0,.11,0,.04-.03.08-.05.1l-.77.76c-.32.32-.39.81-.16,1.2.95,1.66,2.33,3.04,4,3.99.39.22.88.16,1.2-.16l.76-.76s.06-.05.1-.05c.04,0,.08,0,.12,0,.62.23,1.26.39,1.91.47.05,0,.1.03.13.07.03.04.05.08.05.13v.03Z"/>
  <path class="cls-1" d="m12.83.36C8.46.36,4.5,2.95,2.75,6.96c-.22.51,0,1.1.52,1.32.51.22,1.1-.01,1.32-.52,1.43-3.28,4.67-5.4,8.25-5.4,4.96,0,9,4.04,9,9,0,.19-.03.37-.04.55l-4.76-4.76c-.39-.39-1.02-.39-1.41,0s-.39,1.02,0,1.41l5.5,5.5c.07.07.15.11.23.15-.74,2.21-2.31,4.09-4.47,5.18-.49.25-.69.85-.44,1.34.18.35.53.55.89.55.15,0,.31-.03.45-.11,3.73-1.88,6.05-5.65,6.05-9.83C23.83,5.3,18.9.36,12.83.36Z"/>
  <path class="cls-1" d="m13.83,11.86v-4c0-.55-.45-1-1-1s-1,.45-1,1v4c0,.55.45,1,1,1s1-.45,1-1Z"/>
  <path class="cls-1" d="m8.66,9.94l1.38-1.38c.39-.39.39-1.02,0-1.41-.39-.39-1.02-.39-1.41,0l-1.38,1.38-.83.83c.07.05.14.1.2.16.47.4.79.96.9,1.57l1.14-1.14Z"/>
</svg>