<?xml version="1.0" encoding="UTF-8"?>
<svg id="Ebene_1" data-name="Ebene 1" xmlns="http://www.w3.org/2000/svg" viewBox="0 0 24 24">
  <defs>
    <style>
      .cls-1 {
        fill: var(--figma-grey-500);
      }
    </style>
  </defs>
  <path class="cls-1" d="m12.09,17.77c-.5-.07-1-.19-1.47-.37-.4-.15-.82-.18-1.24-.09-.41.09-.79.29-1.1.59l-.2.2c-.86-.59-1.61-1.34-2.21-2.2l.2-.2c.3-.3.5-.68.59-1.09.09-.41.06-.84-.09-1.23-.18-.47-.3-.97-.37-1.48-.08-.53-.34-1.01-.75-1.36-.41-.35-.88-.53-1.45-.53h-1.81c-.31,0-.61.06-.89.19-.28.12-.53.3-.74.53-.21.23-.36.49-.46.78-.1.29-.13.59-.11.92.21,2.01.91,3.96,2,5.65,1,1.57,2.36,2.92,3.92,3.92,1.69,1.09,3.64,1.79,5.66,2,.07,0,.13,0,.2,0,.24,0,.48-.04.71-.12.3-.1.56-.26.78-.46.23-.21.41-.46.53-.74.12-.28.19-.58.19-.89v-1.8c0-.54-.18-1.06-.52-1.47-.35-.41-.84-.68-1.38-.76Zm-.09,2.21v1.81l-.07.15s-.14.05-.14.06c-1.69-.18-3.34-.77-4.78-1.7-1.33-.84-2.47-1.98-3.32-3.31-.93-1.43-1.52-3.08-1.7-4.78,0,0-.01-.1.05-.17.04-.04.15-.04.15-.04h1.82s.1.02.13.05c.04.03.06.08.07.12.09.65.25,1.3.48,1.91.01.04.02.08,0,.12,0,.04-.03.07-.05.1l-.77.77c-.32.32-.38.81-.16,1.2.95,1.66,2.33,3.04,4,3.99.39.22.88.15,1.2-.16l.76-.76s.06-.05.1-.05c.04,0,.08,0,.12,0,.62.23,1.26.39,1.91.47.05,0,.1.03.13.07.03.04.05.09.05.14v.02Z"/>
  <path class="cls-1" d="m2.43,8.92c.13.06.27.08.4.08.39,0,.75-.22.92-.6,1.43-3.28,4.67-5.4,8.25-5.4.55,0,1-.45,1-1s-.45-1-1-1C7.63,1,3.67,3.59,1.92,7.6c-.22.51,0,1.1.52,1.32Z"/>
  <path class="cls-1" d="m7.79,7.79l-1.38,1.38-.83.83c.07.05.14.1.2.16.47.4.79.96.9,1.57l1.14-1.14,1.38-1.38c.39-.39.39-1.02,0-1.41-.39-.39-1.02-.39-1.41,0Z"/>
  <path class="cls-1" d="m22.78,13.87c0-.07-.03-.12-.05-.19-.02-.06-.04-.12-.07-.17-.04-.06-.08-.11-.13-.17-.03-.03-.04-.07-.07-.1l-1.06-.93c-.71.34-1.48.57-2.3.65l1.59,1.39c-.67,2.46-2.35,4.53-4.64,5.68-.49.25-.69.85-.44,1.34.18.35.53.55.89.55.15,0,.3-.03.45-.11,2.8-1.41,4.87-3.95,5.68-6.97.06-.22.11-.44.15-.66,0-.04,0-.08,0-.13,0-.07,0-.13,0-.2Z"/>
  <path class="cls-1" d="m18.4,11.67h0c3.12,0,5.66-2.54,5.66-5.67S21.53.34,18.4.33h0c-3.12,0-5.66,2.54-5.66,5.67s2.54,5.66,5.66,5.67h0Zm4.28-6.33h-1.66c-.12-1.2-.5-2.36-1.11-3.4,1.44.54,2.53,1.83,2.77,3.4Zm-1.66,1.33h1.66c-.24,1.56-1.32,2.86-2.77,3.4.61-1.03.99-2.19,1.11-3.4Zm-2.63-4.62c.7.97,1.15,2.1,1.29,3.29h-2.58c.14-1.19.58-2.32,1.29-3.29Zm-4.28,4.62h1.66c.12,1.2.5,2.36,1.11,3.4-1.44-.54-2.53-1.83-2.77-3.4Zm1.66-1.33h-1.66c.24-1.56,1.32-2.86,2.77-3.4-.61,1.03-.99,2.19-1.11,3.4Zm3.91,1.33c-.14,1.19-.58,2.32-1.29,3.29-.7-.97-1.15-2.1-1.29-3.29h2.58Z"/>
  <path class="cls-1" d="m11,8.5v4c0,.55.45,1,1,1s1-.45,1-1v-4c0-.55-.45-1-1-1s-1,.45-1,1Z"/>
</svg>