<svg width="20" height="20" viewBox="0 0 20 20" fill="none" xmlns="http://www.w3.org/2000/svg">
<clipPath id="left-to-right">
        <path d="M6.08477 14.1646L15.9741 4.27529C16.3646 3.88476 16.9978 3.88476 17.3883 4.27528C17.7788 4.66581 17.7788 5.29897 17.3883 5.6895L8.19221 14.8856C7.80935 15.2684 7.18862 15.2685 6.80576 14.8856L6.08477 14.1646Z M2.5771 9.24443C2.96763 8.85391 3.60079 8.85391 3.99132 9.24443L8.03452 13.2876L6.62031 14.7018L2.5771 10.6586C2.18658 10.2681 2.18658 9.63495 2.5771 9.24443Z M6.08477 14.1646L15.9741 4.27529C16.3646 3.88476 16.9978 3.88476 17.3883 4.27528C17.7788 4.66581 17.7788 5.29897 17.3883 5.6895L8.19221 14.8856C7.80935 15.2684 7.18862 15.2685 6.80576 14.8856L6.08477 14.1646Z"/>
</clipPath>
<rect width="20" height="20" fill="white" clip-path="url(#left-to-right)">
    <animate attributeName="width" values="0; 20" dur="0.7s" fill="freeze" repeatCount="1"/>
</rect>
</svg>