<svg width="24" height="24" viewBox="0 0 24 24" fill="none" xmlns="http://www.w3.org/2000/svg">
<g clip-path="url(#clip0_4399_229354)">
<circle cx="12" cy="12" r="10" stroke="#18181B" stroke-width="1.33" stroke-linejoin="bevel" stroke-dasharray="1 2"/>
<path d="M18 12C18 15.3137 15.3137 18 12 18C8.68629 18 6 15.3137 6 12M18 12C18 8.68629 15.3137 6 12 6C8.68629 6 6 8.68629 6 12M18 12L15.0144 11.6268C14.6016 11.5752 14.4287 11.0713 14.7229 10.7771L17 8.5M6 12L8.98557 11.6268C9.39844 11.5752 9.57132 11.0713 9.27711 10.7771L7 8.5M10 6.5L11.584 8.87596C11.7819 9.17283 12.2181 9.17283 12.416 8.87596L14 6.5M14 17.5L13.6258 14.8807C13.5707 14.4946 13.9592 14.1968 14.3178 14.3505L17 15.5M10 17.5L10.3742 14.8807C10.4293 14.4946 10.0408 14.1968 9.68224 14.3505L7 15.5M23 12C23 18.0751 18.0751 23 12 23C5.92487 23 1 18.0751 1 12C1 5.92487 5.92487 1 12 1C18.0751 1 23 5.92487 23 12ZM20 12C20 16.4183 16.4183 20 12 20C7.58172 20 4 16.4183 4 12C4 7.58172 7.58172 4 12 4C16.4183 4 20 7.58172 20 12ZM13 12C13 12.5523 12.5523 13 12 13C11.4477 13 11 12.5523 11 12C11 11.4477 11.4477 11 12 11C12.5523 11 13 11.4477 13 12Z" stroke="#18181B" stroke-width="1.33"/>
</g>
<defs>
<clipPath id="clip0_4399_229354">
<rect width="24" height="24" fill="white"/>
</clipPath>
</defs>
</svg>
