<svg width="25" height="24" viewBox="0 0 25 24" fill="none" xmlns="http://www.w3.org/2000/svg">
<path d="M2.89474 21.0548C1.29642 21.0548 0 18.5717 0 15.5104C0 12.4491 1.29642 9.96248 2.89474 9.96248H6.29384C7.89217 9.96248 9.18859 12.4456 9.18859 15.5069C9.18859 18.5682 7.89217 21.0513 6.29384 21.0513L2.89474 21.0548Z" fill="#231F20"/>
<path d="M6.61707 21.1233C5.00099 21.1233 3.74364 18.6402 3.74364 15.5327C3.74364 12.4253 4.94061 9.93513 6.55669 9.93513" stroke="white" stroke-width="0.16" stroke-miterlimit="10"/>
<path d="M6.71652 11.5523C5.82856 11.5523 5.10399 13.2692 5.10399 15.3869C5.10399 17.5047 5.81436 19.2215 6.71652 19.2215C7.61869 19.2215 8.32905 17.5047 8.32905 15.3869C8.32905 13.2692 7.61869 11.5523 6.71652 11.5523ZM6.57445 19.0265C5.81791 19.0265 5.20344 17.4089 5.20344 15.4153C5.20344 13.4217 5.81791 11.8042 6.57445 11.8042C7.33099 11.8042 7.94545 13.4217 7.94545 15.4153C7.94545 17.4089 7.33099 19.0265 6.57445 19.0265Z" fill="white"/>
<path d="M5.56216 13.0367L5.41653 13.2815L5.26025 14.0619L5.18922 14.9203L5.14659 16.059L5.36326 17.3041L5.57281 17.9391C6.06297 17.9391 6.46077 16.8749 6.46077 15.5943C6.46077 14.3137 6.06297 13.0367 5.57281 13.0367" fill="white"/>
<path d="M4.52152 21.1789C2.87702 21.1789 1.5735 18.6319 1.5735 15.5351C1.5735 12.4384 2.90544 9.85948 4.54994 9.85948M3.63356 21.1647C1.98907 21.1647 0.685545 18.6177 0.685545 15.5209C0.685545 12.4242 2.01748 9.84529 3.66198 9.84529" stroke="white" stroke-width="0.16" stroke-miterlimit="10"/>
<path d="M1.59125 14.9036L0.738812 14.8469M1.57349 15.8898L0.689085 15.8543M1.63742 16.7979L0.745914 16.7482M1.72622 17.5321L0.884435 17.4931M1.92157 18.3729L1.06203 18.3197M2.16665 18.9369L1.31421 18.8979M2.40462 19.4761L1.50245 19.4051M2.67101 19.9337H1.81146M2.95871 20.3132L2.10982 20.3345M3.29258 20.6467H2.44014M1.72977 13.7862L0.848918 13.7614M1.88605 12.9881H1.04782M2.11337 12.2786H1.21476M2.28031 11.743H1.45628M2.55025 11.3031H1.66584M3.61224 20.8808L2.82018 20.9092M2.78111 10.9519H1.90381M3.0475 10.5972H2.16665M3.28903 10.3241H2.43304M3.65131 10.0758H2.76691" stroke="white" stroke-width="0.16" stroke-miterlimit="10"/>
<path d="M5.89961 21.2101C4.31905 21.2101 3.05815 18.6632 3.05815 15.5664C3.05815 12.4696 4.33681 9.89073 5.91737 9.89073M5.04007 21.1959C3.4595 21.1959 2.1986 18.649 2.1986 15.5522C2.1986 12.4554 3.47726 9.87654 5.05783 9.87654" stroke="white" stroke-width="0.16" stroke-miterlimit="10"/>
<path d="M3.0865 14.9282L2.26603 14.8714M3.06874 15.9143L2.2163 15.8788M3.12912 16.8224L2.28734 16.7727M3.23213 17.5638L2.42231 17.5248M3.42037 18.4045L2.59635 18.3513M3.6619 18.9721L2.84498 18.9331M3.89277 19.5113L3.02612 19.4439M4.1485 19.9724H3.28896M4.39003 20.352L3.57666 20.3733M4.71324 20.6854H3.89277M3.20371 13.825L2.35838 13.8001M3.35644 13.0268H2.56083M3.58376 12.3174H2.72066M3.7507 11.7817H2.95509M4.02064 11.3419H3.15754M5.0258 20.9195L4.26216 20.9586M4.22664 11.0262H3.38486M4.48593 10.6714H3.64769M4.71324 10.3983H3.89277M5.06487 10.15H4.21243" stroke="white" stroke-width="0.16" stroke-miterlimit="10"/>
<path d="M16.644 3.38437V16.9527L11.4015 13.6999H5.45214V6.70817H11.4015L16.6582 3.38437L16.644 3.38437Z" fill="white"/>
<path d="M21.1157 13.9269C22.2001 11.3065 22.1017 8.3465 20.8458 5.80362M23.0799 14.7889C24.4142 11.5702 24.2925 7.93293 22.746 4.81037M19.0876 13.1961C19.9549 11.0841 19.8721 8.70183 18.8603 6.65495M16.644 3.38437V16.9527L11.4015 13.6999H5.45214V6.70817H11.4015L16.6582 3.38437L16.644 3.38437Z" stroke="#231F20" stroke-width="0.6" stroke-linecap="round" stroke-linejoin="round"/>
<path d="M6.97607 8.79453L7.49837 9.67725H7.5186L8.04343 8.79453H8.66184L7.87144 10.0895L8.67954 11.3845H8.04975L7.5186 10.5005H7.49837L6.96721 11.3845H6.33995L7.15059 10.0895L6.35513 8.79453H6.97607Z" fill="#231F20"/>
<path d="M8.85659 8.79453H9.46995L10.0605 9.90994H10.0858L10.6764 8.79453H11.2898L10.3451 10.4689V11.3845H9.80128V10.4689L8.85659 8.79453Z" fill="#231F20"/>
<path d="M13.4966 11.5535H13.2359V11.3913C13.1611 11.456 13.083 11.5064 13.0016 11.5424C12.9203 11.5785 12.832 11.5965 12.7368 11.5965C12.5519 11.5965 12.4049 11.5253 12.2959 11.383C12.1877 11.2406 12.1336 11.0433 12.1336 10.7909C12.1336 10.6597 12.1521 10.5427 12.1891 10.4401C12.227 10.3375 12.2778 10.2502 12.3416 10.1781C12.4045 10.1078 12.4775 10.0542 12.5607 10.0172C12.6448 9.98027 12.7317 9.96178 12.8214 9.96178C12.9027 9.96178 12.9748 9.97056 13.0377 9.98813C13.1005 10.0048 13.1666 10.0311 13.2359 10.0672V9.39607H13.4966V11.5535ZM13.2359 11.1722V10.2835C13.1657 10.252 13.1028 10.2303 13.0474 10.2183C12.9919 10.2063 12.9314 10.2003 12.8657 10.2003C12.7197 10.2003 12.606 10.2511 12.5246 10.3528C12.4433 10.4545 12.4026 10.5987 12.4026 10.7854C12.4026 10.9693 12.4341 11.1094 12.4969 11.2055C12.5598 11.3007 12.6605 11.3483 12.7992 11.3483C12.8731 11.3483 12.948 11.3322 13.0238 11.2998C13.0996 11.2665 13.1703 11.224 13.2359 11.1722Z" fill="#231F20"/>
<path d="M15.5875 10.9185C15.5875 11.0211 15.5681 11.1117 15.5293 11.1903C15.4905 11.2688 15.4382 11.3335 15.3726 11.3844C15.295 11.4454 15.2095 11.4888 15.1161 11.5147C15.0237 11.5406 14.9058 11.5535 14.7625 11.5535H14.0304V9.48897H14.6419C14.7926 9.48897 14.9053 9.49452 14.9802 9.50561C15.0551 9.5167 15.1267 9.53981 15.1951 9.57494C15.2709 9.61468 15.3259 9.66599 15.3601 9.72884C15.3943 9.79078 15.4114 9.86519 15.4114 9.95208C15.4114 10.0501 15.3865 10.1337 15.3366 10.203C15.2866 10.2714 15.2201 10.3264 15.1369 10.368V10.3791C15.2765 10.4078 15.3865 10.4693 15.4669 10.5635C15.5473 10.6569 15.5875 10.7752 15.5875 10.9185ZM15.1258 9.98813C15.1258 9.93821 15.1175 9.89615 15.1008 9.86195C15.0842 9.82775 15.0574 9.80002 15.0204 9.77876C14.977 9.7538 14.9243 9.73855 14.8624 9.733C14.8004 9.72653 14.7237 9.7233 14.6322 9.7233H14.305V10.3195H14.6599C14.7459 10.3195 14.8143 10.3154 14.8651 10.307C14.916 10.2978 14.9631 10.2793 15.0066 10.2516C15.05 10.2238 15.0805 10.1883 15.0981 10.1448C15.1166 10.1004 15.1258 10.0482 15.1258 9.98813ZM15.3019 10.9296C15.3019 10.8464 15.2894 10.7803 15.2645 10.7313C15.2395 10.6823 15.1942 10.6407 15.1286 10.6065C15.0842 10.5834 15.0301 10.5686 14.9663 10.5622C14.9035 10.5548 14.8268 10.5511 14.7362 10.5511H14.305V11.3192H14.6682C14.7884 11.3192 14.8869 11.3132 14.9636 11.3012C15.0403 11.2882 15.1032 11.2651 15.1521 11.2319C15.2039 11.1958 15.2418 11.1547 15.2658 11.1085C15.2899 11.0622 15.3019 11.0026 15.3019 10.9296Z" fill="#231F20"/>
<path d="M12.6749 20.9284H11.8487L11.6344 20.3028H10.4856L10.2712 20.9284H9.4658L10.6104 17.8336H11.5303L12.6749 20.9284ZM11.4408 19.7354L11.06 18.6255L10.6791 19.7354H11.4408Z" fill="#231F20"/>
<path d="M14.5618 20.2934C14.5618 20.396 14.5424 20.4865 14.5036 20.565C14.4647 20.6435 14.4125 20.7082 14.3468 20.759C14.2691 20.82 14.1835 20.8634 14.0901 20.8893C13.9976 20.9151 13.8797 20.9281 13.7363 20.9281H13.0038V18.8648H13.6156C13.7664 18.8648 13.8792 18.8703 13.9541 18.8814C14.0291 18.8925 14.1007 18.9156 14.1692 18.9507C14.245 18.9904 14.3001 19.0417 14.3343 19.1045C14.3685 19.1664 14.3856 19.2408 14.3856 19.3276C14.3856 19.4255 14.3607 19.5091 14.3107 19.5784C14.2608 19.6468 14.1942 19.7018 14.1109 19.7433V19.7544C14.2506 19.783 14.3607 19.8444 14.4411 19.9387C14.5216 20.032 14.5618 20.1502 14.5618 20.2934V20.2934ZM14.0998 19.3636C14.0998 19.3138 14.0915 19.2717 14.0749 19.2375C14.0582 19.2034 14.0314 19.1757 13.9944 19.1544C13.9509 19.1295 13.8982 19.1142 13.8362 19.1087C13.7742 19.1022 13.6975 19.099 13.6059 19.099H13.2785V19.6948H13.6336C13.7197 19.6948 13.7881 19.6907 13.839 19.6823C13.8899 19.6731 13.937 19.6546 13.9805 19.6269C14.024 19.5992 14.0545 19.5636 14.0721 19.5202C14.0906 19.4759 14.0998 19.4237 14.0998 19.3636H14.0998ZM14.276 20.3045C14.276 20.2214 14.2635 20.1553 14.2386 20.1064C14.2136 20.0574 14.1683 20.0158 14.1026 19.9816C14.0582 19.9585 14.0041 19.9438 13.9403 19.9373C13.8774 19.9299 13.8006 19.9262 13.71 19.9262H13.2785V20.6939H13.642C13.7622 20.6939 13.8607 20.6879 13.9375 20.6759C14.0143 20.6629 14.0772 20.6399 14.1262 20.6066C14.178 20.5706 14.2159 20.5295 14.24 20.4833C14.264 20.4371 14.276 20.3775 14.276 20.3045V20.3045Z" fill="#231F20"/>
<path d="M16.5472 20.7807C16.4963 20.8028 16.4501 20.8236 16.4084 20.843C16.3677 20.8624 16.3141 20.8827 16.2475 20.904C16.1911 20.9215 16.1296 20.9363 16.063 20.9483C15.9973 20.9613 15.9247 20.9677 15.8451 20.9677C15.6953 20.9677 15.5589 20.9469 15.4359 20.9054C15.3138 20.8629 15.2074 20.7968 15.1167 20.7072C15.0279 20.6195 14.9586 20.5081 14.9086 20.3733C14.8587 20.2375 14.8337 20.08 14.8337 19.9008C14.8337 19.7308 14.8578 19.5788 14.9059 19.4449C14.9539 19.3109 15.0233 19.1978 15.114 19.1054C15.2018 19.0158 15.3077 18.9474 15.4317 18.9003C15.5566 18.8532 15.6948 18.8297 15.8465 18.8297C15.9575 18.8297 16.0681 18.843 16.1781 18.8698C16.2891 18.8966 16.4121 18.9437 16.5472 19.0112V19.3368H16.5264C16.4126 19.2417 16.2998 19.1724 16.1878 19.129C16.0759 19.0855 15.9561 19.0638 15.8285 19.0638C15.724 19.0638 15.6296 19.0809 15.5455 19.1151C15.4622 19.1484 15.3878 19.2005 15.3221 19.2717C15.2583 19.341 15.2083 19.4287 15.1722 19.535C15.1371 19.6403 15.1195 19.7622 15.1195 19.9008C15.1195 20.0458 15.1389 20.1705 15.1778 20.2749C15.2176 20.3793 15.2684 20.4643 15.3304 20.5299C15.3951 20.5982 15.4705 20.649 15.5566 20.6823C15.6435 20.7146 15.7351 20.7308 15.8313 20.7308C15.9635 20.7308 16.0875 20.7081 16.2031 20.6629C16.3187 20.6176 16.4269 20.5497 16.5278 20.4592H16.5472V20.7807Z" fill="#231F20"/>
</svg>
