<svg width="21" height="20" viewBox="0 0 21 20" fill="none" xmlns="http://www.w3.org/2000/svg">
<path d="M2.41229 17.7243C1.08035 17.7243 0 15.655 0 13.104C0 10.5529 1.08035 8.48065 2.41229 8.48065H5.24488C6.57681 8.48065 7.65716 10.5499 7.65716 13.101C7.65716 15.6521 6.57681 17.7213 5.24488 17.7213L2.41229 17.7243Z" fill="#231F20"/>
<path d="M5.51425 17.7833C4.16751 17.7833 3.11972 15.7141 3.11972 13.1245C3.11972 10.535 4.11719 8.45984 5.46393 8.45984" stroke="white" stroke-width="0.15" stroke-miterlimit="10"/>
<path d="M5.59713 9.80745C4.85717 9.80745 4.25335 11.2382 4.25335 13.003C4.25335 14.7677 4.84533 16.1985 5.59713 16.1985C6.34894 16.1985 6.94091 14.7677 6.94091 13.003C6.94091 11.2382 6.34894 9.80745 5.59713 9.80745ZM5.47874 16.0359C4.84829 16.0359 4.33623 14.6879 4.33623 13.0266C4.33623 11.3653 4.84829 10.0173 5.47874 10.0173C6.10919 10.0173 6.62124 11.3653 6.62124 13.0266C6.62124 14.6879 6.10919 16.0359 5.47874 16.0359Z" fill="white"/>
<path d="M4.63516 11.0432L4.5138 11.2472L4.38357 11.8975L4.32437 12.6129L4.28885 13.5618L4.46941 14.5994L4.64404 15.1285C5.0525 15.1285 5.384 14.2417 5.384 13.1745C5.384 12.1074 5.0525 11.0432 4.64404 11.0432" fill="white"/>
<path d="M3.76791 17.8273C2.3975 17.8273 1.31123 15.7049 1.31123 13.1242C1.31123 10.5435 2.42117 8.39449 3.79159 8.39449M3.02795 17.8155C1.65753 17.8155 0.571262 15.693 0.571262 13.1124C0.571262 10.5317 1.68121 8.38266 3.05163 8.38266" stroke="white" stroke-width="0.15" stroke-miterlimit="10"/>
<path d="M1.32599 12.5984L0.615627 12.5511M1.31119 13.4202L0.574188 13.3906M1.36447 14.1769L0.621546 14.1355M1.43847 14.7888L0.73698 14.7563M1.60126 15.4894L0.884975 15.4451M1.80549 15.9594L1.09512 15.9269M2.0038 16.4088L1.252 16.3496M2.22579 16.7901H1.50951M2.46554 17.1064L1.75813 17.1241M2.74377 17.3843H2.0334M1.44143 11.6672L0.707382 11.6465M1.57166 11.0021H0.873135M1.76109 10.4109H1.01225M1.90021 9.96452H1.21352M2.12516 9.59797H1.38815M3.01016 17.5794L2.35011 17.603M2.31755 9.30532H1.58646M2.53954 9.00971H1.80549M2.74081 8.78209H2.02748M3.04271 8.57516H2.30571" stroke="white" stroke-width="0.15" stroke-miterlimit="10"/>
<path d="M4.91633 17.8542C3.5992 17.8542 2.54844 15.7317 2.54844 13.1511C2.54844 10.5704 3.61399 8.42136 4.93113 8.42136M4.20005 17.8424C2.88291 17.8424 1.83216 15.7199 1.83216 13.1392C1.83216 10.5586 2.89771 8.40953 4.21485 8.40953" stroke="white" stroke-width="0.15" stroke-miterlimit="10"/>
<path d="M2.57212 12.6186L1.88839 12.5713M2.55732 13.4403L1.84695 13.4108M2.60764 14.1971L1.90615 14.1557M2.69347 14.8149L2.01863 14.7824M2.85035 15.5155L2.16366 15.4712M3.05162 15.9885L2.37085 15.956M3.24401 16.4378L2.5218 16.3816M3.45712 16.8221H2.74083M3.65839 17.1384L2.98058 17.1561M3.92774 17.4163H3.24401M2.6698 11.6992L1.96535 11.6785M2.79707 11.0341H2.13406M2.9865 10.4429H2.26726M3.12562 9.99653H2.46261M3.35057 9.62998H2.63132M4.18821 17.6114L3.55184 17.6439M3.52224 9.36688H2.82075M3.73831 9.07128H3.03978M3.92774 8.84366H3.24401M4.22076 8.63673H3.5104" stroke="white" stroke-width="0.15" stroke-miterlimit="10"/>
<path d="M13.87 3V14.307L9.5012 11.5963H4.54343V5.76984H9.5012L13.8818 3L13.87 3Z" fill="white"/>
<path d="M17.5964 11.7855C18.5001 9.60175 18.4181 7.13512 17.3715 5.01604M19.2332 12.5038C20.3452 9.82152 20.2438 6.79047 18.955 4.18834M15.9063 11.1765C16.6291 9.41648 16.5601 7.43122 15.7169 5.72549M13.87 3V14.307L9.5012 11.5963H4.54343V5.76984H9.5012L13.8818 3L13.87 3Z" stroke="#231F20" stroke-width="0.6" stroke-linecap="round" stroke-linejoin="round"/>
<path d="M6.96558 7.94355L5.9921 9.66662H5.37393L6.38496 7.92766H5.28005V7.51603H6.96558V7.94355Z" fill="#231F20"/>
<path d="M8.97751 9.66662H7.54186V9.2911H7.99538V8.15442H7.54186V7.80345C7.61119 7.80345 7.67763 7.7996 7.74118 7.7919C7.80473 7.78323 7.85768 7.76879 7.90005 7.74857C7.95012 7.72449 7.98767 7.6932 8.01271 7.65469C8.03774 7.61617 8.05219 7.56803 8.05604 7.51025H8.53411V9.2911H8.97751V9.66662Z" fill="#231F20"/>
<path d="M11.2472 9.80852H11.03V9.67334C10.9676 9.72726 10.9025 9.76924 10.8347 9.79928C10.7669 9.82932 10.6934 9.84434 10.614 9.84434C10.46 9.84434 10.3375 9.78503 10.2466 9.6664C10.1565 9.54778 10.1114 9.38332 10.1114 9.17302C10.1114 9.06364 10.1268 8.9662 10.1576 8.88069C10.1892 8.79519 10.2316 8.7224 10.2847 8.66231C10.3371 8.60377 10.3979 8.55909 10.4673 8.52828C10.5374 8.49747 10.6098 8.48206 10.6845 8.48206C10.7523 8.48206 10.8124 8.48938 10.8647 8.50402C10.9171 8.51788 10.9722 8.53983 11.03 8.56988V8.01064H11.2472V9.80852ZM11.03 9.49077V8.75013C10.9714 8.72394 10.9191 8.70583 10.8728 8.69582C10.8266 8.68581 10.7762 8.6808 10.7215 8.6808C10.5998 8.6808 10.505 8.72317 10.4372 8.8079C10.3694 8.89263 10.3355 9.0128 10.3355 9.1684C10.3355 9.32169 10.3617 9.43839 10.4141 9.51851C10.4665 9.59785 10.5505 9.63752 10.666 9.63752C10.7276 9.63752 10.79 9.62404 10.8532 9.59708C10.9164 9.56935 10.9753 9.53391 11.03 9.49077Z" fill="#231F20"/>
<path d="M12.9896 9.27933C12.9896 9.36483 12.9735 9.44032 12.9411 9.5058C12.9087 9.57127 12.8652 9.62519 12.8105 9.66756C12.7458 9.7184 12.6746 9.7546 12.5968 9.77617C12.5197 9.79774 12.4215 9.80852 12.3021 9.80852H11.6921V8.08805H12.2016C12.3272 8.08805 12.4211 8.09267 12.4835 8.10192C12.5459 8.11116 12.6056 8.13042 12.6626 8.15969C12.7258 8.19281 12.7716 8.23556 12.8001 8.28794C12.8286 8.33956 12.8429 8.40156 12.8429 8.47397C12.8429 8.55563 12.8221 8.62534 12.7805 8.68311C12.7389 8.74011 12.6834 8.78595 12.6141 8.82061V8.82985C12.7304 8.85373 12.8221 8.90496 12.8891 8.98353C12.9561 9.06133 12.9896 9.15993 12.9896 9.27933ZM12.6049 8.50402C12.6049 8.46242 12.5979 8.42737 12.5841 8.39887C12.5702 8.37037 12.5479 8.34726 12.517 8.32954C12.4808 8.30874 12.4369 8.29603 12.3853 8.29141C12.3337 8.28602 12.2698 8.28332 12.1935 8.28332H11.9208V8.78017H12.2166C12.2883 8.78017 12.3453 8.7767 12.3876 8.76977C12.43 8.76207 12.4693 8.74666 12.5055 8.72355C12.5417 8.70044 12.5671 8.67079 12.5818 8.63458C12.5972 8.59761 12.6049 8.55408 12.6049 8.50402ZM12.7516 9.28857C12.7516 9.21924 12.7412 9.16417 12.7204 9.12334C12.6996 9.08251 12.6619 9.04785 12.6072 9.01935C12.5702 9.00009 12.5251 8.98777 12.472 8.98237C12.4196 8.97621 12.3557 8.97313 12.2802 8.97313H11.9208V9.61325H12.2236C12.3237 9.61325 12.4057 9.60825 12.4697 9.59823C12.5336 9.58745 12.586 9.56819 12.6268 9.54046C12.67 9.51042 12.7015 9.47614 12.7216 9.43762C12.7416 9.39911 12.7516 9.34942 12.7516 9.28857Z" fill="#231F20"/>
<path d="M10.5625 17.6209H9.87395L9.69532 17.0995H8.73799L8.55936 17.6209H7.88818L8.84205 15.0418H9.6086L10.5625 17.6209ZM9.53403 16.6267L9.21665 15.7017L8.89928 16.6267H9.53403Z" fill="#231F20"/>
<path d="M12.1348 17.0917C12.1348 17.1772 12.1186 17.2526 12.0863 17.318C12.0539 17.3835 12.0103 17.4374 11.9556 17.4797C11.8909 17.5305 11.8196 17.5667 11.7417 17.5882C11.6646 17.6098 11.5664 17.6206 11.4469 17.6206H10.8364V15.9012H11.3463C11.4719 15.9012 11.566 15.9058 11.6284 15.9151C11.6908 15.9243 11.7506 15.9436 11.8076 15.9728C11.8708 16.0059 11.9167 16.0486 11.9452 16.101C11.9737 16.1525 11.988 16.2145 11.988 16.2869C11.988 16.3685 11.9672 16.4382 11.9256 16.4959C11.8839 16.5529 11.8284 16.5987 11.7591 16.6333V16.6425C11.8754 16.6664 11.9672 16.7176 12.0342 16.7961C12.1013 16.8738 12.1348 16.9724 12.1348 17.0917V17.0917ZM11.7498 16.3169C11.7498 16.2753 11.7429 16.2403 11.729 16.2118C11.7151 16.1833 11.6928 16.1602 11.6619 16.1425C11.6257 16.1218 11.5818 16.109 11.5301 16.1044C11.4785 16.099 11.4145 16.0964 11.3382 16.0964H11.0653V16.5929H11.3613C11.433 16.5929 11.4901 16.5894 11.5324 16.5825C11.5748 16.5748 11.6142 16.5594 11.6504 16.5363C11.6866 16.5132 11.712 16.4836 11.7267 16.4474C11.7421 16.4104 11.7498 16.3669 11.7498 16.3169H11.7498ZM11.8966 17.1009C11.8966 17.0317 11.8862 16.9766 11.8654 16.9358C11.8446 16.895 11.8068 16.8604 11.7521 16.8319C11.7151 16.8127 11.67 16.8003 11.6168 16.7949C11.5644 16.7888 11.5005 16.7857 11.4249 16.7857H11.0653V17.4254H11.3683C11.4685 17.4254 11.5506 17.4204 11.6145 17.4104C11.6785 17.3996 11.7309 17.3804 11.7718 17.3527C11.8149 17.3227 11.8465 17.2884 11.8666 17.2499C11.8866 17.2114 11.8966 17.1618 11.8966 17.101V17.1009Z" fill="#231F20"/>
<path d="M13.7894 17.4958C13.747 17.5143 13.7084 17.5316 13.6738 17.5478C13.6398 17.5639 13.5951 17.5809 13.5396 17.5986C13.4926 17.6132 13.4414 17.6255 13.3859 17.6355C13.3311 17.6463 13.2706 17.6517 13.2043 17.6517C13.0795 17.6517 12.9658 17.6344 12.8633 17.5997C12.7615 17.5643 12.6729 17.5093 12.5973 17.4346C12.5233 17.3615 12.4655 17.2687 12.4239 17.1563C12.3823 17.0432 12.3615 16.9119 12.3615 16.7626C12.3615 16.6209 12.3815 16.4943 12.4216 16.3827C12.4617 16.2711 12.5195 16.1767 12.595 16.0998C12.6683 16.0251 12.7565 15.9681 12.8598 15.9289C12.9639 15.8896 13.0791 15.87 13.2055 15.87C13.298 15.87 13.3901 15.8811 13.4818 15.9035C13.5743 15.9258 13.6768 15.9651 13.7894 16.0212V16.2926H13.772C13.6772 16.2133 13.5832 16.1556 13.4899 16.1194C13.3967 16.0832 13.2968 16.0651 13.1905 16.0651C13.1034 16.0651 13.0248 16.0794 12.9546 16.1079C12.8852 16.1356 12.8232 16.1791 12.7685 16.2383C12.7153 16.2961 12.6737 16.3692 12.6436 16.4577C12.6143 16.5455 12.5997 16.6471 12.5997 16.7626C12.5997 16.8834 12.6158 16.9874 12.6482 17.0743C12.6814 17.1613 12.7238 17.2322 12.7754 17.2868C12.8294 17.3438 12.8922 17.3861 12.9639 17.4138C13.0363 17.4408 13.1126 17.4543 13.1928 17.4543C13.303 17.4543 13.4063 17.4354 13.5026 17.3977C13.599 17.36 13.6892 17.3034 13.7732 17.2279H13.7894V17.4958Z" fill="#231F20"/>
</svg>
