<svg width="26" height="24" viewBox="0 0 26 24" fill="none" xmlns="http://www.w3.org/2000/svg">
<path d="M24.9828 6.43533C24.9664 5.50034 24.2028 4.75099 23.2664 4.75114C23.1815 4.75364 23.0969 4.76223 23.0133 4.77685C22.9269 3.89593 22.1831 3.22557 21.2969 3.22979C20.6472 3.2228 20.0493 3.58276 19.7521 4.15974C19.5553 3.9832 19.3001 3.88552 19.0355 3.88547C18.4995 3.87974 18.0457 4.27929 17.9842 4.81113C17.8442 4.77359 17.7001 4.75344 17.5551 4.75114C16.9316 4.71972 16.3414 5.03409 16.0202 5.56879C15.699 6.10349 15.699 6.77147 16.0202 7.30616C16.3414 7.84086 16.9316 8.15523 17.5551 8.12382H23.2836C24.2199 8.12396 24.9836 7.37461 25 6.43962L24.9828 6.43533Z" fill="white"/>
<path d="M24.9828 6.43533C24.9664 5.50034 24.2028 4.75099 23.2664 4.75114C23.1815 4.75364 23.0969 4.76223 23.0133 4.77685C22.9269 3.89593 22.1831 3.22557 21.2969 3.22979C20.6472 3.2228 20.0493 3.58276 19.7521 4.15974C19.5553 3.9832 19.3001 3.88552 19.0355 3.88547C18.4995 3.87974 18.0457 4.27929 17.9842 4.81113C17.8442 4.77359 17.7001 4.75344 17.5551 4.75114C16.9316 4.71972 16.3414 5.03409 16.0202 5.56879C15.699 6.10349 15.699 6.77147 16.0202 7.30616C16.3414 7.84086 16.9316 8.15523 17.5551 8.12382H23.2836C24.2199 8.12396 24.9836 7.37461 25 6.43962L24.9828 6.43533Z" stroke="#231F20" stroke-width="0.6" stroke-linecap="round" stroke-linejoin="round"/>
<path d="M18.9497 8.21407L18.4434 8.93404M20.5889 8.21407L20.0825 8.93404M22.2795 8.21407L21.7689 8.94261M18.0228 9.44829L17.5165 10.1683M19.662 9.44829L19.1514 10.164M21.3527 9.44401L20.8678 10.164M20.4387 10.6697L19.9323 11.3896" stroke="#231F20" stroke-width="0.6" stroke-linecap="round" stroke-linejoin="round"/>
<path d="M5.24004 19.0521C3.7854 19.1078 2.94866 19.1078 2.31359 18.7907C1.84157 18.555 1.56267 18.1178 1.74288 17.7279C1.99647 17.3156 2.52226 17.1635 2.95723 17.3764C3.7339 17.685 3.81543 18.1907 5.24004 19.0521Z" fill="white"/>
<path d="M5.24004 19.0521C3.7854 19.1078 2.94866 19.1078 2.31359 18.7907C1.84157 18.555 1.56267 18.1178 1.74288 17.7279C1.99647 17.3156 2.52226 17.1635 2.95723 17.3764C3.7339 17.685 3.81543 18.1907 5.24004 19.0521Z" stroke="#231F20" stroke-width="0.6" stroke-linecap="round" stroke-linejoin="round"/>
<path d="M13.6847 19.0521C15.1394 19.1078 15.9761 19.1078 16.6112 18.7907C17.0832 18.555 17.3621 18.1178 17.1819 17.7279C16.9283 17.3156 16.4025 17.1635 15.9675 17.3764C15.1909 17.685 15.1093 18.1907 13.6847 19.0521Z" fill="white"/>
<path d="M13.6847 19.0521C15.1394 19.1078 15.9761 19.1078 16.6112 18.7907C17.0832 18.555 17.3621 18.1178 17.1819 17.7279C16.9283 17.3156 16.4025 17.1635 15.9675 17.3764C15.1909 17.685 15.1093 18.1907 13.6847 19.0521Z" stroke="#231F20" stroke-width="0.6" stroke-linecap="round" stroke-linejoin="round"/>
<path d="M15.8903 16.279C16.3194 16.1333 17.2591 15.9919 17.6496 15.739C17.786 15.6598 17.8828 15.5268 17.9163 15.3728C17.9498 15.2187 17.9168 15.0577 17.8255 14.9291C17.6115 14.678 17.244 14.6248 16.9673 14.8048C16.5125 15.1005 16.2851 15.8333 15.9117 16.279H15.8903Z" fill="white"/>
<path d="M15.8903 16.279C16.3194 16.1333 17.2591 15.9919 17.6496 15.739C17.786 15.6598 17.8828 15.5268 17.9163 15.3728C17.9498 15.2187 17.9168 15.0577 17.8255 14.9291C17.6115 14.678 17.244 14.6248 16.9673 14.8048C16.5125 15.1005 16.2851 15.8333 15.9117 16.279H15.8903Z" stroke="#231F20" stroke-width="0.6" stroke-linecap="round" stroke-linejoin="round"/>
<path d="M3.03879 16.279C2.60969 16.1333 1.66996 15.9919 1.27948 15.739C1.14303 15.6598 1.04624 15.5268 1.01278 15.3728C0.979316 15.2187 1.01225 15.0577 1.10355 14.9291C1.31763 14.678 1.68509 14.6248 1.96175 14.8048C2.4166 15.1005 2.64402 15.8333 3.01734 16.279H3.03879Z" fill="white"/>
<path d="M3.03879 16.279C2.60969 16.1333 1.66996 15.9919 1.27948 15.739C1.14303 15.6598 1.04624 15.5268 1.01278 15.3728C0.979316 15.2187 1.01225 15.0577 1.10355 14.9291C1.31763 14.678 1.68509 14.6248 1.96175 14.8048C2.4166 15.1005 2.64402 15.8333 3.01734 16.279H3.03879Z" stroke="#231F20" stroke-width="0.6" stroke-linecap="round" stroke-linejoin="round"/>
<path d="M7.74173 18.8912C5.81937 18.8912 4.25745 15.9128 4.25745 12.2401C4.25745 8.56748 5.81508 5.58907 7.74173 5.58907H11.831C13.7534 5.58907 15.3153 8.56748 15.3153 12.2401C15.3153 15.9128 13.7577 18.8912 11.831 18.8912H7.74173Z" fill="#231F20"/>
<path d="M12.2172 18.9792C10.2734 18.9792 8.76296 15.9794 8.76296 12.2767C8.76296 8.57404 10.2004 5.56563 12.1443 5.56563" stroke="white" stroke-width="0.16" stroke-miterlimit="10"/>
<path d="M12.3373 7.49923C11.2689 7.49923 10.4021 9.56055 10.4021 12.0976C10.4021 14.6346 11.2603 16.6959 12.3373 16.6959C13.4144 16.6959 14.2726 14.6346 14.2726 12.0976C14.2726 9.56056 13.4144 7.49923 12.3373 7.49923V7.49923ZM12.1657 16.4645C11.256 16.4645 10.518 14.5231 10.518 12.1318C10.518 9.74054 11.256 7.78636 12.1657 7.78636C13.0754 7.78636 13.8134 9.72768 13.8134 12.119C13.8134 14.5103 13.0754 16.4516 12.1657 16.4516V16.4645Z" fill="white"/>
<path d="M10.9513 9.28048L10.7754 9.57618L10.5865 10.5147L10.5007 11.5475L10.4492 12.9103L10.6981 14.4016L10.947 15.1602C11.5391 15.1602 12.0155 13.9002 12.0155 12.3489C12.0155 10.7975 11.5349 9.28048 10.947 9.28048" fill="white"/>
<path d="M9.7113 19.04C7.73316 19.04 6.16695 15.9845 6.16695 12.2732C6.16695 8.56198 7.76749 5.455 9.74563 5.455M8.64714 19.01C6.669 19.01 5.10279 15.9545 5.10279 12.2432C5.10279 8.53198 6.70333 5.425 8.68147 5.425" stroke="white" stroke-width="0.16" stroke-miterlimit="10"/>
<path d="M6.17547 11.519L5.14993 11.4504M6.15401 12.7018L5.08985 12.659M6.23126 13.7903L5.17567 13.7303M6.35569 14.6688L5.34302 14.6217M6.5917 15.6759L5.56186 15.6117M6.8749 16.353L5.84936 16.3059M7.13665 16.9959H6.08965M7.48422 17.5658H6.43722M7.81463 18.0201L6.79767 18.0458M8.22228 18.4229H7.19673M6.33854 10.1991L5.28295 10.1691M6.53163 9.23913H5.53612M6.82341 8.38203H5.74208M7.02938 7.74349H6.03816M7.3555 7.21638H6.27846M8.65138 18.7058H7.66874M7.61725 6.78354H6.56596M7.94337 6.35499H6.87921M8.23087 6.02929H7.20104M8.66855 5.7336H7.60439" stroke="white" stroke-width="0.16" stroke-miterlimit="10"/>
<path d="M11.3547 19.0791C9.45379 19.0791 7.95195 16.0235 7.95195 12.3123C7.95195 8.60104 9.49241 5.49406 11.3847 5.49406M10.3292 19.0491C8.42825 19.0491 6.9264 15.9935 6.9264 12.2823C6.9264 8.57104 8.46687 5.46407 10.3592 5.46407" stroke="white" stroke-width="0.16" stroke-miterlimit="10"/>
<path d="M7.96913 11.5549L6.98221 11.4864M7.94768 12.7377L6.92213 12.6949M8.01633 13.8262L7.00795 13.7834M8.14077 14.7219L7.16671 14.6748M8.36819 15.729L7.37697 15.6647M8.63853 16.4061L7.6516 16.3547M8.90885 17.0489L7.90476 17.0018M9.2178 17.5975H8.21372M9.53963 18.0517L8.56128 18.0774M9.92581 18.4546H8.93889M8.11073 10.2307L7.09377 10.2007M8.29095 9.27076H7.33406M8.56128 8.41366H7.52287M8.76296 7.77512H7.81036M9.0762 7.248H8.05494M10.3034 18.716L9.38515 18.7503M9.34224 6.81088H8.32957M9.65119 6.38234H8.64281M9.9301 6.05664H8.94317M10.3506 5.76094H9.32936" stroke="white" stroke-width="0.16" stroke-miterlimit="10"/>
</svg>
