<svg width="22" height="20" viewBox="0 0 22 20" fill="none" xmlns="http://www.w3.org/2000/svg">
<path d="M10.5793 0.820312L13.0696 6.68804L13.9014 4.66452L21 19.597H1L4.64604 10.2811L5.97099 12.1501L10.5793 0.820312Z" stroke="#231F20" stroke-width="0.6" stroke-linecap="round" stroke-linejoin="round"/>
<path d="M9.27371 9.60545L13.9159 17.5498M10.3134 9.33984L10.0232 10.8514L8.63057 10.4651M12.7843 17.5933L13.0745 16.0817L14.4671 16.468M7.42651 13.5994L15.8259 13.6332M7.62961 12.5755L8.69344 13.667L7.72632 14.7826M15.2795 14.6812L14.2157 13.5897L15.1828 12.4741M9.75726 17.7623L13.4323 9.55235M8.95456 16.8206L10.3085 16.4004L10.7582 17.9024M14.1431 10.6583L12.794 11.0784L12.3443 9.57649" stroke="#231F20" stroke-width="0.6" stroke-linecap="round" stroke-linejoin="round"/>
<path d="M11.5416 14.9601C12.0845 14.9958 12.594 14.6965 12.8265 14.2053C13.059 13.7141 12.9673 13.1309 12.5952 12.7346C12.223 12.3382 11.6462 12.2094 11.1404 12.4096C10.6347 12.6098 10.3029 13.0984 10.3037 13.6417C10.282 14.3468 10.8357 14.9365 11.5416 14.9601Z" fill="#231F20"/>
</svg>
