<svg width="21" height="20" viewBox="0 0 21 20" fill="none" xmlns="http://www.w3.org/2000/svg">
<path d="M3.58621 18.2785C1.60623 18.2785 0 15.168 0 11.3331C0 7.49815 1.60623 4.36979 3.58621 4.36979H7.78198C9.76196 4.36979 11.3682 7.48038 11.3682 11.3153C11.3682 15.1502 9.77085 18.2785 7.78198 18.2785H3.58621Z" fill="#231F20"/>
<path d="M8.19136 18.3494C6.18914 18.3494 4.63185 15.2388 4.63185 11.3461C4.63185 7.45345 6.1135 4.33398 8.11127 4.33398" stroke="white" stroke-width="0.16" stroke-miterlimit="10"/>
<path d="M8.31585 6.35872C7.2124 6.35872 6.32252 8.50947 6.32252 11.1624C6.32252 13.8152 7.2124 15.966 8.31585 15.966C9.4193 15.966 10.3092 13.833 10.3092 11.1668C10.3092 8.50058 9.4193 6.36316 8.31585 6.36316V6.35872ZM8.13787 15.7216C7.2035 15.7216 6.44265 13.6953 6.44265 11.1935C6.44265 8.69166 7.2035 6.66533 8.13787 6.66533C9.07224 6.66533 9.83309 8.69165 9.83309 11.1935C9.83309 13.6953 9.07224 15.7216 8.13787 15.7216Z" fill="white"/>
<path d="M6.89206 8.21744L6.71408 8.52406L6.51831 9.50167L6.42932 10.5815L6.37593 12.0079L6.63399 13.5676L6.89206 14.3631C7.50162 14.3631 7.99106 13.03 7.99106 11.4258C7.99106 9.82161 7.49273 8.21744 6.89206 8.21744" fill="white"/>
<path d="M5.59729 18.4144C3.56392 18.4144 1.95324 15.2238 1.95324 11.3445C1.95324 7.46513 3.60396 4.23457 5.63733 4.23457M4.50719 18.3966C2.47382 18.3966 0.863138 15.206 0.863138 11.3267C0.863138 7.44735 2.51386 4.21679 4.54723 4.21679" stroke="white" stroke-width="0.16" stroke-miterlimit="10"/>
<path d="M1.97106 10.5585L0.912103 10.4874M1.94436 11.7938L0.849812 11.7494M2.02445 12.9448L0.938799 12.8826M2.15348 13.8335L1.10788 13.798M2.39375 14.9L1.33035 14.8333M2.66516 15.611L1.61066 15.5621M2.94547 16.2864L1.82868 16.202M3.33257 16.8597H2.23357M3.65293 17.3351L2.60287 17.3618M4.06672 17.7573H3.00776M2.11789 9.16318L1.02779 9.13208M2.31366 8.16335H1.29475M2.62956 7.27461H1.51722M2.85203 6.60806H1.80643M3.14124 6.05704H2.06449M4.47161 18.055L3.4883 18.0906M3.43935 5.61712H2.35815M3.77306 5.17275H2.6963M4.08451 4.83059H3.02556M4.5339 4.51953H3.43935" stroke="white" stroke-width="0.16" stroke-miterlimit="10"/>
<path d="M7.30148 18.4567C5.3482 18.4567 3.79982 15.2661 3.79982 11.3868C3.79982 7.50745 5.3838 4.27689 7.35933 4.27689M6.27368 18.4389C4.3204 18.4389 2.77201 15.2484 2.77201 11.369C2.77201 7.48967 4.35599 4.25911 6.33152 4.25911" stroke="white" stroke-width="0.16" stroke-miterlimit="10"/>
<path d="M3.81753 10.5984L2.80307 10.5273M3.77748 11.8293L2.72298 11.7849M3.85312 12.9669L2.80752 12.9047M3.97326 13.8868L2.98994 13.8335M4.22242 14.9399L3.20351 14.8733M4.50274 15.6509L3.49272 15.6109M4.7875 16.3352L3.71519 16.2464M5.1123 16.8996H4.07114M5.43266 17.3884L4.4271 17.4151M5.8331 17.8061H4.81864M3.96881 9.21201L2.9232 9.18535M4.15569 8.21218H3.16792M4.43155 7.32344H3.36369M4.64067 6.65689H3.65735M4.96102 6.10587H3.90652M6.2202 18.1038L5.27693 18.1394M5.23244 5.66594H4.18683M5.54835 5.22158H4.51609M5.8509 4.87941H4.83644M6.28694 4.56836H5.23244" stroke="white" stroke-width="0.16" stroke-miterlimit="10"/>
<path d="M13.3215 11.83V2.67154C13.3383 2.28541 13.6645 1.9855 14.0512 2.00054H18.0156C18.4023 1.9855 18.7284 2.28541 18.7453 2.67154V11.83M12.752 11.83H19.3104H12.752ZM17.5706 5.39108H14.5718C14.3068 5.40452 14.0769 5.20999 14.0467 4.94671V3.16924C14.0525 3.03602 14.1111 2.91056 14.2096 2.82053C14.3081 2.7305 14.4384 2.68329 14.5718 2.68932H17.5706C17.7063 2.67958 17.84 2.72512 17.9415 2.81555C18.0429 2.90597 18.1034 3.03356 18.109 3.16924V4.94671C18.0787 5.21546 17.8406 5.41193 17.5706 5.39108Z" fill="white"/>
<path d="M13.3215 11.83V2.67154C13.3383 2.28541 13.6645 1.9855 14.0512 2.00054H18.0156C18.4023 1.9855 18.7284 2.28541 18.7453 2.67154V11.83M12.752 11.83H19.3104M17.5706 5.39108H14.5718C14.3068 5.40452 14.0769 5.20999 14.0467 4.94671V3.16924C14.0525 3.03602 14.1111 2.91056 14.2096 2.82053C14.3081 2.7305 14.4384 2.68329 14.5718 2.68932H17.5706C17.7063 2.67958 17.84 2.72512 17.9415 2.81555C18.0429 2.90597 18.1034 3.03356 18.109 3.16924V4.94671C18.0787 5.21546 17.8406 5.41193 17.5706 5.39108Z" stroke="#231F20" stroke-width="0.6" stroke-linecap="round" stroke-linejoin="round"/>
<path d="M19.4972 3.95638C19.9733 3.95638 20 4.05414 20 4.60071V9.85316C20 10.1864 19.8443 10.4531 19.6529 10.4531C19.4616 10.4531 19.3059 10.182 19.3059 9.85316V6.38707C19.3059 5.97381 19.1146 5.64053 18.861 5.64053" fill="white"/>
<path d="M19.4972 3.95638C19.9733 3.95638 20 4.05414 20 4.60071V9.85316C20 10.1864 19.8443 10.4531 19.6529 10.4531C19.4616 10.4531 19.3059 10.182 19.3059 9.85316V6.38707C19.3059 5.97381 19.1146 5.64053 18.861 5.64053" stroke="#231F20" stroke-width="0.6" stroke-linecap="round" stroke-linejoin="round"/>
<path d="M14.7007 9.46102C14.9552 9.43887 15.1792 9.28466 15.2905 9.05505C15.4018 8.82545 15.384 8.55429 15.2436 8.34121C15.0789 8.01682 14.7052 7.45247 14.7052 7.45247C14.7052 7.45247 14.3314 8.03903 14.1668 8.34121C14.0241 8.55245 14.0038 8.82334 14.1135 9.05344C14.2232 9.28355 14.4466 9.43856 14.7007 9.46102H14.7007Z" fill="#231F20"/>
<path d="M18.1001 8.33671L17.3882 8.29672L17.673 7.22135L16.6808 8.72776H17.4016L17.0857 9.81202L18.1001 8.33671Z" fill="#231F20"/>
<path d="M16.0578 6.82747V9.84918" stroke="#231F20" stroke-width="0.6" stroke-linecap="round" stroke-linejoin="round"/>
<path d="M14.4071 8.77734C14.4198 8.90978 14.5141 9.02009 14.643 9.05321" stroke="white" stroke-width="0.16" stroke-linecap="round" stroke-linejoin="round"/>
<path d="M18.7853 4.69042H19.4883V3.73502H18.7853" stroke="#231F20" stroke-width="0.6" stroke-linecap="round" stroke-linejoin="round"/>
</svg>
