<svg width="36" height="22" viewBox="0 0 36 22" fill="none" xmlns="http://www.w3.org/2000/svg">
    <path d="M1 1H25.4418L35 11.0005L25.4418 21H1V1Z" fill="#1C63B7"/>
    <path d="M14.8276 14.317H10.1583L9.42146 16.5773H6.4198L10.709 4.17067H14.2691L18.5583 16.5773H15.5566L14.8276 14.317ZM10.9029 12.0152H14.0752L12.4929 7.07913L10.9029 12.0152Z" fill="white"/>
    <path d="M1 1H25.4418L35 11.0005L25.4418 21H1V1Z" stroke="#231F20" stroke-width="0.145147" stroke-miterlimit="10"/>
    <path d="M14.8276 14.317H10.1583L9.42146 16.5773H6.4198L10.709 4.17067H14.2691L18.5583 16.5773H15.5566L14.8276 14.317ZM10.9029 12.0152H14.0752L12.4929 7.07913L10.9029 12.0152Z" stroke="#231F20" stroke-width="0.145147" stroke-miterlimit="10"/>
</svg>
    