<svg width="36" height="22" viewBox="0 0 36 22" fill="none" xmlns="http://www.w3.org/2000/svg">
    <path d="M1 1H25.4418L35 11.0005L25.4418 21H1V1Z" stroke="#231F20" stroke-width="0.6" stroke-miterlimit="10"/>
    <path d="M12.0048 9.49379C12.4754 9.49379 12.8321 9.38194 13.0752 9.15824C13.3182 8.93453 13.4397 8.60457 13.4397 8.16835C13.4397 7.73773 13.3182 7.41056 13.0752 7.18686C12.8321 6.95757 12.4754 6.84292 12.0048 6.84292H10.3527V9.49379H12.0048ZM12.1056 14.9717C12.7055 14.9717 13.1553 14.8347 13.4552 14.5606C13.7603 14.2866 13.9128 13.8728 13.9128 13.3191C13.9128 12.7766 13.7629 12.3712 13.463 12.1027C13.1631 11.8287 12.7106 11.6917 12.1056 11.6917H10.3527V14.9717H12.1056ZM14.8824 10.4669C15.5236 10.6682 16.0199 11.0401 16.3716 11.5826C16.7232 12.1251 16.899 12.7906 16.899 13.5791C16.899 14.7871 16.5215 15.6875 15.7666 16.2803C15.0116 16.8732 13.8637 17.1696 12.3228 17.1696H7.36658V4.64505H11.8497C13.4578 4.64505 14.6212 4.9079 15.34 5.4336C16.0639 5.9593 16.4259 6.80098 16.4259 7.95863C16.4259 8.56822 16.294 9.08833 16.0303 9.51896C15.7666 9.94399 15.3839 10.26 14.8824 10.4669Z" stroke="#231F20" stroke-width="0.6" stroke-miterlimit="10"/>
</svg>
    