<svg width="36" height="22" viewBox="0 0 36 22" fill="none" xmlns="http://www.w3.org/2000/svg">
    <path d="M1 1H25.4418L35 11.0005L25.4418 21H1V1Z" fill="white"/>
    <path d="M1 1H25.4418L35 11.0005L25.4418 21H1V1Z" fill="#D0EFF7"/>
    <path d="M11.1171 6.81069H15.1501H15.522V5.78023V4.73999H9.34369H8.60001V5.53934V16.8362V17.26H9.85855H11.1171V16.8362V12.1942H14.9022H15.2741V11.1637V10.1622H14.9022H11.1171V6.81069Z" fill="white"/>
    <path d="M1 1H25.4418L35 11.0005L25.4418 21H1V1Z" stroke="#231F20" stroke-width="0.145146" stroke-miterlimit="10"/>
    <path d="M1 1H25.4418L35 11.0005L25.4418 21H1V1Z" stroke="#231F20" stroke-width="0.145146" stroke-miterlimit="10"/>
    <path d="M11.1171 6.81069H15.1501H15.522V5.78023V4.73999H9.34369H8.60001V5.53934V16.8362V17.26H9.85855H11.1171V16.8362V12.1942H14.9022H15.2741V11.1637V10.1622H14.9022H11.1171V6.81069Z" stroke="#231F20" stroke-width="0.145146" stroke-miterlimit="10"/>
</svg>
