<svg width="36" height="22" viewBox="0 0 36 22" fill="none" xmlns="http://www.w3.org/2000/svg">
    <path d="M1 1H25.4418L35 11.0005L25.4418 21H1V1Z" fill="#297ECB"/>
    <path d="M12.9361 9.19286C13.4066 9.19286 13.7634 9.08101 14.0064 8.85731C14.2495 8.63361 14.371 8.30365 14.371 7.86743C14.371 7.4368 14.2495 7.10964 14.0064 6.88594C13.7634 6.65664 13.4066 6.542 12.9361 6.542H11.284V9.19286H12.9361ZM13.0369 14.6708C13.6367 14.6708 14.0866 14.5337 14.3865 14.2597C14.6916 13.9857 14.8441 13.5718 14.8441 13.0182C14.8441 12.4757 14.6942 12.0702 14.3943 11.8018C14.0943 11.5278 13.6419 11.3907 13.0369 11.3907H11.284V14.6708H13.0369ZM15.8136 10.166C16.4548 10.3673 16.9512 10.7392 17.3028 11.2817C17.6545 11.8242 17.8303 12.4897 17.8303 13.2782C17.8303 14.4862 17.4528 15.3866 16.6979 15.9794C15.9429 16.5722 14.795 16.8686 13.2541 16.8686H8.29785V4.34412H12.781C14.3891 4.34412 15.5525 4.60697 16.2713 5.13267C16.9952 5.65837 17.3571 6.50005 17.3571 7.65771C17.3571 8.2673 17.2253 8.7874 16.9616 9.21803C16.6979 9.64306 16.3152 9.95904 15.8136 10.166Z" fill="white"/>
    <path d="M1 1H25.4418L35 11.0005L25.4418 21H1V1Z" stroke="#231F20" stroke-width="0.145146" stroke-miterlimit="10"/>
    <path d="M12.9361 9.19286C13.4066 9.19286 13.7634 9.08101 14.0064 8.85731C14.2495 8.63361 14.371 8.30365 14.371 7.86743C14.371 7.4368 14.2495 7.10964 14.0064 6.88594C13.7634 6.65664 13.4066 6.542 12.9361 6.542H11.284V9.19286H12.9361ZM13.0369 14.6708C13.6367 14.6708 14.0866 14.5337 14.3865 14.2597C14.6916 13.9857 14.8441 13.5718 14.8441 13.0182C14.8441 12.4757 14.6942 12.0702 14.3943 11.8018C14.0943 11.5278 13.6419 11.3907 13.0369 11.3907H11.284V14.6708H13.0369ZM15.8136 10.166C16.4548 10.3673 16.9512 10.7392 17.3028 11.2817C17.6545 11.8242 17.8303 12.4897 17.8303 13.2782C17.8303 14.4862 17.4528 15.3866 16.6979 15.9794C15.9429 16.5722 14.795 16.8686 13.2541 16.8686H8.29785V4.34412H12.781C14.3891 4.34412 15.5525 4.60697 16.2713 5.13267C16.9952 5.65837 17.3571 6.50005 17.3571 7.65771C17.3571 8.2673 17.2253 8.7874 16.9616 9.21803C16.6979 9.64306 16.3152 9.95904 15.8136 10.166Z" stroke="#231F20" stroke-width="0.145146" stroke-miterlimit="10"/>
</svg>
    