<svg width="36" height="22" viewBox="0 0 36 22" fill="none" xmlns="http://www.w3.org/2000/svg">
    <path d="M1 1H25.4418L35 11.0005L25.4418 21H1V1Z" fill="white"/>
    <path d="M16.7641 16.2835C16.216 16.5817 15.6446 16.8066 15.05 16.9584C14.4553 17.1102 13.8348 17.1861 13.1885 17.1861C11.2598 17.1861 9.73179 16.6223 8.60455 15.4948C7.47731 14.3618 6.9137 12.8277 6.9137 10.8924C6.9137 8.95169 7.47731 7.41757 8.60455 6.29001C9.73179 5.15703 11.2598 4.59055 13.1885 4.59055C13.8348 4.59055 14.4553 4.66644 15.05 4.81823C15.6446 4.97001 16.216 5.19498 16.7641 5.49313V8.00574C16.2108 7.61001 15.6653 7.31999 15.1275 7.13568C14.5898 6.95137 14.0236 6.85921 13.4289 6.85921C12.3637 6.85921 11.5261 7.21699 10.9159 7.93256C10.3058 8.64812 10.0007 9.63473 10.0007 10.8924C10.0007 12.1446 10.3058 13.1285 10.9159 13.8441C11.5261 14.5597 12.3637 14.9174 13.4289 14.9174C14.0236 14.9174 14.5898 14.8253 15.1275 14.641C15.6653 14.4567 16.2108 14.1666 16.7641 13.7709V16.2835Z" fill="white"/>
    <path d="M1 1H25.4418L35 11.0005L25.4418 21H1V1Z" stroke="#231F20" stroke-width="0.6" stroke-miterlimit="10"/>
    <path d="M16.7641 16.2835C16.216 16.5817 15.6446 16.8066 15.05 16.9584C14.4553 17.1102 13.8348 17.1861 13.1885 17.1861C11.2598 17.1861 9.73179 16.6223 8.60455 15.4948C7.47731 14.3618 6.9137 12.8277 6.9137 10.8924C6.9137 8.95169 7.47731 7.41757 8.60455 6.29001C9.73179 5.15703 11.2598 4.59055 13.1885 4.59055C13.8348 4.59055 14.4553 4.66644 15.05 4.81823C15.6446 4.97001 16.216 5.19498 16.7641 5.49313V8.00574C16.2108 7.61001 15.6653 7.31999 15.1275 7.13568C14.5898 6.95137 14.0236 6.85921 13.4289 6.85921C12.3637 6.85921 11.5261 7.21699 10.9159 7.93256C10.3058 8.64812 10.0007 9.63473 10.0007 10.8924C10.0007 12.1446 10.3058 13.1285 10.9159 13.8441C11.5261 14.5597 12.3637 14.9174 13.4289 14.9174C14.0236 14.9174 14.5898 14.8253 15.1275 14.641C15.6653 14.4567 16.2108 14.1666 16.7641 13.7709V16.2835Z" stroke="#231F20" stroke-width="0.6" stroke-miterlimit="10"/>
</svg>
    