<svg width="36" height="22" viewBox="0 0 36 22" fill="none" xmlns="http://www.w3.org/2000/svg">
    <path d="M1 1H25.4418L35 11.0005L25.4418 21H1V1Z" fill="#81C3ED"/>
    <path d="M10.4457 6.72053V14.3628H11.516C12.7364 14.3628 13.6671 14.0357 14.3083 13.3813C14.9547 12.727 15.2778 11.7762 15.2778 10.5291C15.2778 9.28754 14.9572 8.34239 14.3161 7.69364C13.6749 7.0449 12.7415 6.72053 11.516 6.72053H10.4457ZM7.45947 4.27936H10.6085C12.3666 4.27936 13.6749 4.41638 14.5332 4.69041C15.3968 4.95886 16.1362 5.41745 16.7515 6.0662C17.2945 6.63105 17.6978 7.28259 17.9615 8.02081C18.2252 8.75904 18.3571 9.59513 18.3571 10.5291C18.3571 11.4742 18.2252 12.3187 17.9615 13.0625C17.6978 13.8008 17.2945 14.4523 16.7515 15.0172C16.131 15.6659 15.3864 16.1273 14.5177 16.4013C13.649 16.6698 12.346 16.804 10.6085 16.804H7.45947V4.27936Z" fill="white"/>
    <path d="M1 1H25.4418L35 11.0005L25.4418 21H1V1Z" stroke="#231F20" stroke-width="0.145146" stroke-miterlimit="10"/>
    <path d="M10.4457 6.72053V14.3628H11.516C12.7364 14.3628 13.6671 14.0357 14.3083 13.3813C14.9547 12.727 15.2778 11.7762 15.2778 10.5291C15.2778 9.28754 14.9572 8.34239 14.3161 7.69364C13.6749 7.0449 12.7415 6.72053 11.516 6.72053H10.4457ZM7.45947 4.27936H10.6085C12.3666 4.27936 13.6749 4.41638 14.5332 4.69041C15.3968 4.95886 16.1362 5.41745 16.7515 6.0662C17.2945 6.63105 17.6978 7.28259 17.9615 8.02081C18.2252 8.75904 18.3571 9.59513 18.3571 10.5291C18.3571 11.4742 18.2252 12.3187 17.9615 13.0625C17.6978 13.8008 17.2945 14.4523 16.7515 15.0172C16.131 15.6659 15.3864 16.1273 14.5177 16.4013C13.649 16.6698 12.346 16.804 10.6085 16.804H7.45947V4.27936Z" stroke="#231F20" stroke-width="0.145146" stroke-miterlimit="10"/>
</svg>
    