<svg width="36" height="21" viewBox="0 0 36 21" fill="none" xmlns="http://www.w3.org/2000/svg">
    <path d="M1 0.820312H25.4418L35 10.8209L25.4418 20.8203H1V0.820312Z" fill="#00A650"/>
    <path d="M14.334 13.9577H9.66471L8.92787 16.218H5.92621L10.2154 3.81129H13.7755L18.0647 16.218H15.063L14.334 13.9577ZM10.4093 11.6558H13.5816L11.9993 6.71975L10.4093 11.6558Z" fill="white"/>
    <path d="M1 0.820312H25.4418L35 10.8209L25.4418 20.8203H1V0.820312Z" stroke="#231F20" stroke-width="0.145147" stroke-miterlimit="10"/>
    <path d="M14.334 13.9577H9.66471L8.92787 16.218H5.92621L10.2154 3.81129H13.7755L18.0647 16.218H15.063L14.334 13.9577ZM10.4093 11.6558H13.5816L11.9993 6.71975L10.4093 11.6558Z" stroke="#231F20" stroke-width="0.145147" stroke-miterlimit="10"/>
</svg>
    