<svg width="36" height="22" viewBox="0 0 36 22" fill="none" xmlns="http://www.w3.org/2000/svg">
    <path d="M1 1H25.4418L35 11.0005L25.4418 21H1V1Z" fill="#5EA8E0"/>
    <path d="M17.0004 15.9421C16.4523 16.2403 15.8809 16.4652 15.2863 16.617C14.6917 16.7688 14.0712 16.8447 13.4249 16.8447C11.4963 16.8447 9.96842 16.2809 8.84125 15.1534C7.71407 14.0205 7.15048 12.4865 7.15048 10.5513C7.15048 8.6107 7.71407 7.07666 8.84125 5.94917C9.96842 4.81625 11.4963 4.24979 13.4249 4.24979C14.0712 4.24979 14.6917 4.32568 15.2863 4.47746C15.8809 4.62924 16.4523 4.8542 17.0004 5.15233V7.6648C16.4471 7.26909 15.9016 6.97909 15.3639 6.79479C14.8261 6.61049 14.26 6.51833 13.6654 6.51833C12.6002 6.51833 11.7626 6.8761 11.1525 7.59162C10.5424 8.30715 10.2373 9.2937 10.2373 10.5513C10.2373 11.8035 10.5424 12.7873 11.1525 13.5028C11.7626 14.2184 12.6002 14.5761 13.6654 14.5761C14.26 14.5761 14.8261 14.484 15.3639 14.2997C15.9016 14.1154 16.4471 13.8254 17.0004 13.4297V15.9421Z" fill="white"/>
    <path d="M1 1H25.4418L35 11.0005L25.4418 21H1V1Z" stroke="#231F20" stroke-width="0.145147" stroke-miterlimit="10"/>
    <path d="M17.0004 15.9421C16.4523 16.2403 15.8809 16.4652 15.2863 16.617C14.6917 16.7688 14.0712 16.8447 13.4249 16.8447C11.4963 16.8447 9.96842 16.2809 8.84125 15.1534C7.71407 14.0205 7.15048 12.4865 7.15048 10.5513C7.15048 8.6107 7.71407 7.07666 8.84125 5.94917C9.96842 4.81625 11.4963 4.24979 13.4249 4.24979C14.0712 4.24979 14.6917 4.32568 15.2863 4.47746C15.8809 4.62924 16.4523 4.8542 17.0004 5.15233V7.6648C16.4471 7.26909 15.9016 6.97909 15.3639 6.79479C14.8261 6.61049 14.26 6.51833 13.6654 6.51833C12.6002 6.51833 11.7626 6.8761 11.1525 7.59162C10.5424 8.30715 10.2373 9.2937 10.2373 10.5513C10.2373 11.8035 10.5424 12.7873 11.1525 13.5028C11.7626 14.2184 12.6002 14.5761 13.6654 14.5761C14.26 14.5761 14.8261 14.484 15.3639 14.2997C15.9016 14.1154 16.4471 13.8254 17.0004 13.4297V15.9421Z" stroke="#231F20" stroke-width="0.145147" stroke-miterlimit="10"/>
</svg>
    