<svg width="36" height="22" viewBox="0 0 36 22" fill="none" xmlns="http://www.w3.org/2000/svg">
    <path d="M1 1H25.4418L35 11.0005L25.4418 21H1V1Z" fill="#E3672A"/>
    <path d="M9.61709 6.81069H13.6501H14.022V5.78023V4.73999H7.84369H7.10001V5.53934V16.8362V17.26H8.35855H9.61709V16.8362V12.1942H13.4022H13.7741V11.1637V10.1622H13.4022H9.61709V6.81069Z" fill="white"/>
    <path d="M1 1H25.4418L35 11.0005L25.4418 21H1V1Z" stroke="#231F20" stroke-width="0.145146" stroke-miterlimit="10"/>
    <path d="M9.61709 6.81069H13.6501H14.022V5.78023V4.73999H7.84369H7.10001V5.53934V16.8362V17.26H8.35855H9.61709V16.8362V12.1942H13.4022H13.7741V11.1637V10.1622H13.4022H9.61709V6.81069Z" stroke="#231F20" stroke-width="0.145146" stroke-miterlimit="10"/>
</svg>
    