<svg width="36" height="22" viewBox="0 0 36 22" fill="none" xmlns="http://www.w3.org/2000/svg">
    <path d="M1 1H25.4418L35 11.0005L25.4418 21H1V1Z" stroke="#231F20" stroke-width="0.6" stroke-miterlimit="10"/>
    <path d="M9.62504 6.30052V13.9428H10.6954C11.9157 13.9428 12.8465 13.6156 13.4877 12.9613C14.134 12.307 14.4572 11.3562 14.4572 10.1091C14.4572 8.86752 14.1366 7.92237 13.4954 7.27363C12.8543 6.62489 11.9209 6.30052 10.6954 6.30052H9.62504ZM6.63885 3.85934H9.78792C11.546 3.85934 12.8543 3.99636 13.7126 4.2704C14.5762 4.53885 15.3156 4.99744 15.9309 5.64618C16.4739 6.21104 16.8772 6.86257 17.1409 7.6008C17.4046 8.33902 17.5365 9.17512 17.5365 10.1091C17.5365 11.0542 17.4046 11.8987 17.1409 12.6425C16.8772 13.3808 16.4739 14.0323 15.9309 14.5971C15.3104 15.2459 14.5658 15.7073 13.6971 15.9813C12.8284 16.2498 11.5253 16.384 9.78792 16.384H6.63885V3.85934Z" stroke="#231F20" stroke-width="0.6" stroke-miterlimit="10"/>
</svg>
    