<svg width="24" height="24" viewBox="0 0 24 24" fill="none" xmlns="http://www.w3.org/2000/svg">
<path d="M6.0008 10.0014V3H18.0032V6.60072M13.8024 20.2034H4.0004C3.46986 20.2034 2.96105 19.9927 2.5859 19.6175C2.21076 19.2424 2 18.7336 2 18.203V12.0018C2 11.4713 2.21076 10.9625 2.5859 10.5873C2.96105 10.2122 3.46986 10.0014 4.0004 10.0014H13.8024M16.5989 18.2027V12.0014C16.5989 10.8966 17.4945 10.001 18.5993 10.001H19.9996C21.1044 10.001 22 10.8966 22 12.0014V18.2027C22 19.3074 21.1044 20.2031 19.9996 20.2031H18.5993C17.4945 20.2031 16.5989 19.3074 16.5989 18.2027Z" stroke="#18181B" stroke-width="2" stroke-linecap="round" stroke-linejoin="round"/>
<path d="M7.20109 13.8023C7.20109 14.1337 6.93241 14.4024 6.60097 14.4024C6.26954 14.4024 6.00085 14.1337 6.00085 13.8023C6.00085 13.4708 6.26954 13.2021 6.60097 13.2021C6.93241 13.2021 7.20109 13.4708 7.20109 13.8023Z" fill="#18181B"/>
<path d="M9.60158 13.8023C9.60158 14.1337 9.33289 14.4024 9.00146 14.4024C8.67002 14.4024 8.40134 14.1337 8.40134 13.8023C8.40134 13.4708 8.67002 13.2021 9.00146 13.2021C9.33289 13.2021 9.60158 13.4708 9.60158 13.8023Z" fill="#18181B"/>
<path d="M12.0021 13.8023C12.0021 14.1337 11.7334 14.4024 11.4019 14.4024C11.0705 14.4024 10.8018 14.1337 10.8018 13.8023C10.8018 13.4708 11.0705 13.2021 11.4019 13.2021C11.7334 13.2021 12.0021 13.4708 12.0021 13.8023Z" fill="#18181B"/>
<path d="M9.60158 16.2027C9.60158 16.5342 9.33289 16.8029 9.00146 16.8029C8.67002 16.8029 8.40134 16.5342 8.40134 16.2027C8.40134 15.8713 8.67002 15.6026 9.00146 15.6026C9.33289 15.6026 9.60158 15.8713 9.60158 16.2027Z" fill="#18181B"/>
<path d="M12.0021 16.2027C12.0021 16.5342 11.7334 16.8029 11.4019 16.8029C11.0705 16.8029 10.8018 16.5342 10.8018 16.2027C10.8018 15.8713 11.0705 15.6026 11.4019 15.6026C11.7334 15.6026 12.0021 15.8713 12.0021 16.2027Z" fill="#18181B"/>
<path d="M7.20109 16.2027C7.20109 16.5342 6.93241 16.8029 6.60097 16.8029C6.26954 16.8029 6.00085 16.5342 6.00085 16.2027C6.00085 15.8713 6.26954 15.6026 6.60097 15.6026C6.93241 15.6026 7.20109 15.8713 7.20109 16.2027Z" fill="#18181B"/>
</svg>
