<svg width="20" height="20" viewBox="0 0 20 20" fill="none" xmlns="http://www.w3.org/2000/svg">
<path d="M10.8333 1.66675H4.16667C3.72464 1.66675 3.30072 1.84234 2.98816 2.1549C2.67559 2.46746 2.5 2.89139 2.5 3.33341V16.6667C2.5 17.1088 2.67559 17.5327 2.98816 17.8453C3.30072 18.1578 3.72464 18.3334 4.16667 18.3334H10.8333M10.8333 1.66675L15.8333 6.66675M10.8333 1.66675V6.66675H15.8333M15.8333 6.66675V11.2501M11.25 10.0001H5.83333M9.16667 13.3334H5.83333M7.5 6.66675H5.83333" stroke="#D1D1D6" stroke-width="1.67" stroke-linecap="round" stroke-linejoin="round"/>
<path d="M17.5 18.3333L16.2917 17.1249M16.9444 15.5555C16.9444 16.7828 15.9495 17.7777 14.7222 17.7777C13.4949 17.7777 12.5 16.7828 12.5 15.5555C12.5 14.3282 13.4949 13.3333 14.7222 13.3333C15.9495 13.3333 16.9444 14.3282 16.9444 15.5555Z" stroke="#D1D1D6" stroke-width="2" stroke-linecap="round" stroke-linejoin="round"/>
</svg>
