<svg width="20" height="20" viewBox="0 0 20 20" fill="none" xmlns="http://www.w3.org/2000/svg">
<g clip-path="url(#clip0_1929_30762)">
<path d="M15.8333 10.4166V5.66663C15.8333 4.26649 15.8333 3.56643 15.5608 3.03165C15.3212 2.56124 14.9387 2.17879 14.4683 1.93911C13.9335 1.66663 13.2335 1.66663 11.8333 1.66663H6.5C5.09987 1.66663 4.3998 1.66663 3.86502 1.93911C3.39462 2.17879 3.01217 2.56124 2.77248 3.03165C2.5 3.56643 2.5 4.26649 2.5 5.66663V14.3333C2.5 15.7334 2.5 16.4335 2.77248 16.9683C3.01217 17.4387 3.39462 17.8211 3.86502 18.0608C4.3998 18.3333 5.09983 18.3333 6.49988 18.3333H9.58333M10.8333 9.16663H5.83333M7.5 12.5H5.83333M12.5 5.83329H5.83333" stroke="#3F3F46" stroke-width="1.67" stroke-linecap="round" stroke-linejoin="round"/>
<path d="M14.5833 14.5833V15.8333L15.4167 16.6667M17.9167 15.8333C17.9167 17.6743 16.4243 19.1667 14.5833 19.1667C12.7424 19.1667 11.25 17.6743 11.25 15.8333C11.25 13.9924 12.7424 12.5 14.5833 12.5C16.4243 12.5 17.9167 13.9924 17.9167 15.8333Z" stroke="#3F3F46" stroke-width="1.67" stroke-linecap="round" stroke-linejoin="round"/>
</g>
<defs>
<clipPath id="clip0_1929_30762">
<rect width="20" height="20" fill="white"/>
</clipPath>
</defs>
</svg>
