<svg width="24" height="24" viewBox="0 0 24 24" fill="none" xmlns="http://www.w3.org/2000/svg">
<path d="M8.8 22.0001C7.11984 22.0001 6.27976 22.0001 5.63803 21.6731C5.07354 21.3855 4.6146 20.9265 4.32698 20.362C4 19.7203 4 18.8802 4 17.2001V13.0001M20 14.2001V6.80006C20 5.1199 20 4.27983 19.673 3.63809C19.3854 3.0736 18.9265 2.61466 18.362 2.32704C17.7202 2.00006 16.8802 2.00006 15.2 2.00006H13.5" stroke="#18181B" stroke-width="2" stroke-linecap="round" stroke-linejoin="round"/>
<path d="M9.25 5.5V3.75C9.25 2.7835 8.4665 2 7.5 2C6.5335 2 5.75 2.7835 5.75 3.75V5.5M5.6 9.5H9.4C9.96005 9.5 10.2401 9.5 10.454 9.39101C10.6422 9.29513 10.7951 9.14215 10.891 8.95399C11 8.74008 11 8.46005 11 7.9V7.1C11 6.53995 11 6.25992 10.891 6.04601C10.7951 5.85785 10.6422 5.70487 10.454 5.60899C10.2401 5.5 9.96005 5.5 9.4 5.5H5.6C5.03995 5.5 4.75992 5.5 4.54601 5.60899C4.35785 5.70487 4.20487 5.85785 4.10899 6.04601C4 6.25992 4 6.53995 4 7.1V7.9C4 8.46005 4 8.74008 4.10899 8.95399C4.20487 9.14215 4.35785 9.29513 4.54601 9.39101C4.75992 9.5 5.03995 9.5 5.6 9.5Z" stroke="#18181B" stroke-width="2" stroke-linecap="round" stroke-linejoin="round"/>
<path d="M18.2859 23V22.6704L20.2074 19.562L18.3612 16.7362V16.4065H19.322L20.9327 18.9309L22.4398 16.4065H23.2687V16.7362L21.4979 19.6279L23.4571 22.6704V23H22.5057L20.7631 20.2496L19.1053 23H18.2859Z" fill="#18181B"/>
<path d="M17.1878 23H16.1517V16.4065H17.1878V23Z" fill="#18181B"/>
<path d="M12.0173 23H11V16.4065H15.0597V17.1977H12.0173V19.4018H14.325V20.1648H12.0173V23Z" fill="#18181B"/>
</svg>
