<?xml version="1.0" encoding="UTF-8"?>
<svg id="Ebene_1" data-name="Ebene 1" xmlns="http://www.w3.org/2000/svg" viewBox="0 0 24 24">
<defs>
    <style>
      .cls-fleet-check {
        fill: var(--figma-grey-500);
      }
    </style>
  </defs>
  <path class="cls-fleet-check" d="m20.06,1c-2.21,0-4,1.79-4,4s1.79,4,4,4,4-1.79,4-4-1.79-4-4-4Zm2,2.8s-2.29,2.73-2.41,2.89c-.07.11-.2.18-.34.18s-.27-.07-.34-.18l-.75-1.22c-.08-.14-.04-.31.09-.4.13-.09.32-.09.43.02l.63.68,2.39-2.3h0c.24-.24.6.03.3.34Z"/>
  <path class="cls-fleet-check" d="m22.69,9.27s-.03-.01-.05-.02c-.76.46-1.64.74-2.59.74-1.12,0-2.14-.38-2.97-1h-.63c-.97,0-1.5,0-2.03.27-.47.24-.85.62-1.09,1.09-.14.28-.21.55-.24.88h-.78c-.23,0-.39,0-.59.05-.18.04-.35.11-.51.21-.18.11-.29.22-.45.39l-3.05,3.05c-.16.16-.28.28-.38.45-.1.16-.17.33-.21.51-.05.2-.05.37-.05.59v2.13c0,.43,0,.72.13,1.04.18.43.51.77.95.95.03.01.06.02.09.04.25,1.33,1.42,2.35,2.83,2.35s2.53-.97,2.81-2.26c.06,0,.13,0,.19,0h2.16c.42,1.3,1.65,2.25,3.09,2.25s2.77-1.03,3.14-2.41c.94-.36,1.61-1.27,1.61-2.34v-5.85c0-.97,0-1.5-.27-2.04-.24-.47-.62-.85-1.09-1.09Zm-11.64,11.73c-.48,0-.88-.39-.88-.88s.39-.88.88-.88.88.39.88.88-.39.88-.88.88Zm2-2.94c-.54-.53-1.23-.81-2-.81h0c-.76,0-1.46.29-2,.81v-1.56s0-.06,0-.08l.06-.06,3.05-3.05s.04-.04.06-.06h.84v4.81Zm6.25,2.94c-.69,0-1.25-.56-1.25-1.25s.56-1.25,1.25-1.25,1.25.56,1.25,1.25-.56,1.25-1.25,1.25Zm2.75-2.98c-.58-.91-1.59-1.52-2.75-1.52-1.44,0-2.67.95-3.09,2.25h-1.16v-6.35c0-.5,0-1.02.05-1.13.05-.1.12-.17.22-.22.11-.05.62-.05,1.13-.05h4.2c.5,0,1.02,0,1.13.05.09.05.17.12.22.22.05.11.05.63.05,1.13v5.62Z"/>
  <path class="cls-fleet-check" d="m15.06,5.02c-.28-.02-.6-.02-.99-.02h-5.91c-1,0-1.55,0-2.09.28-.48.25-.87.63-1.12,1.12-.28.55-.28,1.1-.28,2.09v.4h-.82c-.23,0-.4,0-.61.05-.18.04-.35.12-.51.21-.18.11-.3.23-.46.4l-1.61,1.61c-.16.16-.27.28-.39.46-.09.16-.16.32-.21.51-.05.2-.05.37-.05.61v2.13c0,.54,0,.89.19,1.27.17.33.44.6.78.78.24.12.47.17.75.18-.1.3-.16.62-.16.95,0,1.62,1.32,2.94,2.94,2.94.72,0,1.38-.27,1.89-.7-.04-.08-.09-.16-.12-.24-.21-.51-.21-.96-.21-1.43v-2.13c0-.25,0-.51.08-.83.07-.29.18-.56.33-.8.07-.11.13-.19.2-.27v-6.11c0-.55,0-1.07.06-1.18.05-.1.14-.19.24-.24.12-.06.64-.06,1.19-.06h5.91c.55,0,1.07,0,1.19.06.1.05.19.14.24.24.04.08.05.37.06.71.17,0,.35,0,.53-.01-.63-.83-1.02-1.86-1.03-2.99ZM2.24,15.11c-.09,0-.18,0-.25,0,0-.07,0-.15,0-.25v-2.13s0-.08,0-.1l.07-.07,1.6-1.6s.05-.05.07-.07c.03,0,.06,0,.1,0h.82v4.22h-2.42Zm2.26,3.89c-.52,0-.94-.42-.94-.94s.42-.94.94-.94.94.42.94.94-.42.94-.94.94Z"/>
</svg>