<svg width="24" height="24" viewBox="0 0 24 24" fill="none" xmlns="http://www.w3.org/2000/svg">
<g clip-path="url(#clip0_1590_54241)">
<path d="M10 6H8.1C7.22881 6 6.79321 6 6.46046 6.16955C6.16776 6.31868 5.92979 6.55665 5.78066 6.84935C5.61111 7.1821 5.61111 7.6177 5.61111 8.48889V16.1111H2.18889C1.75329 16.1111 1.53549 16.1111 1.36912 16.0263C1.22277 15.9518 1.10379 15.8328 1.02922 15.6864C0.944445 15.5201 0.944446 15.3023 0.944446 14.8667V12.7377C0.944446 12.5475 0.944445 12.4523 0.965935 12.3628C0.984988 12.2835 1.01641 12.2076 1.05906 12.138C1.10716 12.0595 1.17442 11.9923 1.30894 11.8577L2.91329 10.2534C3.04781 10.1189 3.11507 10.0516 3.19356 10.0035C3.26315 9.96086 3.33902 9.92943 3.41838 9.91038C3.50789 9.88889 3.60301 9.88889 3.79325 9.88889H5.61111M5.61111 16.4999C5.28613 16.2558 4.88218 16.1111 4.44445 16.1111C3.37056 16.1111 2.5 16.9817 2.5 18.0556C2.5 19.1294 3.37056 20 4.44445 20C4.88218 20 5.28613 19.8554 5.61111 19.6113" stroke="black" stroke-width="2" stroke-linecap="round" stroke-linejoin="round"/>
<path d="M8 16.4971V18.625C8 18.9745 8 19.1492 8.05709 19.287C8.13321 19.4708 8.27922 19.6168 8.46299 19.6929C8.8258 19.8432 9.18399 19.4728 9.39729 19.1431C9.68569 18.6972 10.1975 18.25 11 18.25C9.96447 18.25 9.125 19.0895 9.125 20.125C9.125 21.1605 9.96447 22 11 22C12.0355 22 12.875 21.1605 12.875 20.125C12.875 19.0895 12.0355 18.25 11 18.25C11.5843 18.25 12.0144 18.4871 12.3165 18.7881C12.7849 19.2547 13.3388 19.75 14 19.75H17C17 20.9926 18.0074 22 19.25 22C20.4926 22 21.5 20.9926 21.5 19.75C21.5 18.5074 20.4926 17.5 19.25 17.5C18.0074 17.5 17 18.5074 17 19.75H14V12.4V12.25H12.2471C12.0636 12.25 11.9719 12.25 11.8856 12.2707C11.809 12.2891 11.7359 12.3194 11.6688 12.3605C11.5931 12.4069 11.5282 12.4718 11.3985 12.6015L8.35147 15.6485C8.22176 15.7782 8.1569 15.8431 8.11052 15.9188C8.0694 15.9859 8.0391 16.059 8.02072 16.1356C8 16.2219 8 16.3136 8 16.4971Z" fill="white"/>
<path d="M14 12.25H12.2471C12.0636 12.25 11.9719 12.25 11.8856 12.2707C11.809 12.2891 11.7359 12.3194 11.6688 12.3605C11.5931 12.4069 11.5282 12.4718 11.3985 12.6015L8.35147 15.6485C8.22176 15.7782 8.1569 15.8431 8.11052 15.9188C8.0694 15.9859 8.0391 16.059 8.02072 16.1356C8 16.2219 8 16.3136 8 16.4971V18.625C8 18.9745 8 19.1492 8.05709 19.287C8.13321 19.4708 8.27922 19.6168 8.46299 19.6929V19.6929C8.8258 19.8432 9.18399 19.4728 9.39729 19.1431C9.68569 18.6972 10.1975 18.25 11 18.25M14 12.25V19.75M14 12.25V12.4V19.75M14 19.75V19.75C13.3388 19.75 12.7849 19.2547 12.3165 18.7881C12.0144 18.4871 11.5843 18.25 11 18.25M14 19.75H17M23 12.4V18.25C23 19.0784 22.3284 19.75 21.5 19.75M17 19.75C17 20.9926 18.0074 22 19.25 22C20.4926 22 21.5 20.9926 21.5 19.75M17 19.75C17 18.5074 18.0074 17.5 19.25 17.5C20.4926 17.5 21.5 18.5074 21.5 19.75M11 18.25C12.0355 18.25 12.875 19.0895 12.875 20.125C12.875 21.1605 12.0355 22 11 22C9.96447 22 9.125 21.1605 9.125 20.125C9.125 19.0895 9.96447 18.25 11 18.25Z" stroke="#18181B" stroke-width="2" stroke-linecap="round" stroke-linejoin="round"/>
<path d="M13 9L23 9" stroke="#18181B" stroke-width="2" stroke-linecap="round" stroke-linejoin="round"/>
<path d="M13 9L13 1" stroke="#18181B" stroke-width="2" stroke-linecap="round" stroke-linejoin="round"/>
<path d="M16 6V4" stroke="#18181B" stroke-width="2" stroke-linecap="round" stroke-linejoin="round"/>
<path d="M19 6V3" stroke="#18181B" stroke-width="2" stroke-linecap="round" stroke-linejoin="round"/>
<path d="M22 6V1" stroke="#18181B" stroke-width="2" stroke-linecap="round" stroke-linejoin="round"/>
</g>
<defs>
<clipPath id="clip0_1590_54241">
<rect width="24" height="24" fill="white"/>
</clipPath>
</defs>
</svg>
