<svg width="24" height="24" viewBox="0 0 24 24" fill="none" xmlns="http://www.w3.org/2000/svg">
<path d="M13.7834 9.56867C13.9222 9.225 14.2557 9 14.6264 9H20.4627C20.8334 9 21.1669 9.225 21.3057 9.56867L22.5446 12.6364H12.5445L13.7834 9.56867Z" stroke="#18181B" stroke-width="2" stroke-linejoin="round"/>
<path d="M12.09 12.8182C12.09 12.7178 12.1714 12.6364 12.2718 12.6364H22.8173C22.9177 12.6364 22.9991 12.7178 22.9991 12.8182V16.2728C22.9991 16.3732 22.9177 16.4546 22.8173 16.4546H12.2718C12.1714 16.4546 12.09 16.3732 12.09 16.2728V12.8182Z" stroke="#18181B" stroke-width="2" stroke-linejoin="round"/>
<path d="M15.5446 14.5455C15.5446 14.0936 15.1782 13.7273 14.7264 13.7273C14.2745 13.7273 13.9082 14.0936 13.9082 14.5455C13.9082 14.9974 14.2745 15.3637 14.7264 15.3637C15.1782 15.3637 15.5446 14.9974 15.5446 14.5455Z" fill="#18181B"/>
<path d="M20.9991 14.5455C20.9991 14.0936 20.6328 13.7273 20.1809 13.7273C19.7291 13.7273 19.3628 14.0936 19.3628 14.5455C19.3628 14.9974 19.7291 15.3637 20.1809 15.3637C20.6328 15.3637 20.9991 14.9974 20.9991 14.5455Z" fill="#18181B"/>
<path d="M12.09 16.6364C12.09 16.4356 12.2528 16.2728 12.4536 16.2728H13.5445C13.7454 16.2728 13.9082 16.4356 13.9082 16.6364V18.6364C13.9082 18.8372 13.7454 19 13.5445 19H12.4536C12.2528 19 12.09 18.8372 12.09 18.6364V16.6364Z" fill="#18181B"/>
<path d="M21.1809 16.6364C21.1809 16.4356 21.3438 16.2728 21.5446 16.2728H22.6355C22.8363 16.2728 22.9991 16.4356 22.9991 16.6364V18.6364C22.9991 18.8372 22.8363 19 22.6355 19H21.5446C21.3438 19 21.1809 18.8372 21.1809 18.6364V16.6364Z" fill="#18181B"/>
<path d="M2.69343 9.56867C2.83222 9.225 3.16574 9 3.53638 9H9.37275C9.74339 9 10.0769 9.225 10.2157 9.56867L11.4546 12.6364H1.45455L2.69343 9.56867Z" stroke="#18181B" stroke-width="2" stroke-linejoin="round"/>
<path d="M1 12.8182C1 12.7178 1.0814 12.6364 1.18182 12.6364H11.7273C11.8277 12.6364 11.9091 12.7178 11.9091 12.8182V16.2728C11.9091 16.3732 11.8277 16.4546 11.7273 16.4546H1.18182C1.0814 16.4546 1 16.3732 1 16.2728V12.8182Z" stroke="#18181B" stroke-width="2" stroke-linejoin="round"/>
<path d="M4.45456 14.5455C4.45456 14.0936 4.08825 13.7273 3.63638 13.7273C3.1845 13.7273 2.81819 14.0936 2.81819 14.5455C2.81819 14.9974 3.1845 15.3637 3.63638 15.3637C4.08825 15.3637 4.45456 14.9974 4.45456 14.5455Z" fill="#18181B"/>
<path d="M9.90913 14.5455C9.90913 14.0936 9.54282 13.7273 9.09094 13.7273C8.63907 13.7273 8.27276 14.0936 8.27276 14.5455C8.27276 14.9974 8.63907 15.3637 9.09094 15.3637C9.54282 15.3637 9.90913 14.9974 9.90913 14.5455Z" fill="#18181B"/>
<path d="M1 16.6364C1 16.4356 1.16281 16.2728 1.36364 16.2728H2.45455C2.65538 16.2728 2.81819 16.4356 2.81819 16.6364V18.6364C2.81819 18.8372 2.65538 19 2.45455 19H1.36364C1.16281 19 1 18.8372 1 18.6364V16.6364Z" fill="#18181B"/>
<path d="M10.0909 16.6364C10.0909 16.4356 10.2538 16.2728 10.4546 16.2728H11.5455C11.7463 16.2728 11.9091 16.4356 11.9091 16.6364V18.6364C11.9091 18.8372 11.7463 19 11.5455 19H10.4546C10.2538 19 10.0909 18.8372 10.0909 18.6364V16.6364Z" fill="#18181B"/>
<path d="M7.86276 11.6255C8.01543 11.2475 8.38231 11 8.79 11H15.21C15.6177 11 15.9846 11.2475 16.1372 11.6255L17.5 15H6.5L7.86276 11.6255Z" fill="white"/>
<path d="M6 15.2C6 15.0895 6.08954 15 6.2 15H17.8C17.9105 15 18 15.0895 18 15.2V19C18 19.1105 17.9105 19.2 17.8 19.2H6.2C6.08954 19.2 6 19.1105 6 19V15.2Z" fill="white"/>
<path d="M7.86276 11.6255C8.01543 11.2475 8.38231 11 8.79 11H15.21C15.6177 11 15.9846 11.2475 16.1372 11.6255L17.5 15H6.5L7.86276 11.6255Z" stroke="white" stroke-width="3" stroke-linejoin="round"/>
<path d="M6 15.2C6 15.0895 6.08954 15 6.2 15H17.8C17.9105 15 18 15.0895 18 15.2V19C18 19.1105 17.9105 19.2 17.8 19.2H6.2C6.08954 19.2 6 19.1105 6 19V15.2Z" stroke="white" stroke-width="3" stroke-linejoin="round"/>
<path d="M7.86276 11.6255C8.01543 11.2475 8.38231 11 8.79 11H15.21C15.6177 11 15.9846 11.2475 16.1372 11.6255L17.5 15H6.5L7.86276 11.6255Z" fill="white"/>
<path d="M6 15.2C6 15.0895 6.08954 15 6.2 15H17.8C17.9105 15 18 15.0895 18 15.2V19C18 19.1105 17.9105 19.2 17.8 19.2H6.2C6.08954 19.2 6 19.1105 6 19V15.2Z" fill="white"/>
<path d="M7.86276 11.6255C8.01543 11.2475 8.38231 11 8.79 11H15.21C15.6177 11 15.9846 11.2475 16.1372 11.6255L17.5 15H6.5L7.86276 11.6255Z" stroke="#18181B" stroke-width="2" stroke-linejoin="round"/>
<path d="M6 15.2C6 15.0895 6.08954 15 6.2 15H17.8C17.9105 15 18 15.0895 18 15.2V19C18 19.1105 17.9105 19.2 17.8 19.2H6.2C6.08954 19.2 6 19.1105 6 19V15.2Z" stroke="#18181B" stroke-width="2" stroke-linejoin="round"/>
<path d="M9.8 17.1C9.8 16.6029 9.39706 16.2 8.9 16.2C8.40294 16.2 8 16.6029 8 17.1C8 17.597 8.40294 18 8.9 18C9.39706 18 9.8 17.597 9.8 17.1Z" fill="#18181B"/>
<path d="M15.8 17.1C15.8 16.6029 15.3971 16.2 14.9 16.2C14.4029 16.2 14 16.6029 14 17.1C14 17.597 14.4029 18 14.9 18C15.3971 18 15.8 17.597 15.8 17.1Z" fill="#18181B"/>
<path d="M6 19.4C6 19.179 6.17909 19 6.4 19H7.6C7.82091 19 8 19.179 8 19.4V21.6C8 21.8209 7.82091 22 7.6 22H6.4C6.17909 22 6 21.8209 6 21.6V19.4Z" fill="#18181B"/>
<path d="M16 19.4C16 19.179 16.1791 19 16.4 19H17.6C17.8209 19 18 19.179 18 19.4V21.6C18 21.8209 17.8209 22 17.6 22H16.4C16.1791 22 16 21.8209 16 21.6V19.4Z" fill="#18181B"/>
</svg>
