<svg width="24" height="24" viewBox="0 0 24 24" fill="none" xmlns="http://www.w3.org/2000/svg">
<g clip-path="url(#clip0_5132_237998)">
<path d="M5.61111 16.1111V8.48889C5.61111 7.6177 5.61111 7.1821 5.78066 6.84935C5.92979 6.55665 6.16776 6.31868 6.46046 6.16955C6.79321 6 7.22881 6 8.1 6H14.0111C14.8823 6 15.3179 6 15.6507 6.16955C15.9433 6.31868 16.1813 6.55665 16.3305 6.84935C16.5 7.1821 16.5 7.6177 16.5 8.48889V13.6222C16.5 14.4934 16.5 14.929 16.3305 15.2618C16.1813 15.5545 15.9433 15.7924 15.6507 15.9416C15.3179 16.1111 14.8823 16.1111 14.0111 16.1111H5.61111ZM5.61111 16.1111H2.18889C1.75329 16.1111 1.53549 16.1111 1.36912 16.0263C1.22277 15.9518 1.10379 15.8328 1.02922 15.6864C0.944444 15.5201 0.944444 15.3023 0.944444 14.8667V12.7377C0.944444 12.5475 0.944444 12.4523 0.965934 12.3628C0.984987 12.2835 1.01641 12.2076 1.05906 12.138C1.10716 12.0595 1.17442 11.9923 1.30893 11.8577L2.91329 10.2534C3.04781 10.1189 3.11507 10.0516 3.19356 10.0035C3.26315 9.96086 3.33901 9.92943 3.41838 9.91038C3.50789 9.88889 3.60301 9.88889 3.79324 9.88889H5.61111M11.0556 18.0556C11.0556 19.1294 11.9261 20 13 20C14.0739 20 14.9444 19.1294 14.9444 18.0556C14.9444 16.9817 14.0739 16.1111 13 16.1111C11.9261 16.1111 11.0556 16.9817 11.0556 18.0556ZM2.5 18.0556C2.5 19.1294 3.37056 20 4.44444 20C5.51833 20 6.38889 19.1294 6.38889 18.0556C6.38889 16.9817 5.51833 16.1111 4.44444 16.1111C3.37056 16.1111 2.5 16.9817 2.5 18.0556Z" stroke="black" stroke-width="2" stroke-linecap="round" stroke-linejoin="round"/>
<path d="M11 22C9.96447 22 9.125 21.1605 9.125 20.125C9.125 19.0895 9.96447 18.25 11 18.25C12.0355 18.25 12.875 19.0895 12.875 20.125C12.875 21.1605 12.0355 22 11 22Z" fill="white"/>
<path fill-rule="evenodd" clip-rule="evenodd" d="M19.25 22C18.0074 22 17 20.9926 17 19.75C17 18.5074 18.0074 17.5 19.25 17.5C20.4926 17.5 21.5 18.5074 21.5 19.75C21.5 20.9926 20.4926 22 19.25 22Z" fill="white"/>
<path d="M16.4 10H20.6C21.4401 10 21.8601 10 22.181 10.1635C22.4632 10.3073 22.6927 10.5368 22.8365 10.819C23 11.1399 23 11.5599 23 12.4V18.25C23 19.0784 22.3284 19.75 21.5 19.75C21.5 18.5074 20.4926 17.5 19.25 17.5C18.0074 17.5 17 18.5074 17 19.75H14V12.4C14 11.5599 14 11.1399 14.1635 10.819C14.3073 10.5368 14.5368 10.3073 14.819 10.1635C15.1399 10 15.5599 10 16.4 10Z" fill="white"/>
<path d="M8 18.625V16.4971C8 16.3136 8 16.2219 8.02072 16.1356C8.0391 16.059 8.0694 15.9859 8.11052 15.9188C8.1569 15.8431 8.22176 15.7782 8.35147 15.6485L11.3985 12.6015C11.5282 12.4718 11.5931 12.4069 11.6688 12.3605C11.7359 12.3194 11.809 12.2891 11.8856 12.2707C11.9719 12.25 12.0636 12.25 12.2471 12.25H14V12.4V19.75C13.3388 19.75 12.7849 19.2547 12.3165 18.7881C12.0144 18.4871 11.5843 18.25 11 18.25C10.1975 18.25 9.68569 18.6972 9.39729 19.1431C9.18399 19.4728 8.8258 19.8432 8.46299 19.6929C8.27922 19.6168 8.13321 19.4708 8.05709 19.287C8 19.1492 8 18.9745 8 18.625Z" fill="white"/>
<path d="M14 12.25H12.2471C12.0636 12.25 11.9719 12.25 11.8856 12.2707C11.809 12.2891 11.7359 12.3194 11.6688 12.3605C11.5931 12.4069 11.5282 12.4718 11.3985 12.6015L8.35147 15.6485C8.22176 15.7782 8.1569 15.8431 8.11052 15.9188C8.0694 15.9859 8.0391 16.059 8.02072 16.1356C8 16.2219 8 16.3136 8 16.4971V18.625C8 18.9745 8 19.1492 8.05709 19.287C8.13321 19.4708 8.27922 19.6168 8.46299 19.6929V19.6929C8.8258 19.8432 9.18399 19.4728 9.39729 19.1431C9.68569 18.6972 10.1975 18.25 11 18.25M14 12.25V19.75M14 12.25V12.4M14 19.75V19.75C13.3388 19.75 12.7849 19.2547 12.3165 18.7881C12.0144 18.4871 11.5843 18.25 11 18.25M14 19.75V12.4M14 19.75H17M14 12.4C14 11.5599 14 11.1399 14.1635 10.819C14.3073 10.5368 14.5368 10.3073 14.819 10.1635C15.1399 10 15.5599 10 16.4 10H20.6C21.4401 10 21.8601 10 22.181 10.1635C22.4632 10.3073 22.6927 10.5368 22.8365 10.819C23 11.1399 23 11.5599 23 12.4V18.25C23 19.0784 22.3284 19.75 21.5 19.75M17 19.75C17 20.9926 18.0074 22 19.25 22C20.4926 22 21.5 20.9926 21.5 19.75M17 19.75C17 18.5074 18.0074 17.5 19.25 17.5C20.4926 17.5 21.5 18.5074 21.5 19.75M11 18.25C12.0355 18.25 12.875 19.0895 12.875 20.125C12.875 21.1605 12.0355 22 11 22C9.96447 22 9.125 21.1605 9.125 20.125C9.125 19.0895 9.96447 18.25 11 18.25Z" stroke="#18181B" stroke-width="2" stroke-linecap="round" stroke-linejoin="round"/>
<path d="M14 12.25H12.2471C12.0636 12.25 11.9719 12.25 11.8856 12.2707C11.809 12.2891 11.7359 12.3194 11.6688 12.3605C11.5931 12.4069 11.5282 12.4718 11.3985 12.6015L8.35147 15.6485C8.22176 15.7782 8.1569 15.8431 8.11052 15.9188C8.0694 15.9859 8.0391 16.059 8.02072 16.1356C8 16.2219 8 16.3136 8 16.4971V18.625C8 18.9745 8 19.1492 8.05709 19.287C8.13321 19.4708 8.27922 19.6168 8.46299 19.6929V19.6929C8.8258 19.8432 9.18399 19.4728 9.39729 19.1431C9.68569 18.6972 10.1975 18.25 11 18.25M14 12.25V19.75M14 12.25V12.4M14 19.75V19.75C13.3388 19.75 12.7849 19.2547 12.3165 18.7881C12.0144 18.4871 11.5843 18.25 11 18.25M14 19.75V12.4M14 19.75H17M14 12.4C14 11.5599 14 11.1399 14.1635 10.819C14.3073 10.5368 14.5368 10.3073 14.819 10.1635C15.1399 10 15.5599 10 16.4 10H20.6C21.4401 10 21.8601 10 22.181 10.1635C22.4632 10.3073 22.6927 10.5368 22.8365 10.819C23 11.1399 23 11.5599 23 12.4V18.25C23 19.0784 22.3284 19.75 21.5 19.75M17 19.75C17 20.9926 18.0074 22 19.25 22C20.4926 22 21.5 20.9926 21.5 19.75M17 19.75C17 18.5074 18.0074 17.5 19.25 17.5C20.4926 17.5 21.5 18.5074 21.5 19.75M11 18.25C12.0355 18.25 12.875 19.0895 12.875 20.125C12.875 21.1605 12.0355 22 11 22C9.96447 22 9.125 21.1605 9.125 20.125C9.125 19.0895 9.96447 18.25 11 18.25Z" stroke="white" stroke-width="4" stroke-linecap="round" stroke-linejoin="round"/>
<path d="M11 22C9.96447 22 9.125 21.1605 9.125 20.125C9.125 19.0895 9.96447 18.25 11 18.25C12.0355 18.25 12.875 19.0895 12.875 20.125C12.875 21.1605 12.0355 22 11 22Z" fill="white"/>
<path fill-rule="evenodd" clip-rule="evenodd" d="M19.25 22C18.0074 22 17 20.9926 17 19.75C17 18.5074 18.0074 17.5 19.25 17.5C20.4926 17.5 21.5 18.5074 21.5 19.75C21.5 20.9926 20.4926 22 19.25 22Z" fill="white"/>
<path d="M16.4 10H20.6C21.4401 10 21.8601 10 22.181 10.1635C22.4632 10.3073 22.6927 10.5368 22.8365 10.819C23 11.1399 23 11.5599 23 12.4V18.25C23 19.0784 22.3284 19.75 21.5 19.75C21.5 18.5074 20.4926 17.5 19.25 17.5C18.0074 17.5 17 18.5074 17 19.75H14V12.4C14 11.5599 14 11.1399 14.1635 10.819C14.3073 10.5368 14.5368 10.3073 14.819 10.1635C15.1399 10 15.5599 10 16.4 10Z" fill="white"/>
<path d="M8 18.625V16.4971C8 16.3136 8 16.2219 8.02072 16.1356C8.0391 16.059 8.0694 15.9859 8.11052 15.9188C8.1569 15.8431 8.22176 15.7782 8.35147 15.6485L11.3985 12.6015C11.5282 12.4718 11.5931 12.4069 11.6688 12.3605C11.7359 12.3194 11.809 12.2891 11.8856 12.2707C11.9719 12.25 12.0636 12.25 12.2471 12.25H14V12.4V19.75C13.3388 19.75 12.7849 19.2547 12.3165 18.7881C12.0144 18.4871 11.5843 18.25 11 18.25C10.1975 18.25 9.68569 18.6972 9.39729 19.1431C9.18399 19.4728 8.8258 19.8432 8.46299 19.6929C8.27922 19.6168 8.13321 19.4708 8.05709 19.287C8 19.1492 8 18.9745 8 18.625Z" fill="white"/>
<path d="M14 12.25H12.2471C12.0636 12.25 11.9719 12.25 11.8856 12.2707C11.809 12.2891 11.7359 12.3194 11.6688 12.3605C11.5931 12.4069 11.5282 12.4718 11.3985 12.6015L8.35147 15.6485C8.22176 15.7782 8.1569 15.8431 8.11052 15.9188C8.0694 15.9859 8.0391 16.059 8.02072 16.1356C8 16.2219 8 16.3136 8 16.4971V18.625C8 18.9745 8 19.1492 8.05709 19.287C8.13321 19.4708 8.27922 19.6168 8.46299 19.6929V19.6929C8.8258 19.8432 9.18399 19.4728 9.39729 19.1431C9.68569 18.6972 10.1975 18.25 11 18.25M14 12.25V19.75M14 12.25V12.4M14 19.75V19.75C13.3388 19.75 12.7849 19.2547 12.3165 18.7881C12.0144 18.4871 11.5843 18.25 11 18.25M14 19.75V12.4M14 19.75H17M14 12.4C14 11.5599 14 11.1399 14.1635 10.819C14.3073 10.5368 14.5368 10.3073 14.819 10.1635C15.1399 10 15.5599 10 16.4 10H20.6C21.4401 10 21.8601 10 22.181 10.1635C22.4632 10.3073 22.6927 10.5368 22.8365 10.819C23 11.1399 23 11.5599 23 12.4V18.25C23 19.0784 22.3284 19.75 21.5 19.75M17 19.75C17 20.9926 18.0074 22 19.25 22C20.4926 22 21.5 20.9926 21.5 19.75M17 19.75C17 18.5074 18.0074 17.5 19.25 17.5C20.4926 17.5 21.5 18.5074 21.5 19.75M11 18.25C12.0355 18.25 12.875 19.0895 12.875 20.125C12.875 21.1605 12.0355 22 11 22C9.96447 22 9.125 21.1605 9.125 20.125C9.125 19.0895 9.96447 18.25 11 18.25Z" stroke="#18181B" stroke-width="2" stroke-linecap="round" stroke-linejoin="round"/>
<rect x="15.5" y="0.5" width="9" height="9" rx="4.5" fill="#18181B"/>
<path fill-rule="evenodd" clip-rule="evenodd" d="M21.6988 3.46331L19.3121 5.76664L18.6788 5.08997C18.5621 4.97997 18.3788 4.97331 18.2455 5.06664C18.1155 5.16331 18.0788 5.3333 18.1588 5.46997L18.9088 6.68997C18.9821 6.80331 19.1088 6.87331 19.2521 6.87331C19.3888 6.87331 19.5188 6.80331 19.5921 6.68997C19.7121 6.5333 22.0021 3.80331 22.0021 3.80331C22.3021 3.49664 21.9388 3.22664 21.6988 3.45997V3.46331Z" fill="white"/>
<rect x="15.5" y="0.5" width="9" height="9" rx="4.5" stroke="white"/>
</g>
<defs>
<clipPath id="clip0_5132_237998">
<rect width="24" height="24" fill="white"/>
</clipPath>
</defs>
</svg>
