<?xml version="1.0" encoding="UTF-8"?>
<svg id="Ebene_1" data-name="Ebene 1" xmlns="http://www.w3.org/2000/svg" viewBox="0 0 24 24">
  <defs>
    <style>
      .cls-1 {
        fill: var(--figma-grey-500);
        fill-rule: evenodd;
      }
    </style>
  </defs>
  <path class="cls-1" d="m7.5,11.5V3h5.23l2.48,9.5h-7.71v-1Zm-.6,3h8.6v2.64c-.3-.09-.63-.14-1-.14-.91,0-1.63.32-2.14.83-.35.36-.57.78-.7,1.17h-5.33c-.13-.38-.34-.8-.69-1.16-.51-.52-1.22-.84-2.14-.84-.37,0-.7.05-1,.15h0v-3.5h0v-.03h0v-.03h0v-.03h0v-.03h0v-.03h0v-.03h0v-.03h0v-.03h0v-.03h0v-.03h0v-.03h0v-.03h0v-.03h0v-.03h0v-.03h0v-.03h0v-.03h0v-.03h0v-.03h0v-.03h0v-.03h0v-.03h0v-.03h0v-.03h0v-.03h0v-.03h0v-.03h0v-.03h0v-.03h0v-.03h0v-.02h0v-.02h0v-.02h0v-.02h0v-.02h0v-.02h0v-.02h0v-.02h0v-.02h0v-.02h0v-.02h0v-.02h0v-.02h0s3,0,3,0v.6c0,.77.63,1.4,1.4,1.4Zm8.6,5.5s0-.06,0-.09c-.04-.51-.47-.91-1-.91-.55,0-1,.45-1,1s.45,1,1,1,1-.45,1-1Zm-1,3c-1.31,0-2.42-.83-2.83-2h-5.34c-.41,1.17-1.52,2-2.83,2-1.66,0-3-1.34-3-3v-6.35h0v-.03h0v-.03h0v-.03h0v-.03h0v-.03h0v-.03h0v-.03h0v-.03h0v-.03h0v-.03h0v-.03h0v-.03h0v-.03h0v-.03h0v-.03h0v-.03h0v-.03h0v-.03h0v-.03h0v-.03h0v-.03h0v-.03h0v-.03h0v-.03h0v-.03h0v-.03h0v-.03h0v-.03h0v-.03h0v-.03h0v-.02h0v-.02h0v-.02h0v-.02h0v-.02h0v-.02h0v-.02h0v-.02h0v-.02h0v-.02h0v-.02h0v-.02h0v-.02h0v-.02h0v-.02h0v-.02h0v-.02h0v-.02h0v-.02h0v-.02h0v-.02h0v-.02h0v-.02h0v-.02h0v-.02h0v-.02h0v-.02h0v-.02h0v-.02h0v-.02h0v-.02h0v-.02h0v-.02h0v-.02h0v-.02h0v-.02h0v-.02h0v-.02h0v-.02h0v-.02h0v-.02h0v-.02h0v-.02h0v-.02h0v-.02h0c0-.79.64-1.4,1.4-1.4h3.6V2.4c0-.77.63-1.4,1.4-1.4h6.29c.64,0,1.19.43,1.35,1.05l2.92,11.2.03.12v6.63c0,1.66-1.34,3-3,3Zm-10.03-3.24s0,.02,0,.03c0,.01,0,.02,0,.04,0,.06.01.11.01.17,0,.55-.45,1-1,1s-1-.45-1-1c0-.07,0-.15.03-.24.11-.44.5-.76.97-.76s.86.32.97.76ZM20.5,7.5c0-.55-.45-1-1-1s-1,.45-1,1v11.6c0,.77.63,1.4,1.4,1.4h2.6c.55,0,1-.45,1-1s-.45-1-1-1h-2V7.5Z"/>
</svg>