<?xml version="1.0" encoding="UTF-8"?>
<svg id="Ebene_1" data-name="Ebene 1" xmlns="http://www.w3.org/2000/svg" viewBox="0 0 24 24">
  <defs>
    <style>
      .cls-1 {
        fill: var(--figma-grey-500);
      }
    </style>
  </defs>
  <path class="cls-1" d="m23.71,11.4l-2.73-2.73c-.19-.19-.44-.29-.71-.29h-2.64v-3.55c0-.55-.45-1-1-1h-4.32c.3.62.5,1.29.61,2h2.72v9.82H4v-2.11c-.72-.22-1.4-.55-2-.97v4.08c0,.55.45,1,1,1h1.08c-.17.39-.26.82-.26,1.27,0,1.8,1.47,3.27,3.27,3.27s3.27-1.47,3.27-3.27c0-.45-.09-.88-.26-1.27h5.79c-.17.39-.26.82-.26,1.27,0,1.8,1.47,3.27,3.27,3.27s3.27-1.47,3.27-3.27c0-.45-.09-.88-.26-1.27h1.08c.55,0,1-.45,1-1v-4.55c0-.27-.11-.52-.29-.71ZM7.09,20.19c-.7,0-1.27-.57-1.27-1.27s.57-1.27,1.27-1.27,1.27.57,1.27,1.27-.57,1.27-1.27,1.27Zm11.82,0c-.7,0-1.27-.57-1.27-1.27s.57-1.27,1.27-1.27,1.27.57,1.27,1.27-.57,1.27-1.27,1.27Zm3.09-4.54h-4.36v-5.27h2.22l2.14,2.14v3.13Z"/>
  <path class="cls-1" d="m6,12.49h0c3.12,0,5.66-2.54,5.66-5.67S9.13,1.17,6,1.16h0c-3.12,0-5.66,2.54-5.66,5.67s2.54,5.66,5.66,5.67h0Zm4.28-6.33h-1.66c-.12-1.2-.5-2.36-1.11-3.4,1.44.54,2.53,1.83,2.77,3.4Zm-1.66,1.33h1.66c-.24,1.56-1.32,2.86-2.77,3.4.61-1.03.99-2.19,1.11-3.4Zm-2.63-4.62c.7.97,1.15,2.1,1.29,3.29h-2.58c.14-1.19.58-2.32,1.29-3.29ZM1.72,7.49h1.66c.12,1.2.5,2.36,1.11,3.4-1.44-.54-2.53-1.83-2.77-3.4Zm1.66-1.33h-1.66c.24-1.56,1.32-2.86,2.77-3.4-.61,1.04-.99,2.19-1.11,3.4Zm3.91,1.33c-.14,1.19-.58,2.32-1.29,3.29-.7-.97-1.15-2.1-1.29-3.29h2.58Z"/>
</svg>