<svg width="46" height="46" viewBox="0 0 46 46" fill="none" xmlns="http://www.w3.org/2000/svg">
<rect x="3" y="3" width="40" height="40" rx="20" fill="#FEE4E2"/>
<path d="M18.8333 22.166V18.8327C18.8333 17.7276 19.2723 16.6678 20.0537 15.8864C20.8351 15.105 21.8949 14.666 23 14.666C24.1051 14.666 25.1649 15.105 25.9463 15.8864C26.7277 16.6678 27.1667 17.7276 27.1667 18.8327V22.166M17.1667 22.166H28.8333C29.7538 22.166 30.5 22.9122 30.5 23.8327V29.666C30.5 30.5865 29.7538 31.3327 28.8333 31.3327H17.1667C16.2462 31.3327 15.5 30.5865 15.5 29.666V23.8327C15.5 22.9122 16.2462 22.166 17.1667 22.166Z" stroke="#D92D20" stroke-width="1.66667" stroke-linecap="round" stroke-linejoin="round"/>
<rect x="3" y="3" width="40" height="40" rx="20" stroke="#FEF3F2" stroke-width="6"/>
</svg>
