<svg width="32" height="40" viewBox="0 0 32 40" fill="none" xmlns="http://www.w3.org/2000/svg">
<g filter="url(#filter0_dd_1804_6921)">
<g filter="url(#filter1_d_1804_6921)">
<path d="M28 16C28 9.37258 22.6274 4 16 4C9.37258 4 4 9.37258 4 16C4 24.2298 10.6893 30.7872 14.8926 34.9077C15.286 35.2934 15.6577 35.6577 16 36C16.3423 35.6577 16.714 35.2934 17.1074 34.9077C21.3107 30.7872 28 24.2298 28 16Z" fill="#70707B"/>
</g>
<path d="M16 36C12 32 4 25 4 16H28C28 25 20 32 16 36Z" fill="#70707B"/>
<circle cx="16" cy="16" r="7" fill="white" stroke="#70707B" stroke-width="4"/>
</g>
<defs>
<filter id="filter0_dd_1804_6921" x="1" y="2" width="30" height="38" filterUnits="userSpaceOnUse" color-interpolation-filters="sRGB">
<feFlood flood-opacity="0" result="BackgroundImageFix"/>
<feColorMatrix in="SourceAlpha" type="matrix" values="0 0 0 0 0 0 0 0 0 0 0 0 0 0 0 0 0 0 127 0" result="hardAlpha"/>
<feOffset dy="1"/>
<feGaussianBlur stdDeviation="1"/>
<feColorMatrix type="matrix" values="0 0 0 0 0.0941176 0 0 0 0 0.0941176 0 0 0 0 0.105882 0 0 0 0.06 0"/>
<feBlend mode="normal" in2="BackgroundImageFix" result="effect1_dropShadow_1804_6921"/>
<feColorMatrix in="SourceAlpha" type="matrix" values="0 0 0 0 0 0 0 0 0 0 0 0 0 0 0 0 0 0 127 0" result="hardAlpha"/>
<feOffset dy="1"/>
<feGaussianBlur stdDeviation="1.5"/>
<feColorMatrix type="matrix" values="0 0 0 0 0.0941176 0 0 0 0 0.0941176 0 0 0 0 0.105882 0 0 0 0.1 0"/>
<feBlend mode="normal" in2="effect1_dropShadow_1804_6921" result="effect2_dropShadow_1804_6921"/>
<feBlend mode="normal" in="SourceGraphic" in2="effect2_dropShadow_1804_6921" result="shape"/>
</filter>
<filter id="filter1_d_1804_6921" x="0" y="0" width="32" height="40" filterUnits="userSpaceOnUse" color-interpolation-filters="sRGB">
<feFlood flood-opacity="0" result="BackgroundImageFix"/>
<feColorMatrix in="SourceAlpha" type="matrix" values="0 0 0 0 0 0 0 0 0 0 0 0 0 0 0 0 0 0 127 0" result="hardAlpha"/>
<feMorphology radius="4" operator="dilate" in="SourceAlpha" result="effect1_dropShadow_1804_6921"/>
<feOffset/>
<feColorMatrix type="matrix" values="0 0 0 0 1 0 0 0 0 0.956863 0 0 0 0 0.803922 0 0 0 1 0"/>
<feBlend mode="normal" in2="BackgroundImageFix" result="effect1_dropShadow_1804_6921"/>
<feBlend mode="normal" in="SourceGraphic" in2="effect1_dropShadow_1804_6921" result="shape"/>
</filter>
</defs>
</svg>
