<svg width="24" height="24" viewBox="0 0 24 24" fill="none" xmlns="http://www.w3.org/2000/svg">
<g clip-path="url(#clip0_4250_228825)">
<path d="M8 17.9091C9.05436 17.9091 9.90909 17.0544 9.90909 16C9.90909 14.9456 9.05436 14.0909 8 14.0909C6.94564 14.0909 6.09091 14.9456 6.09091 16C6.09091 17.0544 6.94564 17.9091 8 17.9091Z" stroke="#18181B" stroke-linecap="round" stroke-linejoin="round"/>
<path d="M12.7091 17.9091C12.6244 18.101 12.5991 18.3139 12.6365 18.5204C12.674 18.7268 12.7724 18.9173 12.9191 19.0673L12.9573 19.1055C13.0756 19.2237 13.1695 19.364 13.2335 19.5185C13.2976 19.673 13.3305 19.8387 13.3305 20.0059C13.3305 20.1732 13.2976 20.3388 13.2335 20.4933C13.1695 20.6478 13.0756 20.7882 12.9573 20.9064C12.8391 21.0247 12.6987 21.1186 12.5442 21.1826C12.3897 21.2467 12.2241 21.2796 12.0568 21.2796C11.8896 21.2796 11.7239 21.2467 11.5694 21.1826C11.4149 21.1186 11.2746 21.0247 11.1564 20.9064L11.1182 20.8682C10.9682 20.7215 10.7777 20.6231 10.5713 20.5856C10.3649 20.5482 10.1519 20.5735 9.96 20.6582C9.77178 20.7388 9.61126 20.8728 9.4982 21.0435C9.38513 21.2143 9.32445 21.4143 9.32364 21.6191V21.7273C9.32364 22.0648 9.18955 22.3885 8.95086 22.6272C8.71218 22.8659 8.38846 23 8.05091 23C7.71336 23 7.38964 22.8659 7.15096 22.6272C6.91227 22.3885 6.77818 22.0648 6.77818 21.7273V21.67C6.77325 21.4594 6.70508 21.2551 6.58251 21.0837C6.45994 20.9123 6.28865 20.7818 6.09091 20.7091C5.89897 20.6244 5.68606 20.5991 5.47963 20.6365C5.27319 20.674 5.0827 20.7724 4.93273 20.9191L4.89455 20.9573C4.77634 21.0756 4.63598 21.1695 4.48147 21.2335C4.32696 21.2976 4.16135 21.3305 3.99409 21.3305C3.82683 21.3305 3.66122 21.2976 3.50671 21.2335C3.35221 21.1695 3.21184 21.0756 3.09364 20.9573C2.9753 20.8391 2.88143 20.6987 2.81738 20.5442C2.75333 20.3897 2.72036 20.2241 2.72036 20.0568C2.72036 19.8896 2.75333 19.7239 2.81738 19.5694C2.88143 19.4149 2.9753 19.2746 3.09364 19.1564L3.13182 19.1182C3.27852 18.9682 3.37694 18.7777 3.41437 18.5713C3.4518 18.3649 3.42653 18.1519 3.34182 17.96C3.26115 17.7718 3.12721 17.6113 2.95648 17.4982C2.78575 17.3851 2.58568 17.3245 2.38091 17.3236H2.27273C1.93518 17.3236 1.61146 17.1895 1.37277 16.9509C1.13409 16.7122 1 16.3885 1 16.0509C1 15.7134 1.13409 15.3896 1.37277 15.151C1.61146 14.9123 1.93518 14.7782 2.27273 14.7782H2.33C2.54063 14.7733 2.74491 14.7051 2.91628 14.5825C3.08765 14.4599 3.21818 14.2886 3.29091 14.0909C3.37562 13.899 3.40089 13.6861 3.36346 13.4796C3.32603 13.2732 3.22761 13.0827 3.08091 12.9327L3.04273 12.8945C2.92439 12.7763 2.83052 12.636 2.76647 12.4815C2.70242 12.327 2.66945 12.1613 2.66945 11.9941C2.66945 11.8268 2.70242 11.6612 2.76647 11.5067C2.83052 11.3522 2.92439 11.2118 3.04273 11.0936C3.16093 10.9753 3.3013 10.8814 3.4558 10.8174C3.61031 10.7533 3.77593 10.7204 3.94318 10.7204C4.11044 10.7204 4.27605 10.7533 4.43056 10.8174C4.58507 10.8814 4.72543 10.9753 4.84364 11.0936L4.88182 11.1318C5.0318 11.2785 5.22228 11.3769 5.42872 11.4144C5.63515 11.4518 5.84806 11.4265 6.04 11.3418H6.09091C6.27913 11.2612 6.43965 11.1272 6.55271 10.9565C6.66578 10.7857 6.72646 10.5857 6.72727 10.3809V10.2727C6.72727 9.93518 6.86136 9.61146 7.10005 9.37277C7.33873 9.13409 7.66245 9 8 9C8.33755 9 8.66127 9.13409 8.89995 9.37277C9.13864 9.61146 9.27273 9.93518 9.27273 10.2727V10.33C9.27354 10.5348 9.33422 10.7348 9.44729 10.9056C9.56035 11.0763 9.72087 11.2102 9.90909 11.2909C10.101 11.3756 10.3139 11.4009 10.5204 11.3635C10.7268 11.326 10.9173 11.2276 11.0673 11.0809L11.1055 11.0427C11.2237 10.9244 11.364 10.8305 11.5185 10.7665C11.673 10.7024 11.8387 10.6695 12.0059 10.6695C12.1732 10.6695 12.3388 10.7024 12.4933 10.7665C12.6478 10.8305 12.7882 10.9244 12.9064 11.0427C13.0247 11.1609 13.1186 11.3013 13.1826 11.4558C13.2467 11.6103 13.2796 11.7759 13.2796 11.9432C13.2796 12.1104 13.2467 12.2761 13.1826 12.4306C13.1186 12.5851 13.0247 12.7254 12.9064 12.8436L12.8682 12.8818C12.7215 13.0318 12.6231 13.2223 12.5856 13.4287C12.5482 13.6351 12.5735 13.8481 12.6582 14.04V14.0909C12.7388 14.2791 12.8728 14.4396 13.0435 14.5527C13.2143 14.6658 13.4143 14.7265 13.6191 14.7273H13.7273C14.0648 14.7273 14.3885 14.8614 14.6272 15.1C14.8659 15.3387 15 15.6625 15 16C15 16.3375 14.8659 16.6613 14.6272 16.9C14.3885 17.1386 14.0648 17.2727 13.7273 17.2727H13.67C13.4652 17.2735 13.2652 17.3342 13.0944 17.4473C12.9237 17.5604 12.7898 17.7209 12.7091 17.9091Z" stroke="#18181B" stroke-linecap="round" stroke-linejoin="round"/>
<path d="M18.4664 7.28148C19.1741 7.0239 19.539 6.24139 19.2814 5.53369C19.0238 4.82599 18.2413 4.4611 17.5336 4.71868C16.8259 4.97626 16.461 5.75877 16.7186 6.46647C16.9762 7.17417 17.7587 7.53906 18.4664 7.28148Z" stroke="#18181B" stroke-linecap="round" stroke-linejoin="round"/>
<path d="M21.6272 6.13105C21.6172 6.28057 21.6523 6.42966 21.7278 6.55907C21.8034 6.68849 21.916 6.7923 22.0511 6.85713L22.086 6.87343C22.1943 6.92386 22.2916 6.99514 22.3724 7.0832C22.4531 7.17126 22.5157 7.27437 22.5565 7.38663C22.5974 7.49889 22.6157 7.61811 22.6105 7.73746C22.6053 7.85682 22.5765 7.97397 22.526 8.08221C22.4756 8.19052 22.4043 8.28782 22.3162 8.36856C22.2282 8.44929 22.125 8.51188 22.0128 8.55274C21.9005 8.5936 21.7813 8.61193 21.662 8.60669C21.5426 8.60144 21.4254 8.57273 21.3172 8.52218L21.2822 8.50588C21.1457 8.44405 20.9938 8.42453 20.8461 8.44983C20.6984 8.47514 20.5617 8.54412 20.4536 8.64787C20.3469 8.74799 20.2719 8.87711 20.2377 9.01933C20.2035 9.16155 20.2117 9.31066 20.2612 9.4483L20.2876 9.52091C20.3701 9.74748 20.3592 9.99752 20.2573 10.216C20.1554 10.4346 19.9708 10.6036 19.7443 10.6861C19.5177 10.7686 19.2677 10.7577 19.0491 10.6558C18.8306 10.5539 18.6615 10.3693 18.5791 10.1428L18.5651 10.1043C18.5103 9.96415 18.4146 9.84369 18.2905 9.75861C18.1664 9.67353 18.0195 9.62776 17.869 9.62726C17.7195 9.61729 17.5704 9.65234 17.441 9.7279C17.3116 9.80345 17.2078 9.91605 17.1429 10.0512L17.1266 10.0861C17.0762 10.1944 17.0049 10.2917 16.9169 10.3725C16.8288 10.4532 16.7257 10.5158 16.6134 10.5566C16.5012 10.5975 16.382 10.6158 16.2626 10.6106C16.1433 10.6053 16.0261 10.5766 15.9179 10.5261C15.8096 10.4756 15.7123 10.4044 15.6315 10.3163C15.5508 10.2282 15.4882 10.1251 15.4473 10.0129C15.4065 9.90061 15.3881 9.78139 15.3934 9.66204C15.3986 9.54268 15.4273 9.42553 15.4779 9.31729L15.4942 9.28233C15.556 9.14582 15.5755 8.99392 15.5502 8.84622C15.5249 8.69852 15.456 8.56178 15.3522 8.45365C15.2521 8.34702 15.123 8.272 14.9807 8.23782C14.8385 8.20363 14.6894 8.21178 14.5518 8.26126L14.4792 8.28769C14.2526 8.37015 14.0026 8.35924 13.784 8.25734C13.5655 8.15545 13.3964 7.97092 13.314 7.74435C13.2315 7.51779 13.2424 7.26774 13.3443 7.04923C13.4462 6.83071 13.6307 6.66162 13.8573 6.57916L13.8957 6.56517C14.0359 6.5104 14.1564 6.41473 14.2415 6.2906C14.3265 6.16647 14.3723 6.01961 14.3728 5.86911C14.3828 5.71959 14.3477 5.57051 14.2722 5.44109C14.1966 5.31168 14.084 5.20786 13.9489 5.14303L13.914 5.12673C13.8057 5.0763 13.7084 5.00502 13.6276 4.91696C13.5469 4.8289 13.4843 4.7258 13.4434 4.61353C13.4026 4.50127 13.3842 4.38205 13.3895 4.2627C13.3947 4.14334 13.4235 4.0262 13.474 3.91795C13.5244 3.80964 13.5957 3.71234 13.6838 3.63161C13.7718 3.55087 13.8749 3.48828 13.9872 3.44742C14.0995 3.40656 14.2187 3.38823 14.338 3.39347C14.4574 3.39872 14.5745 3.42744 14.6828 3.47799L14.7177 3.49429C14.8543 3.55612 15.0062 3.57564 15.1539 3.55033C15.3016 3.52502 15.4383 3.45604 15.5464 3.3523L15.5806 3.33986C15.6872 3.23973 15.7622 3.11061 15.7964 2.9684C15.8306 2.82618 15.8225 2.67707 15.773 2.53942L15.7466 2.46681C15.6641 2.24025 15.675 1.9902 15.7769 1.77169C15.8788 1.55317 16.0633 1.38408 16.2899 1.30162C16.5165 1.21915 16.7665 1.23007 16.985 1.33197C17.2035 1.43386 17.3726 1.61839 17.4551 1.84496L17.4691 1.8834C17.5197 2.02064 17.6093 2.14011 17.7269 2.22708C17.8445 2.31405 17.9849 2.36474 18.131 2.37291C18.2805 2.38287 18.4296 2.34782 18.559 2.27226C18.6884 2.19671 18.7922 2.08412 18.857 1.94901L18.8733 1.91405C18.9238 1.80575 18.9951 1.70845 19.0831 1.62771C19.1712 1.54697 19.2743 1.48439 19.3865 1.44353C19.4988 1.40267 19.618 1.38433 19.7374 1.38958C19.8567 1.39482 19.9739 1.42354 20.0821 1.47409C20.1904 1.52452 20.2877 1.5958 20.3685 1.68386C20.4492 1.77192 20.5118 1.87503 20.5527 1.98729C20.5935 2.09956 20.6118 2.21877 20.6066 2.33813C20.6014 2.45748 20.5726 2.57463 20.5221 2.68288L20.5058 2.71783C20.444 2.85434 20.4244 3.00624 20.4497 3.15394C20.4751 3.30165 20.544 3.43838 20.6478 3.54652L20.6602 3.58069C20.7603 3.68731 20.8895 3.76233 21.0317 3.79652C21.1739 3.8307 21.323 3.82255 21.4607 3.77307L21.5333 3.74664C21.7598 3.66418 22.0099 3.6751 22.2284 3.77699C22.4469 3.87889 22.616 4.06341 22.6985 4.28998C22.7809 4.51655 22.77 4.76659 22.6681 4.98511C22.5662 5.20362 22.3817 5.37271 22.1551 5.45517L22.1167 5.46917C21.9794 5.51974 21.86 5.60934 21.773 5.72694C21.686 5.84454 21.6353 5.98501 21.6272 6.13105Z" stroke="#18181B" stroke-linecap="round" stroke-linejoin="round"/>
</g>
<defs>
<clipPath id="clip0_4250_228825">
<rect width="24" height="24" fill="white"/>
</clipPath>
</defs>
</svg>
