<svg width="24" height="24" viewBox="0 0 24 24" fill="none" xmlns="http://www.w3.org/2000/svg">
<path d="M2 5H4.5M16 18H5.5M5.5 18C4.11929 18 3 19.1193 3 20.5C3 21.8807 4.11929 23 5.5 23C6.88071 23 8 21.8807 8 20.5C8 19.1193 6.88071 18 5.5 18ZM5.5 18H3M2 9.5H5.75H8.5M1 13.5H5.5H8.5M9 5H16V11.5M16 12.5V10H20L23 13V18H21.5M17.7869 18.1032C16.7536 18.4101 16 19.3671 16 20.5C16 21.8807 17.1193 23 18.5 23C19.6067 23 20.5454 22.2809 20.8744 21.2845" stroke="#18181B" stroke-width="2" stroke-linecap="round" stroke-linejoin="round"/>
<path d="M1 1L23 23" stroke="#18181B" stroke-width="2" stroke-linecap="round" stroke-linejoin="round"/>
</svg>
