<svg width="24" height="24" viewBox="0 0 24 24" fill="none" xmlns="http://www.w3.org/2000/svg">
<path d="M15.5 8.5L21 14" stroke="#18181B" stroke-width="2" stroke-linecap="round"/>
<path d="M12 15V12.5" stroke="#18181B" stroke-width="2" stroke-linecap="round"/>
<path d="M12.9996 19.9843V21.7908C13.0003 21.9585 12.9659 22.1245 12.8986 22.2781C12.8313 22.4318 12.7325 22.5697 12.6087 22.6831C12.4849 22.7965 12.3387 22.8828 12.1795 22.9365C12.0203 22.9903 11.8517 23.0102 11.6843 22.9951C9.82768 22.7938 8.04426 22.1606 6.47734 21.1465C5.01953 20.222 3.78356 18.9884 2.8572 17.5335C1.83752 15.9626 1.20294 14.174 1.0049 12.3128C0.98982 12.1463 1.00965 11.9784 1.06312 11.82C1.11659 11.6615 1.20254 11.5159 1.31548 11.3924C1.42843 11.269 1.5659 11.1703 1.71915 11.1027C1.87239 11.0352 2.03805 11.0002 2.20558 11.0001H4.01565C4.30846 10.9972 4.59233 11.1007 4.81435 11.2912C5.03636 11.4818 5.18138 11.7464 5.22236 12.0358C5.29876 12.6139 5.44044 13.1815 5.64471 13.7278C5.72589 13.9434 5.74346 14.1776 5.69534 14.4028C5.64721 14.628 5.53542 14.8347 5.3732 14.9984L4.60694 15.7632C5.46585 17.2707 6.71655 18.5189 8.22708 19.3761L8.99334 18.6114C9.15739 18.4495 9.3645 18.3379 9.59013 18.2899C9.81577 18.2419 10.0505 18.2594 10.2664 18.3404C10.8138 18.5443 11.3826 18.6857 11.9619 18.7619C12.2549 18.8032 12.5226 18.9505 12.714 19.1759C12.9053 19.4013 13.007 19.689 12.9996 19.9843Z" stroke="#18181B" stroke-width="2" stroke-linecap="round" stroke-linejoin="round"/>
<path fill-rule="evenodd" clip-rule="evenodd" d="M7.79289 7.79289C8.18342 7.40237 8.81658 7.40237 9.20711 7.79289C9.59763 8.18342 9.59763 8.81658 9.20711 9.20711L7.83211 10.5821L6.96124 11.453C6.84711 11.5671 6.64754 11.5064 6.5967 11.3532C6.44303 10.8902 6.16584 10.4745 5.79129 10.153C5.7867 10.149 5.7821 10.1451 5.77748 10.1412C5.68283 10.0611 5.66999 9.9158 5.75768 9.8281L6.41789 9.16789L7.79289 7.79289ZM5.10629 10.7846C5.03055 10.6959 4.89525 10.6905 4.81276 10.773L4.79289 10.7929C4.40237 11.1834 4.40237 11.8166 4.79289 12.2071C5.18342 12.5976 5.81658 12.5976 6.20711 12.2071C6.24168 12.1725 6.24386 12.1172 6.21212 12.08L5.10629 10.7846Z" fill="#18181B"/>
<path d="M1 1L23 23" stroke="#18181B" stroke-width="2" stroke-linecap="round" stroke-linejoin="round"/>
<path fill-rule="evenodd" clip-rule="evenodd" d="M11.1884 13.3097C11.1176 13.239 11 13.2749 11 13.375V15C11 15.5523 11.4477 16 12 16C12.3057 16 12.5794 15.8628 12.7628 15.6467C13.0033 15.3633 12.8403 14.9617 12.5776 14.6989L11.1884 13.3097ZM12.3879 10.2666C12.6131 10.4918 13 10.4435 13 10.125V8.5C13 7.94772 12.5523 7.5 12 7.5C11.4477 7.5 11 7.94772 11 8.5C11 8.74246 11.0963 8.975 11.2678 9.14645L12.3879 10.2666Z" fill="#18181B"/>
<path d="M2.83209 8C3.32252 6.87754 4.01304 5.86251 4.85857 5M16.5 20.9327C17.4009 20.478 18.2237 19.8909 18.9427 19.1971M20.5 17.2704C21.4509 15.7401 22 13.9342 22 12C22 6.47715 17.5229 2 12 2C10.2269 2 8.56151 2.46149 7.11751 3.27091" stroke="#18181B" stroke-width="2" stroke-linecap="round" stroke-linejoin="round"/>
</svg>
