<svg width="24" height="24" viewBox="0 0 24 24" fill="none" xmlns="http://www.w3.org/2000/svg">
<rect width="24" height="24" rx="12" fill="#FAFAFA"/>
<path d="M8.99967 11.3333H7.06634C6.69297 11.3333 6.50629 11.3333 6.36368 11.406C6.23824 11.4699 6.13625 11.5719 6.07234 11.6973C5.99967 11.8399 5.99967 12.0266 5.99967 12.4V18M14.9997 11.3333H16.933C17.3064 11.3333 17.4931 11.3333 17.6357 11.406C17.7611 11.4699 17.8631 11.5719 17.927 11.6973C17.9997 11.8399 17.9997 12.0266 17.9997 12.4V18M14.9997 18V8.13333C14.9997 7.3866 14.9997 7.01323 14.8544 6.72801C14.7265 6.47713 14.5225 6.27316 14.2717 6.14532C13.9864 6 13.6131 6 12.8663 6H11.133C10.3863 6 10.0129 6 9.72769 6.14532C9.4768 6.27316 9.27283 6.47713 9.145 6.72801C8.99967 7.01323 8.99967 7.3866 8.99967 8.13333V18M18.6663 18H5.33301M11.333 8.66667H12.6663M11.333 11.3333H12.6663M11.333 14H12.6663" stroke="#51525C" stroke-width="1.33" stroke-linecap="round" stroke-linejoin="round"/>
</svg>
