<?xml version="1.0" encoding="UTF-8"?>
<svg id="Ebene_1" data-name="Ebene 1" xmlns="http://www.w3.org/2000/svg" viewBox="0 0 24 24">
  <defs>
    <style>
      .cls-1 {
        fill: var(--figma-grey-500);
      }
    </style>
  </defs>
  <path class="cls-1" d="m11.71,11.62c0-1.14-.21-2.11-.64-2.92-.42-.81-1-1.43-1.73-1.86-.73-.43-1.56-.65-2.48-.65s-1.75.21-2.49.65c-.73.43-1.31,1.05-1.73,1.86-.42.81-.63,1.78-.63,2.92s.21,2.11.63,2.92c.43.81,1,1.43,1.73,1.86.73.43,1.56.65,2.49.65.68,0,1.3-.12,1.87-.35l.88,1.11h1.86l-1.47-1.89c.43-.37.8-.83,1.08-1.38.43-.81.64-1.79.64-2.93Zm-2.3,2.03c-.15.34-.36.61-.58.85l-.89-1.15h-1.73l1.43,1.88c-.24.06-.5.1-.78.1-.57,0-1.08-.14-1.52-.42-.44-.29-.79-.7-1.04-1.25-.25-.55-.37-1.23-.37-2.03s.12-1.48.37-2.03c.25-.55.6-.97,1.04-1.25.44-.29.95-.43,1.52-.43s1.08.14,1.52.43c.44.28.78.7,1.03,1.25.25.55.38,1.23.38,2.03s-.13,1.48-.38,2.03Z"/>
  <path class="cls-1" d="m19.75,14.22c-.15.24-.34.44-.56.61-.22.17-.47.29-.75.38-.28.08-.57.12-.89.12-.57,0-1.08-.14-1.52-.42-.44-.28-.79-.7-1.04-1.25-.25-.55-.38-1.24-.38-2.04s.13-1.47.38-2.02c.25-.55.6-.97,1.04-1.26.44-.29.95-.43,1.53-.43.32,0,.62.04.9.13.28.09.53.21.75.39.22.17.4.38.55.63.15.24.25.52.3.84h1.93c-.08-.59-.25-1.11-.51-1.57-.25-.46-.58-.85-.98-1.17-.4-.32-.85-.56-1.35-.73-.51-.17-1.05-.25-1.64-.25-.92,0-1.75.21-2.48.65-.73.43-1.31,1.05-1.73,1.86-.42.81-.63,1.78-.63,2.92s.21,2.11.63,2.92c.42.81.99,1.43,1.72,1.86s1.56.65,2.49.65c.63,0,1.2-.09,1.72-.28.52-.19.97-.45,1.35-.78.39-.34.7-.73.93-1.17.24-.44.4-.91.47-1.41h-1.93c-.06.3-.17.57-.32.82Z"/>
</svg>