<svg width="24" height="24" viewBox="0 0 24 24" fill="none" xmlns="http://www.w3.org/2000/svg">
<g clip-path="url(#clip0_5140_238065)">
<path d="M3.85644 7.04543H3.19144V8.37543H3.85644V7.04543ZM4.06675 7.7242L3.57811 8.17526H3.57811L4.06675 7.7242ZM5.58466 9.3686L5.09601 9.81966L5.09601 9.81966L5.58466 9.3686ZM5.65705 9.35215L6.29264 9.54772L6.29264 9.54772L5.65705 9.35215ZM6.1403 7.78158L5.50471 7.58602L5.50471 7.58602L6.1403 7.78158ZM6.21269 7.76513L5.72405 8.21619L5.72405 8.21619L6.21269 7.76513ZM7.71185 9.38922L8.2005 8.93817L8.2005 8.93816L7.71185 9.38922ZM7.77478 9.38922L8.26343 9.84028L8.26343 9.84028L7.77478 9.38922ZM8.77481 8.30585L9.26346 8.75691L9.26346 8.7569L8.77481 8.30585ZM8.82667 8.29724L8.50994 8.88197L8.50995 8.88197L8.82667 8.29724ZM3.05271 11.872L2.50388 12.2475L3.25491 13.3452L3.80374 12.9697L3.05271 11.872ZM4.02354 12.0135L4.39905 12.5624H4.39905L4.02354 12.0135ZM4.07918 12.0198L4.56783 11.5688L4.56783 11.5688L4.07918 12.0198ZM5.59688 13.664L6.08552 13.2129H6.08552L5.59688 13.664ZM5.66481 13.6574L5.09846 13.3089L5.09846 13.3089L5.66481 13.6574ZM6.65281 12.0519L6.08646 11.7034L6.08646 11.7034L6.65281 12.0519ZM6.72575 12.0519L7.29211 11.7034L7.29211 11.7034L6.72575 12.0519ZM7.7069 13.6462L8.27325 13.2977L8.27325 13.2977L7.7069 13.6462ZM7.77983 13.6462L7.21348 13.2977L7.21348 13.2977L7.77983 13.6462ZM8.77389 12.0309L9.34024 12.3794V12.3794L8.77389 12.0309ZM3.62294 15.224L3.00028 15.4575L3.46728 16.7028L4.08994 16.4693L3.62294 15.224ZM4.96655 15.4303L4.73305 14.8077L4.73305 14.8077L4.96655 15.4303ZM5.01721 15.4467L5.57052 15.0778L5.01721 15.4467ZM6.10465 17.0778L6.65797 16.709V16.709L6.10465 17.0778ZM6.17591 17.0778L5.6226 16.709V16.709L6.17591 17.0778ZM7.24657 15.4718L6.69326 15.103H6.69326L7.24657 15.4718ZM7.31783 15.4718L7.87115 15.103L7.31783 15.4718ZM8.3885 17.0778L8.94181 16.709V16.709L8.3885 17.0778ZM8.45976 17.0778L7.90644 16.709V16.709L8.45976 17.0778ZM9.55333 15.4375L9.00003 15.0686L9.00002 15.0686L9.55333 15.4375ZM5.50325 19.2557L5.05839 19.75L6.04697 20.6398L6.49183 20.1455L5.50325 19.2557ZM6.74275 18.8726L7.23704 19.3175H7.23704L6.74275 18.8726ZM6.79947 18.8664L7.18599 18.3253H7.18599L6.79947 18.8664ZM7.94247 19.6828L8.32899 19.1417H8.32899L7.94247 19.6828ZM7.99225 19.6828L7.60572 19.1417H7.60572L7.99225 19.6828ZM9.14585 18.8588L9.53237 19.4L9.53237 19.4L9.14585 18.8588ZM9.18915 18.855L8.90324 19.4554H8.90324L9.18915 18.855ZM10.9322 19.685L10.6463 20.2854H10.6463L10.9322 19.685ZM10.9857 19.6709L11.5305 20.0523L11.5305 20.0523L10.9857 19.6709ZM6.42576 3.61966H5.76076V4.94966H6.42576V3.61966ZM7.00814 4.29323L6.60914 4.82522L6.60914 4.82523L7.00814 4.29323ZM8.11747 5.12522L7.71847 5.65722L7.71847 5.65722L8.11747 5.12522ZM8.16232 5.12927L7.86492 4.53447L8.16232 5.12927ZM9.83238 4.29424L9.53498 3.69944L9.53498 3.69944L9.83238 4.29424ZM9.87068 4.29424L10.1681 3.69944L10.1681 3.69944L9.87068 4.29424ZM8.83974 12.0201L9.08464 11.4018L8.83974 12.0201ZM8.82973 12.0152L9.13135 11.4225L8.82973 12.0152ZM18.6221 11.9916C18.6221 13.8904 18.2083 15.5766 17.5721 16.764C16.921 17.9792 16.1338 18.5199 15.4331 18.5199V19.8499C16.861 19.8499 18.0007 18.7803 18.7445 17.3921C19.5032 15.976 19.9521 14.0655 19.9521 11.9916H18.6221ZM15.4331 18.5199C14.7325 18.5199 13.9452 17.9792 13.2941 16.764C12.6579 15.5766 12.2442 13.8904 12.2442 11.9916H10.9141C10.9141 14.0655 11.3631 15.976 12.1218 17.3921C12.8655 18.7803 14.0053 19.8499 15.4331 19.8499V18.5199ZM12.2442 11.9916C12.2442 10.0927 12.6579 8.40654 13.2941 7.21913C13.9452 6.00386 14.7325 5.46319 15.4331 5.46319V4.13319C14.0053 4.13319 12.8655 5.20281 12.1218 6.59103C11.3631 8.0071 10.9141 9.91765 10.9141 11.9916H12.2442ZM15.4331 5.46319C16.1338 5.46319 16.921 6.00386 17.5721 7.21913C18.2083 8.40654 18.6221 10.0927 18.6221 11.9916H19.9521C19.9521 9.91765 19.5032 8.0071 18.7445 6.59103C18.0007 5.20281 16.861 4.13319 15.4331 4.13319V5.46319ZM20.335 11.9917C20.335 14.3712 19.7366 16.4936 18.8041 17.9997C17.8653 19.5161 16.6553 20.3184 15.4331 20.3184V21.6484C17.2855 21.6484 18.8589 20.4379 19.9349 18.6998C21.0173 16.9516 21.665 14.5782 21.665 11.9917H20.335ZM15.4331 20.3184C14.211 20.3184 13.001 19.5161 12.0622 17.9997C11.1297 16.4936 10.5313 14.3712 10.5313 11.9917H9.20127C9.20127 14.5782 9.84901 16.9516 10.9314 18.6998C12.0074 20.4379 13.5808 21.6484 15.4331 21.6484V20.3184ZM10.5313 11.9917C10.5313 9.61225 11.1297 7.48979 12.0622 5.98366C13.001 4.46733 14.211 3.665 15.4331 3.665V2.335C13.5808 2.335 12.0074 3.54553 10.9314 5.28356C9.84901 7.03179 9.20127 9.40517 9.20127 11.9917H10.5313ZM15.4331 3.665C16.6553 3.665 17.8653 4.46733 18.8041 5.98366C19.7366 7.48979 20.335 9.61225 20.335 11.9917H21.665C21.665 9.40517 21.0173 7.03179 19.9349 5.28356C18.8589 3.54553 17.2855 2.335 15.4331 2.335V3.665ZM12.4208 7.71043C12.2106 8.3413 12.2097 8.34102 12.2089 8.34075C12.2086 8.34066 12.2078 8.34038 12.2073 8.3402C12.2062 8.33984 12.2052 8.33947 12.2041 8.33912C12.202 8.3384 12.2 8.3377 12.1981 8.33701C12.1943 8.33563 12.1907 8.33431 12.1874 8.33305C12.1808 8.33053 12.1753 8.32827 12.1709 8.32635C12.162 8.3225 12.1574 8.32004 12.1566 8.31962C12.1549 8.31867 12.1694 8.32635 12.1959 8.34842C12.2476 8.39153 12.3561 8.49868 12.4794 8.72472C12.7291 9.18246 13.0405 10.1314 13.0405 11.9926H14.3705C14.3705 9.99987 14.0396 8.80771 13.647 8.08785C13.4491 7.72508 13.2364 7.48431 13.0473 7.32669C12.9534 7.2484 12.8675 7.19251 12.7955 7.15308C12.7596 7.13342 12.7274 7.118 12.6997 7.106C12.6858 7.1 12.6731 7.09487 12.6617 7.0905C12.656 7.08831 12.6505 7.08631 12.6454 7.08449C12.6429 7.08358 12.6404 7.08272 12.638 7.08189C12.6369 7.08148 12.6357 7.08108 12.6345 7.08069C12.634 7.0805 12.6331 7.08021 12.6328 7.08011C12.632 7.07983 12.6311 7.07955 12.4208 7.71043ZM13.0405 11.9926C13.0405 13.8539 12.7291 14.8028 12.4794 15.2605C12.3561 15.4866 12.2476 15.5937 12.1959 15.6368C12.1694 15.6589 12.1549 15.6666 12.1566 15.6656C12.1574 15.6652 12.162 15.6628 12.1709 15.6589C12.1753 15.657 12.1808 15.6547 12.1874 15.6522C12.1907 15.651 12.1943 15.6496 12.1981 15.6483C12.2 15.6476 12.202 15.6469 12.2041 15.6461C12.2052 15.6458 12.2062 15.6454 12.2073 15.6451C12.2078 15.6449 12.2086 15.6446 12.2089 15.6445C12.2097 15.6442 12.2106 15.644 12.4208 16.2748C12.6311 16.9057 12.632 16.9054 12.6328 16.9051C12.6331 16.9051 12.634 16.9048 12.6345 16.9046C12.6357 16.9042 12.6369 16.9038 12.638 16.9034C12.6404 16.9025 12.6429 16.9017 12.6454 16.9008C12.6505 16.8989 12.656 16.897 12.6617 16.8948C12.6731 16.8904 12.6858 16.8853 12.6997 16.8793C12.7274 16.8673 12.7596 16.8518 12.7955 16.8322C12.8675 16.7927 12.9534 16.7369 13.0473 16.6586C13.2364 16.501 13.4491 16.2602 13.647 15.8974C14.0396 15.1775 14.3705 13.9854 14.3705 11.9926H13.0405ZM3.85644 8.37543H4.03528V7.04543H3.85644V8.37543ZM3.57811 8.17526L5.09601 9.81966L6.0733 8.91754L4.55539 7.27315L3.57811 8.17526ZM6.29264 9.54772L6.77589 7.97715L5.50471 7.58602L5.02146 9.15658L6.29264 9.54772ZM5.72405 8.21619L7.22321 9.84028L8.2005 8.93816L6.70134 7.31408L5.72405 8.21619ZM8.26343 9.84028L9.26346 8.75691L8.28617 7.8548L7.28614 8.93816L8.26343 9.84028ZM8.50995 8.88197L9.53475 9.43708L10.1682 8.26762L9.1434 7.71252L8.50995 8.88197ZM9.26346 8.7569C9.07044 8.96601 8.76015 9.01751 8.50994 8.88197L9.14341 7.71252C8.85875 7.55833 8.50576 7.61691 8.28617 7.8548L9.26346 8.7569ZM7.2232 9.84027C7.50348 10.1439 7.98316 10.1439 8.26343 9.84028L7.28614 8.93816C7.5325 8.67128 7.95414 8.67127 8.2005 8.93817L7.2232 9.84027ZM6.77589 7.97715C6.63477 8.4358 6.04952 8.56879 5.72405 8.21619L6.70134 7.31408C6.33106 6.91294 5.66526 7.06424 5.50471 7.58602L6.77589 7.97715ZM5.09601 9.81966C5.46629 10.2208 6.13209 10.0695 6.29264 9.54772L5.02146 9.15658C5.16258 8.69793 5.74783 8.56495 6.0733 8.91754L5.09601 9.81966ZM4.03528 8.37543C3.86163 8.37543 3.69589 8.30285 3.57811 8.17526L4.55539 7.27315C4.4214 7.12799 4.23284 7.04543 4.03528 7.04543V8.37543ZM3.80374 12.9697L4.39905 12.5624L3.64802 11.4647L3.05271 11.872L3.80374 12.9697ZM3.59054 12.4709L5.10823 14.1151L6.08552 13.2129L4.56783 11.5688L3.59054 12.4709ZM6.23117 14.0059L7.21917 12.4004L6.08646 11.7034L5.09846 13.3089L6.23117 14.0059ZM6.1594 12.4004L7.14054 13.9948L8.27325 13.2977L7.29211 11.7034L6.1594 12.4004ZM8.34619 13.9948L9.34024 12.3794L8.20754 11.6824L7.21348 13.2977L8.34619 13.9948ZM8.59484 12.6383L9.60663 13.0391L10.0964 11.8026L9.08464 11.4018L8.59484 12.6383ZM9.34024 12.3794C9.16806 12.6592 8.8131 12.7529 8.5281 12.6078L9.13135 11.4225C8.80722 11.2575 8.40338 11.3641 8.20754 11.6824L9.34024 12.3794ZM7.14054 13.9948C7.41693 14.4439 8.0698 14.4439 8.34619 13.9948L7.21348 13.2977C7.45643 12.9029 8.0303 12.9029 8.27325 13.2977L7.14054 13.9948ZM7.21917 12.4004C6.97622 12.7952 6.40235 12.7952 6.1594 12.4004L7.29211 11.7034C7.01571 11.2542 6.36286 11.2542 6.08646 11.7034L7.21917 12.4004ZM5.10823 14.1151C5.4263 14.4596 5.98542 14.4053 6.23117 14.0059L5.09846 13.3089C5.31448 12.9578 5.80595 12.9101 6.08552 13.2129L5.10823 14.1151ZM4.39905 12.5624C4.1442 12.7367 3.8 12.6978 3.59054 12.4709L4.56783 11.5688C4.32953 11.3106 3.93796 11.2663 3.64802 11.4647L4.39905 12.5624ZM4.08994 16.4693L5.20004 16.053L4.73305 14.8077L3.62294 15.224L4.08994 16.4693ZM4.4639 15.8155L5.55134 17.4467L6.65797 16.709L5.57052 15.0778L4.4639 15.8155ZM6.72923 17.4467L7.79989 15.8407L6.69326 15.103L5.6226 16.709L6.72923 17.4467ZM6.76452 15.8407L7.83518 17.4467L8.94181 16.709L7.87115 15.103L6.76452 15.8407ZM9.01307 17.4467L10.1066 15.8063L9.00002 15.0686L7.90644 16.709L9.01307 17.4467ZM9.58896 16.0834H9.85153V14.7534H9.58896V16.0834ZM10.1066 15.8063C9.99125 15.9794 9.79698 16.0834 9.58896 16.0834V14.7534C9.35231 14.7534 9.13131 14.8717 9.00003 15.0686L10.1066 15.8063ZM7.83518 17.4467C8.11535 17.867 8.7329 17.867 9.01307 17.4467L7.90644 16.709C8.15271 16.3395 8.69554 16.3395 8.94181 16.709L7.83518 17.4467ZM7.79989 15.8407C7.55362 16.2101 7.01079 16.2101 6.76452 15.8407L7.87115 15.103C7.59098 14.6827 6.97343 14.6827 6.69326 15.103L7.79989 15.8407ZM5.55134 17.4467C5.83151 17.867 6.44906 17.867 6.72923 17.4467L5.6226 16.709C5.86887 16.3395 6.4117 16.3395 6.65797 16.709L5.55134 17.4467ZM5.20004 16.053C4.92931 16.1545 4.6243 16.0561 4.4639 15.8155L5.57052 15.0778C5.38805 14.8041 5.04105 14.6922 4.73305 14.8077L5.20004 16.053ZM6.49183 20.1455L7.23704 19.3175L6.24846 18.4277L5.50325 19.2557L6.49183 20.1455ZM6.41294 19.4075L7.55594 20.224L8.32899 19.1417L7.18599 18.3253L6.41294 19.4075ZM8.37877 20.224L9.53237 19.4L8.75932 18.3177L7.60572 19.1417L8.37877 20.224ZM8.90324 19.4554L10.6463 20.2854L11.2181 19.0846L9.47505 18.2546L8.90324 19.4554ZM11.5305 20.0523L12.1092 19.2255L11.0196 18.4628L10.4409 19.2896L11.5305 20.0523ZM10.6463 20.2854C10.9584 20.4341 11.3322 20.3355 11.5305 20.0523L10.4409 19.2896C10.6151 19.0406 10.9437 18.954 11.2181 19.0846L10.6463 20.2854ZM9.53237 19.4C9.34831 19.5314 9.10742 19.5526 8.90324 19.4554L9.47506 18.2546C9.24277 18.144 8.96872 18.1681 8.75932 18.3177L9.53237 19.4ZM7.55594 20.224C7.80205 20.3997 8.13266 20.3997 8.37877 20.224L7.60572 19.1417C7.82205 18.9872 8.11266 18.9872 8.32899 19.1417L7.55594 20.224ZM7.23704 19.3175C7.02526 19.5528 6.67055 19.5915 6.41294 19.4075L7.18599 18.3253C6.89292 18.1159 6.48939 18.16 6.24846 18.4277L7.23704 19.3175ZM6.42576 4.94966H6.98245V3.61966H6.42576V4.94966ZM6.60914 4.82523L7.71847 5.65722L8.51647 4.59322L7.40714 3.76123L6.60914 4.82523ZM8.45971 5.72406L10.1298 4.88903L9.53498 3.69944L7.86492 4.53447L8.45971 5.72406ZM9.57328 4.88903L11.267 5.7359L11.8618 4.54631L10.1681 3.69944L9.57328 4.88903ZM10.1298 4.88903C9.95461 4.97661 9.74845 4.97661 9.57329 4.88903L10.1681 3.69944C9.9688 3.59981 9.73425 3.59981 9.53498 3.69944L10.1298 4.88903ZM7.71847 5.65722C7.93296 5.81809 8.21992 5.84396 8.45971 5.72406L7.86492 4.53447C8.0757 4.42908 8.32794 4.45182 8.51647 4.59322L7.71847 5.65722ZM6.98245 4.94966C6.84783 4.94966 6.71684 4.906 6.60914 4.82522L7.40715 3.76123C7.28462 3.66933 7.1356 3.61966 6.98245 3.61966V4.94966ZM8.75835 20.3184C7.47243 20.3184 6.21507 19.5035 5.24659 17.9912C4.28284 16.4863 3.665 14.367 3.665 11.9917H2.335C2.335 14.5824 3.00621 16.959 4.12658 18.7084C5.24221 20.4505 6.86403 21.6484 8.75835 21.6484V20.3184ZM3.665 11.9917C3.665 9.61645 4.28284 7.49714 5.24659 5.99224C6.21507 4.47995 7.47243 3.665 8.75835 3.665V2.335C6.86403 2.335 5.24221 3.53291 4.12658 5.27498C3.00621 7.02444 2.335 9.40097 2.335 11.9917H3.665ZM8.75835 3.665H14.9597V2.335H8.75835V3.665ZM8.75835 21.6484H15.4026V20.3184H8.75835V21.6484ZM9.08464 11.4018C9.11136 11.4124 9.13106 11.4224 9.13738 11.4256C9.14052 11.4272 9.14318 11.4286 9.14153 11.4278C9.14109 11.4275 9.1366 11.4252 9.13135 11.4225L8.5281 12.6078C8.52452 12.606 8.52168 12.6045 8.52288 12.6051C8.52288 12.6051 8.52719 12.6074 8.53198 12.6098C8.54162 12.6148 8.56467 12.6264 8.59484 12.6383L9.08464 11.4018Z" fill="#18181B"/>
<path d="M6.1732 7.7C6.09622 7.83333 5.90377 7.83333 5.8268 7.7L1.84308 0.799999C1.7661 0.666666 1.86232 0.499999 2.01628 0.499999L9.98372 0.5C10.1377 0.5 10.2339 0.666666 10.1569 0.8L6.1732 7.7Z" fill="#18181B" stroke="white" stroke-width="1.33" stroke-linejoin="round"/>
</g>
<defs>
<clipPath id="clip0_5140_238065">
<rect width="24" height="24" fill="white"/>
</clipPath>
</defs>
</svg>
