<svg width="24" height="24" viewBox="0 0 24 24" fill="none" xmlns="http://www.w3.org/2000/svg">
<g clip-path="url(#clip0_5140_238064)">
<path d="M6 0V24M10 0V24M14 0V24M18 0V24M-1 1.5H3M25 1.5H21M-1 4.5H1M25 4.5H23M-1 7.5H3M25 7.5H21M-1 10.5H1M25 10.5H23M-1 13.5H3M25 13.5H21M-1 16.5H1M25 16.5H23M-1 19.5H3M25 19.5H21M-1 22.5H1M25 22.5H23M10 0.5L6 4.5M18 0.5L14 4.5M10 4.5L6 8.5M18 4.5L14 8.5M10 8.5L6 12.5M18 8.5L14 12.5M10 12.5L6 16.5M18 12.5L14 16.5M10 16.5L6 20.5M18 16.5L14 20.5M10 20.5L6 24.5M18 20.5L14 24.5" stroke="#18181B" stroke-width="2" stroke-linecap="round"/>
</g>
<defs>
<clipPath id="clip0_5140_238064">
<rect width="24" height="24" fill="white"/>
</clipPath>
</defs>
</svg>
