<svg width="24" height="24" viewBox="0 0 24 24" fill="none" xmlns="http://www.w3.org/2000/svg">
<g clip-path="url(#clip0_5140_238063)">
<path d="M6.76046 2.42955H5.76046V4.42955H6.76046V2.42955ZM7.19276 3.45712L6.46698 4.14505H6.46698L7.19276 3.45712ZM10.3129 6.74895L9.58712 7.43688L9.58712 7.43688L10.3129 6.74895ZM10.4617 6.71602L11.4153 7.01729V7.01729L10.4617 6.71602ZM11.4551 3.57199L10.5015 3.27073V3.27073L11.4551 3.57199ZM11.6039 3.53906L10.8781 4.22699H10.8781L11.6039 3.53906ZM14.6855 6.79023L15.4113 6.10231L15.4113 6.10231L14.6855 6.79023ZM14.8148 6.79023L15.5406 7.47816L15.5406 7.47816L14.8148 6.79023ZM16.8705 4.6215L17.5962 5.30942L17.5962 5.30942L16.8705 4.6215ZM16.9771 4.60427L16.5105 5.48874L16.5105 5.48875L16.9771 4.60427ZM5.32572 12.0269L4.49354 12.5814L5.60256 14.2458L6.43474 13.6913L5.32572 12.0269ZM7.10394 12.0437L7.65845 12.8759H7.65845L7.10394 12.0437ZM7.21832 12.0563L7.9441 11.3684L7.9441 11.3684L7.21832 12.0563ZM10.338 15.3477L11.0638 14.6597H11.0638L10.338 15.3477ZM10.4777 15.3345L9.63231 14.8003L9.63231 14.8003L10.4777 15.3345ZM12.5086 12.1205L11.6632 11.5863L11.6632 11.5863L12.5086 12.1205ZM12.6585 12.1205L13.5039 11.5863L13.5039 11.5863L12.6585 12.1205ZM14.6753 15.3121L15.5207 14.778L15.5207 14.778L14.6753 15.3121ZM14.8252 15.3121L13.9798 14.778L13.9798 14.778L14.8252 15.3121ZM16.8686 12.0785L17.7139 12.6127H17.7139L16.8686 12.0785ZM6.41742 18.7776L5.4781 19.1207L6.16418 20.9993L7.1035 20.6563L6.41742 18.7776ZM9.04234 18.8836L8.6993 17.9443H8.6993L9.04234 18.8836ZM9.14649 18.9163L9.97166 18.3514L9.14649 18.9163ZM11.3818 22.1816L12.207 21.6168H12.207L11.3818 22.1816ZM11.5283 22.1816L10.7031 21.6168L11.5283 22.1816ZM13.7291 18.9667L12.9039 18.4018V18.4018L13.7291 18.9667ZM13.8755 18.9667L14.7007 18.4018H14.7007L13.8755 18.9667ZM16.0764 22.1816L16.9015 21.6168L16.0764 22.1816ZM16.2228 22.1816L15.3977 21.6168L16.2228 22.1816ZM18.4707 18.8979L17.6456 18.333L17.6456 18.333L18.4707 18.8979ZM10.4272 26.7533L9.7485 27.4877L11.2173 28.8451L11.896 28.1107L10.4272 26.7533ZM12.6934 25.7745L13.4278 26.4532H13.4278L12.6934 25.7745ZM12.81 25.7621L13.3811 24.9412L12.81 25.7621ZM15.1595 27.3964L15.7306 26.5755H15.7306L15.1595 27.3964ZM15.2618 27.3964L14.6908 26.5755H14.6908L15.2618 27.3964ZM17.6331 25.7469L18.2042 26.5678H18.2042L17.6331 25.7469ZM17.7221 25.7393L17.3014 26.6465L17.7221 25.7393ZM21.305 27.4008L20.8843 28.308H20.8843L21.305 27.4008ZM21.415 27.3726L22.227 27.9563L22.227 27.9563L21.415 27.3726ZM12.0418 -4.42831H11.0418V-2.42831H12.0418V-4.42831ZM13.239 -3.41116L12.6491 -2.60363L12.6491 -2.60363L13.239 -3.41116ZM15.5192 -1.74563L14.9294 -0.938099L14.9294 -0.938098L15.5192 -1.74563ZM19.0443 -3.40914L18.6065 -4.30821L18.6065 -4.30821L19.0443 -3.40914ZM19.1231 -3.40914L19.5609 -4.30821L19.5608 -4.30822L19.1231 -3.40914ZM16.9984 12.0546L16.6385 12.9876L16.9984 12.0546ZM16.9885 12.0497L17.491 11.1851L16.9885 12.0497ZM37.4791 11.9997C37.4791 15.8405 36.6205 19.2681 35.2826 21.7C33.9249 24.1679 32.2115 25.3997 30.557 25.3997V27.3997C33.2777 27.3997 35.5253 25.408 37.0349 22.6641C38.5643 19.8842 39.4791 16.1118 39.4791 11.9997H37.4791ZM30.557 25.3997C28.9025 25.3997 27.1891 24.1679 25.8314 21.7C24.4935 19.2681 23.6349 15.8405 23.6349 11.9997H21.6349C21.6349 16.1118 22.5497 19.8842 24.0791 22.6641C25.5886 25.408 27.8363 27.3997 30.557 27.3997V25.3997ZM23.6349 11.9997C23.6349 8.15893 24.4935 4.73126 25.8314 2.29938C27.1891 -0.168449 28.9025 -1.4003 30.557 -1.4003V-3.4003C27.8363 -3.4003 25.5886 -1.4086 24.0791 1.33535C22.5497 4.11524 21.6349 7.88757 21.6349 11.9997H23.6349ZM30.557 -1.4003C32.2115 -1.4003 33.9249 -0.168449 35.2826 2.29938C36.6205 4.73126 37.4791 8.15893 37.4791 11.9997H39.4791C39.4791 7.88757 38.5643 4.11524 37.0349 1.33535C35.5253 -1.4086 33.2777 -3.4003 30.557 -3.4003V-1.4003ZM41 12C41 16.8099 39.7586 21.1176 37.8045 24.1914C35.8428 27.2773 33.2559 29 30.557 29V31C34.1779 31 37.3125 28.6933 39.4923 25.2644C41.6798 21.8236 43 17.1312 43 12H41ZM30.557 29C27.8581 29 25.2712 27.2773 23.3095 24.1914C21.3554 21.1176 20.114 16.8099 20.114 12H18.114C18.114 17.1312 19.4342 21.8236 21.6217 25.2644C23.8015 28.6933 26.9361 31 30.557 31V29ZM20.114 12C20.114 7.19006 21.3554 2.88243 23.3095 -0.191432C25.2712 -3.27727 27.8581 -5 30.557 -5V-7C26.9361 -7 23.8015 -4.69329 21.6217 -1.26441C19.4342 2.17645 18.114 6.86882 18.114 12H20.114ZM30.557 -5C33.2559 -5 35.8428 -3.27727 37.8045 -0.191432C39.7586 2.88243 41 7.19006 41 12H43C43 6.86882 41.6798 2.17645 39.4923 -1.26441C37.3125 -4.69329 34.1779 -7 30.557 -7V-5ZM24.3651 3.42955C24.0563 4.38068 24.0551 4.38029 24.0539 4.37989C24.0535 4.37977 24.0523 4.37937 24.0515 4.37911C24.05 4.3786 24.0484 4.37809 24.047 4.37759C24.044 4.37659 24.0412 4.37563 24.0385 4.3747C24.0331 4.37284 24.0284 4.37112 24.0242 4.36957C24.0158 4.36646 24.0098 4.36401 24.0059 4.36238C23.9982 4.3591 23.9992 4.35913 24.008 4.36381C24.0252 4.37301 24.0747 4.40143 24.1475 4.46051C24.2911 4.57703 24.541 4.82564 24.813 5.31121C25.3613 6.29025 26.0058 8.24658 26.0058 12.0019H28.0058C28.0058 8.04206 27.3299 5.71222 26.5579 4.33388C26.1697 3.64076 25.7594 3.19287 25.4078 2.90756C25.2331 2.76573 25.0763 2.6669 24.9491 2.59909C24.8857 2.56525 24.83 2.53934 24.7835 2.51974C24.7603 2.50994 24.7395 2.50173 24.7211 2.49491C24.7119 2.4915 24.7034 2.48844 24.6955 2.48569C24.6916 2.48432 24.6878 2.48303 24.6842 2.48182C24.6824 2.48121 24.6806 2.48062 24.6789 2.48006C24.678 2.47977 24.6768 2.47936 24.6763 2.47922C24.6751 2.47881 24.6738 2.47841 24.3651 3.42955ZM26.0058 12.0019C26.0058 15.7571 25.3613 17.7135 24.813 18.6925C24.541 19.1781 24.2911 19.4267 24.1475 19.5432C24.0747 19.6023 24.0252 19.6307 24.008 19.6399C23.9992 19.6446 23.9982 19.6446 24.0059 19.6413C24.0098 19.6397 24.0158 19.6373 24.0242 19.6341C24.0284 19.6326 24.0331 19.6309 24.0385 19.629C24.0412 19.6281 24.044 19.6271 24.047 19.6261C24.0484 19.6256 24.05 19.6251 24.0515 19.6246C24.0523 19.6243 24.0535 19.624 24.0539 19.6238C24.0551 19.6234 24.0563 19.623 24.3651 20.5742C24.6738 21.5253 24.6751 21.5249 24.6763 21.5245C24.6768 21.5244 24.678 21.5239 24.6789 21.5237C24.6806 21.5231 24.6824 21.5225 24.6842 21.5219C24.6878 21.5207 24.6916 21.5194 24.6955 21.518C24.7034 21.5153 24.7119 21.5122 24.7211 21.5088C24.7395 21.502 24.7603 21.4938 24.7835 21.484C24.83 21.4644 24.8857 21.4385 24.9491 21.4046C25.0763 21.3368 25.2331 21.238 25.4078 21.0962C25.7594 20.8108 26.1697 20.363 26.5579 19.6698C27.3299 18.2915 28.0058 15.9617 28.0058 12.0019H26.0058ZM6.76046 4.42955H7.12808V2.42955H6.76046V4.42955ZM6.46698 4.14505L9.58712 7.43688L11.0387 6.06103L7.91854 2.7692L6.46698 4.14505ZM11.4153 7.01729L12.4086 3.87326L10.5015 3.27073L9.50817 6.41475L11.4153 7.01729ZM10.8781 4.22699L13.9597 7.47816L15.4113 6.10231L12.3297 2.85113L10.8781 4.22699ZM15.5406 7.47816L17.5962 5.30942L16.1447 3.93357L14.0891 6.10231L15.5406 7.47816ZM16.5105 5.48875L18.617 6.59998L19.5502 4.83101L17.4436 3.71979L16.5105 5.48875ZM17.5962 5.30942C17.3115 5.60982 16.867 5.67683 16.5105 5.48874L17.4436 3.71979C17.0163 3.49436 16.484 3.57555 16.1447 3.93358L17.5962 5.30942ZM13.9597 7.47815C14.3889 7.93104 15.1114 7.93102 15.5406 7.47816L14.0891 6.1023C14.4486 5.72299 15.0517 5.72297 15.4113 6.10231L13.9597 7.47815ZM12.4086 3.87326C12.1923 4.55797 11.3409 4.71525 10.8781 4.22699L12.3297 2.85114C11.7748 2.26571 10.7578 2.45964 10.5015 3.27073L12.4086 3.87326ZM9.58712 7.43688C10.142 8.0223 11.159 7.82838 11.4153 7.01729L9.50817 6.41475C9.72451 5.73004 10.5759 5.57277 11.0387 6.06103L9.58712 7.43688ZM7.12808 4.42955C6.88256 4.42955 6.64218 4.32988 6.46698 4.14505L7.91854 2.7692C7.71002 2.5492 7.42274 2.42955 7.12808 2.42955V4.42955ZM6.43474 13.6913L7.65845 12.8759L6.54943 11.2115L5.32572 12.0269L6.43474 13.6913ZM6.49254 12.7442L9.61225 16.0356L11.0638 14.6597L7.9441 11.3684L6.49254 12.7442ZM11.323 15.8686L13.3539 12.6547L11.6632 11.5863L9.63231 14.8003L11.323 15.8686ZM11.8131 12.6547L13.8299 15.8463L15.5207 14.778L13.5039 11.5863L11.8131 12.6547ZM15.6706 15.8463L17.7139 12.6127L16.0232 11.5443L13.9798 14.778L15.6706 15.8463ZM16.6385 12.9876L18.7238 13.7921L19.4436 11.9261L17.3583 11.1217L16.6385 12.9876ZM17.7139 12.6127C17.4443 13.0393 16.8977 13.1535 16.4861 12.9144L17.491 11.1851C16.9974 10.8983 16.3435 11.0374 16.0232 11.5443L17.7139 12.6127ZM13.8299 15.8463C14.2567 16.5218 15.2438 16.5218 15.6706 15.8463L13.9798 14.778C14.3379 14.2113 15.1626 14.2113 15.5207 14.778L13.8299 15.8463ZM13.3539 12.6547C12.9958 13.2214 12.1712 13.2214 11.8131 12.6547L13.5039 11.5863C13.077 10.9108 12.09 10.9108 11.6632 11.5863L13.3539 12.6547ZM9.61225 16.0356C10.0956 16.5456 10.9405 16.4741 11.323 15.8686L9.63231 14.8003C9.95375 14.2916 10.6595 14.2332 11.0638 14.6597L9.61225 16.0356ZM7.65845 12.8759C7.29308 13.1193 6.80066 13.0693 6.49254 12.7442L7.9441 11.3684C7.57672 10.9808 6.98691 10.92 6.54943 11.2115L7.65845 12.8759ZM7.1035 20.6563L9.38538 19.8229L8.6993 17.9443L6.41742 18.7776L7.1035 20.6563ZM8.32131 19.4812L10.5566 22.7465L12.207 21.6168L9.97166 18.3514L8.32131 19.4812ZM12.3534 22.7465L14.5542 19.5316L12.9039 18.4018L10.7031 21.6168L12.3534 22.7465ZM13.0504 19.5316L15.2512 22.7465L16.9015 21.6168L14.7007 18.4018L13.0504 19.5316ZM17.048 22.7465L19.2959 19.4628L17.6456 18.333L15.3977 21.6168L17.048 22.7465ZM18.544 19.8597H19.0837V17.8597H18.544V19.8597ZM19.2959 19.4628C19.1218 19.7172 18.8373 19.8597 18.544 19.8597V17.8597C18.1918 17.8597 17.8524 18.0309 17.6456 18.333L19.2959 19.4628ZM15.2512 22.7465C15.6832 23.3776 16.616 23.3776 17.048 22.7465L15.3977 21.6168C15.76 21.0875 16.5392 21.0875 16.9015 21.6168L15.2512 22.7465ZM14.5542 19.5316C14.1919 20.0608 13.4127 20.0608 13.0504 19.5316L14.7007 18.4018C14.2687 17.7708 13.3359 17.7708 12.9039 18.4018L14.5542 19.5316ZM10.5566 22.7465C10.9886 23.3776 11.9214 23.3776 12.3534 22.7465L10.7031 21.6168C11.0654 21.0875 11.8447 21.0875 12.207 21.6168L10.5566 22.7465ZM9.38538 19.8229C9.00374 19.9623 8.56228 19.8332 8.32131 19.4812L9.97166 18.3514C9.68532 17.9331 9.15755 17.7769 8.6993 17.9443L9.38538 19.8229ZM11.896 28.1107L13.4278 26.4532L11.959 25.0958L10.4272 26.7533L11.896 28.1107ZM12.239 26.583L14.5885 28.2174L15.7306 26.5755L13.3811 24.9412L12.239 26.583ZM15.8329 28.2174L18.2042 26.5678L17.0621 24.926L14.6908 26.5755L15.8329 28.2174ZM17.3014 26.6465L20.8843 28.308L21.7258 26.4936L18.1428 24.8321L17.3014 26.6465ZM22.227 27.9563L23.4166 26.3012L21.7926 25.1339L20.603 26.789L22.227 27.9563ZM20.8843 28.308C21.3501 28.524 21.917 28.3876 22.227 27.9563L20.603 26.7889C20.8637 26.4262 21.3376 26.3136 21.7258 26.4936L20.8843 28.308ZM18.2042 26.5678C17.937 26.7537 17.5933 26.7818 17.3014 26.6465L18.1428 24.8321C17.7932 24.6699 17.3814 24.7039 17.0621 24.926L18.2042 26.5678ZM14.5885 28.2174C14.9623 28.4774 15.459 28.4774 15.8329 28.2174L14.6908 26.5755C15.0034 26.358 15.4179 26.358 15.7306 26.5755L14.5885 28.2174ZM13.4278 26.4532C13.1161 26.7905 12.6086 26.8401 12.239 26.583L13.3811 24.9412C12.9385 24.6333 12.3306 24.6936 11.959 25.0958L13.4278 26.4532ZM12.0418 -2.42831H13.1861V-4.42831H12.0418V-2.42831ZM12.6491 -2.60363L14.9294 -0.938099L16.1091 -2.55316L13.8288 -4.21869L12.6491 -2.60363ZM16.0492 -0.83846L19.4821 -2.51006L18.6065 -4.30821L15.1736 -2.63661L16.0492 -0.83846ZM18.6853 -2.51006L22.1668 -0.814767L23.0424 -2.61292L19.5609 -4.30821L18.6853 -2.51006ZM19.4821 -2.51006C19.2306 -2.38756 18.9368 -2.38756 18.6853 -2.51006L19.5608 -4.30822C19.2597 -4.45485 18.9077 -4.45484 18.6065 -4.30821L19.4821 -2.51006ZM14.9294 -0.938098C15.2568 -0.698963 15.6881 -0.662626 16.0492 -0.83846L15.1736 -2.63661C15.4751 -2.7834 15.835 -2.75334 16.1091 -2.55316L14.9294 -0.938098ZM13.1861 -2.42831C12.9953 -2.42831 12.8069 -2.48843 12.6491 -2.60363L13.8288 -4.21869C13.6406 -4.35615 13.4151 -4.42831 13.1861 -4.42831V-2.42831ZM16.8366 29C14.0129 29 11.3281 27.259 9.3024 24.1785C7.28216 21.1063 6 16.8034 6 12H4C4 17.1377 5.36756 21.8348 7.63133 25.2774C9.88965 28.7116 13.1232 31 16.8366 31V29ZM6 12C6 7.19659 7.28216 2.89371 9.3024 -0.178483C11.3281 -3.25897 14.0129 -5 16.8366 -5V-7C13.1232 -7 9.88965 -4.71159 7.63133 -1.27736C5.36756 2.16517 4 6.86228 4 12H6ZM16.8366 -5H29.5837V-7H16.8366V-5ZM16.8366 31H30.4943V29H16.8366V31ZM17.3583 11.1217C17.4287 11.1488 17.4791 11.1782 17.491 11.1851L16.4861 12.9144C16.5044 12.925 16.5612 12.9578 16.6385 12.9876L17.3583 11.1217Z" fill="#18181B"/>
</g>
<defs>
<clipPath id="clip0_5140_238063">
<rect width="24" height="24" fill="white"/>
</clipPath>
</defs>
</svg>
