<svg width="24" height="24" viewBox="0 0 24 24" fill="none" xmlns="http://www.w3.org/2000/svg">
<g clip-path="url(#clip0_5140_238062)">
<path d="M9.37982 4.33409H8.37982V6.33409H9.37982V4.33409ZM9.71865 5.35554L8.99552 6.04625L8.99552 6.04625L9.71865 5.35554ZM12.1642 7.91585L11.441 8.60656L11.441 8.60657L12.1642 7.91585ZM12.2808 7.89024L13.2337 8.19362L13.2337 8.19362L12.2808 7.89024ZM13.0594 5.44488L12.1065 5.1415L12.1065 5.1415L13.0594 5.44488ZM13.176 5.41927L12.4529 6.10998H12.4529L13.176 5.41927ZM15.5913 7.94796L16.3145 7.25726L16.3144 7.25725L15.5913 7.94796ZM15.6927 7.94796L16.4158 8.63867L16.4158 8.63867L15.6927 7.94796ZM17.3039 6.26116L18.027 6.95187L18.027 6.95187L17.3039 6.26116ZM17.3874 6.24776L16.9236 7.13371L16.9236 7.13372L17.3874 6.24776ZM8.13836 11.834L7.30422 12.3856L8.40733 14.0539L9.24147 13.5023L8.13836 11.834ZM9.64903 12.034L10.2006 12.8681L10.2006 12.8681L9.64903 12.034ZM9.73869 12.0438L10.4618 11.3531L10.4618 11.3531L9.73869 12.0438ZM12.1839 14.6037L12.907 13.913L12.907 13.913L12.1839 14.6037ZM12.2933 14.5935L11.4498 14.0563L11.4498 14.0563L12.2933 14.5935ZM13.8851 12.0937L13.0416 11.5566L13.0416 11.5566L13.8851 12.0937ZM14.0026 12.0937L14.8461 11.5566L14.8461 11.5566L14.0026 12.0937ZM15.5833 14.5761L16.4268 14.039L16.4268 14.039L15.5833 14.5761ZM15.7008 14.5761L14.8573 14.039L14.8573 14.039L15.7008 14.5761ZM17.3024 12.061L18.1459 12.5982L17.3024 12.061ZM9.0391 17.0619L8.09894 17.4026L8.78038 19.2829L9.72054 18.9422L9.0391 17.0619ZM11.1683 17.3539L10.8276 16.4137H10.8276L11.1683 17.3539ZM11.25 17.3794L12.0731 16.8115L11.25 17.3794ZM13.0019 19.9191L13.8251 19.3512H13.8251L13.0019 19.9191ZM13.1167 19.9191L12.2936 19.3512L13.1167 19.9191ZM14.8417 17.4185L14.0186 16.8507H14.0186L14.8417 17.4185ZM14.9565 17.4185L15.7797 16.8507H15.7797L14.9565 17.4185ZM16.6815 19.9191L17.5046 19.3512L16.6815 19.9191ZM16.7963 19.9191L15.9731 19.3512L16.7963 19.9191ZM18.5582 17.365L17.735 16.7972L17.735 16.7972L18.5582 17.365ZM12.0976 23.3212L11.4161 24.053L12.8797 25.416L13.5612 24.6842L12.0976 23.3212ZM14.03 22.7135L14.7618 23.395H14.7618L14.03 22.7135ZM14.1214 22.7038L14.6895 21.8809L14.1214 22.7038ZM15.9629 23.975L16.531 23.152L16.531 23.152L15.9629 23.975ZM16.0431 23.975L15.475 23.152L15.475 23.152L16.0431 23.975ZM17.9016 22.692L18.4697 23.515L18.4697 23.515L17.9016 22.692ZM17.9714 22.6861L17.5534 23.5945L17.5534 23.5945L17.9714 22.6861ZM20.7796 23.9784L20.3616 24.8869H20.3616L20.7796 23.9784ZM20.8658 23.9565L21.6757 24.5431L21.6757 24.5431L20.8658 23.9565ZM13.5193 -0.999793H12.5193V1.00021H13.5193V-0.999793ZM14.4576 0.0135412L13.8707 0.823225L13.8707 0.823226L14.4576 0.0135412ZM16.2448 1.30895L15.658 2.11864L15.658 2.11864L16.2448 1.30895ZM19.0077 0.0151153L18.5726 -0.88528L18.5726 -0.885279L19.0077 0.0151153ZM19.0694 0.0151153L19.5045 -0.885279L19.5045 -0.885283L19.0694 0.0151153ZM17.4052 12.0429L17.7627 11.109L17.4052 12.0429ZM17.3954 12.0381L16.9104 12.9127L17.3954 12.0381ZM33.2404 11.9998C33.2404 14.9557 32.574 17.5823 31.5471 19.4345C30.5013 21.321 29.2166 22.1998 28.0312 22.1998V24.1998C30.2749 24.1998 32.0949 22.5713 33.2963 20.4042C34.5168 18.2028 35.2404 15.2295 35.2404 11.9998H33.2404ZM28.0312 22.1998C26.8457 22.1998 25.5611 21.321 24.5152 19.4345C23.4883 17.5823 22.822 14.9557 22.822 11.9998H20.822C20.822 15.2295 21.5456 18.2028 22.766 20.4042C23.9674 22.5713 25.7874 24.1998 28.0312 24.1998V22.1998ZM22.822 11.9998C22.822 9.04387 23.4883 6.41725 24.5152 4.56504C25.5611 2.67852 26.8457 1.79977 28.0312 1.79977V-0.200232C25.7874 -0.200232 23.9674 1.42823 22.766 3.59531C21.5456 5.7967 20.822 8.77008 20.822 11.9998H22.822ZM28.0312 1.79977C29.2166 1.79977 30.5013 2.67852 31.5471 4.56504C32.574 6.41725 33.2404 9.04387 33.2404 11.9998H35.2404C35.2404 8.77008 34.5168 5.7967 33.2963 3.59531C32.0949 1.42823 30.2749 -0.200232 28.0312 -0.200232V1.79977ZM36 12C36 15.7039 35.0363 19.0105 33.5311 21.3601C32.0187 23.7208 30.0506 25 28.0312 25V27C30.9651 27 33.4814 25.1452 35.2151 22.4389C36.956 19.7215 38 16.0281 38 12H36ZM28.0312 25C26.0118 25 24.0436 23.7208 22.5313 21.3601C21.026 19.0105 20.0623 15.7039 20.0623 12H18.0623C18.0623 16.0281 19.1063 19.7215 20.8472 22.4389C22.581 25.1452 25.0972 27 28.0312 27V25ZM20.0623 12C20.0623 8.29609 21.026 4.98954 22.5313 2.63994C24.0436 0.279249 26.0118 -1 28.0312 -1V-3C25.0972 -3 22.581 -1.14524 20.8472 1.56107C19.1063 4.27848 18.0623 7.97193 18.0623 12H20.0623ZM28.0312 -1C30.0506 -1 32.0187 0.279249 33.5311 2.63994C35.0363 4.98954 36 8.29609 36 12H38C38 7.97193 36.956 4.27848 35.2151 1.56107C33.4814 -1.14524 30.9651 -3 28.0312 -3V-1ZM23.178 5.33409C22.8714 6.28592 22.8702 6.28553 22.869 6.28514C22.8686 6.28501 22.8674 6.28462 22.8666 6.28436C22.8651 6.28385 22.8635 6.28334 22.862 6.28284C22.859 6.28183 22.8561 6.28084 22.8533 6.27988C22.8477 6.27795 22.8426 6.27611 22.8379 6.27438C22.8285 6.27093 22.8209 6.2679 22.815 6.26543C22.8032 6.26047 22.7982 6.25777 22.7992 6.25832C22.801 6.25926 22.8282 6.27385 22.8742 6.31086C22.9641 6.38325 23.142 6.55472 23.342 6.90906C23.7464 7.62545 24.2478 9.10439 24.2478 12.0014H26.2478C26.2478 8.89788 25.7143 7.04315 25.0838 5.92601C24.7663 5.36359 24.4269 4.99334 24.1287 4.75319C23.9806 4.63394 23.8461 4.54956 23.7347 4.4906C23.6792 4.4612 23.6297 4.43831 23.5876 4.42066C23.5665 4.41184 23.5473 4.40434 23.5301 4.39799C23.5215 4.39482 23.5134 4.39193 23.5058 4.38932C23.502 4.38801 23.4984 4.38677 23.4948 4.38559C23.4931 4.38501 23.4913 4.38443 23.4896 4.38388C23.4888 4.3836 23.4875 4.38319 23.4871 4.38306C23.4859 4.38266 23.4847 4.38226 23.178 5.33409ZM24.2478 12.0014C24.2478 14.8985 23.7464 16.3774 23.342 17.0938C23.142 17.4482 22.9641 17.6196 22.8742 17.692C22.8282 17.729 22.801 17.7436 22.7992 17.7446C22.7982 17.7451 22.8032 17.7424 22.815 17.7375C22.8209 17.735 22.8285 17.732 22.8379 17.7285C22.8426 17.7268 22.8477 17.7249 22.8533 17.723C22.8561 17.7221 22.859 17.7211 22.862 17.7201C22.8635 17.7196 22.8651 17.719 22.8666 17.7185C22.8674 17.7183 22.8686 17.7179 22.869 17.7178C22.8702 17.7174 22.8714 17.717 23.178 18.6688C23.4847 19.6206 23.4859 19.6202 23.4871 19.6198C23.4875 19.6197 23.4888 19.6193 23.4896 19.619C23.4913 19.6185 23.4931 19.6179 23.4948 19.6173C23.4984 19.6161 23.502 19.6149 23.5058 19.6136C23.5134 19.611 23.5215 19.6081 23.5301 19.6049C23.5473 19.5986 23.5665 19.5911 23.5876 19.5822C23.6297 19.5646 23.6792 19.5417 23.7347 19.5123C23.8461 19.4533 23.9806 19.369 24.1287 19.2497C24.4269 19.0096 24.7663 18.6393 25.0838 18.0769C25.7143 16.9597 26.2478 15.105 26.2478 12.0014H24.2478ZM9.37982 6.33409H9.66796V4.33409H9.37982V6.33409ZM8.99552 6.04625L11.441 8.60656L12.8873 7.22515L10.4418 4.66483L8.99552 6.04625ZM13.2337 8.19362L14.0122 5.74827L12.1065 5.1415L11.3279 7.58686L13.2337 8.19362ZM12.4529 6.10998L14.8682 8.63867L16.3144 7.25725L13.8991 4.72856L12.4529 6.10998ZM16.4158 8.63867L18.027 6.95187L16.5807 5.57046L14.9696 7.25725L16.4158 8.63867ZM16.9236 7.13372L18.5747 7.99801L19.5023 6.2261L17.8512 5.36181L16.9236 7.13372ZM18.027 6.95187C17.7359 7.25663 17.2849 7.32283 16.9236 7.13371L17.8512 5.36181C17.4344 5.14365 16.9146 5.22088 16.5807 5.57046L18.027 6.95187ZM14.8682 8.63866C15.2894 9.07966 15.9946 9.07965 16.4158 8.63867L14.9696 7.25725C15.3361 6.87347 15.9479 6.87346 16.3145 7.25726L14.8682 8.63866ZM14.0122 5.74827C13.7889 6.44984 12.9215 6.60061 12.4529 6.10998L13.8991 4.72856C13.3583 4.16236 12.3612 4.34163 12.1065 5.1415L14.0122 5.74827ZM11.441 8.60657C11.9818 9.17276 12.979 8.9935 13.2337 8.19362L11.3279 7.58686C11.5513 6.88528 12.4187 6.73452 12.8873 7.22514L11.441 8.60657ZM9.66796 6.33409C9.41969 6.33409 9.17501 6.23417 8.99552 6.04625L10.4418 4.66483C10.2362 4.44957 9.95473 4.33409 9.66796 4.33409V6.33409ZM9.24147 13.5023L10.2006 12.8681L9.09748 11.1998L8.13836 11.834L9.24147 13.5023ZM9.01555 12.7345L11.4607 15.2945L12.907 13.913L10.4618 11.3531L9.01555 12.7345ZM13.1368 15.1306L14.7286 12.6308L13.0416 11.5566L11.4498 14.0563L13.1368 15.1306ZM13.1591 12.6308L14.7398 15.1132L16.4268 14.039L14.8461 11.5566L13.1591 12.6308ZM16.5443 15.1132L18.1459 12.5982L16.4589 11.5239L14.8573 14.039L16.5443 15.1132ZM17.0477 12.9768L18.6811 13.6021L19.3961 11.7343L17.7627 11.109L17.0477 12.9768ZM18.1459 12.5982C17.8718 13.0286 17.3247 13.1424 16.9104 12.9127L17.8804 11.1636C17.4021 10.8984 16.7723 11.0317 16.4589 11.5239L18.1459 12.5982ZM14.7398 15.1132C15.1598 15.7727 16.1244 15.7727 16.5444 15.1132L14.8573 14.039C15.2234 13.4641 16.0608 13.4641 16.4268 14.039L14.7398 15.1132ZM14.7286 12.6308C14.3625 13.2057 13.5252 13.2057 13.1591 12.6308L14.8461 11.5566C14.4262 10.8971 13.4615 10.8971 13.0416 11.5566L14.7286 12.6308ZM11.4607 15.2945C11.9339 15.7899 12.7595 15.7231 13.1368 15.1306L11.4498 14.0563C11.7792 13.5391 12.4958 13.4825 12.907 13.913L11.4607 15.2945ZM10.2006 12.8681C9.82979 13.1133 9.33033 13.064 9.01555 12.7345L10.4618 11.3531C10.1006 10.9749 9.5248 10.9173 9.09748 11.1998L10.2006 12.8681ZM9.72054 18.9422L11.509 18.2941L10.8276 16.4137L9.0391 17.0619L9.72054 18.9422ZM10.4268 17.9472L12.1788 20.4869L13.8251 19.3512L12.0731 16.8115L10.4268 17.9472ZM13.9399 20.4869L15.6648 17.9864L14.0186 16.8507L12.2936 19.3512L13.9399 20.4869ZM14.1334 17.9864L15.8583 20.4869L17.5046 19.3512L15.7797 16.8507L14.1334 17.9864ZM17.6194 20.4869L19.3813 17.9329L17.735 16.7972L15.9731 19.3512L17.6194 20.4869ZM18.6156 18.3353H19.0386V16.3353H18.6156V18.3353ZM19.3813 17.9329C19.2022 18.1925 18.9119 18.3353 18.6156 18.3353V16.3353C18.2731 16.3353 17.9397 16.5005 17.735 16.7972L19.3813 17.9329ZM15.8583 20.4869C16.2831 21.1027 17.1946 21.1027 17.6194 20.4869L15.9731 19.3512C16.3433 18.8146 17.1344 18.8146 17.5046 19.3512L15.8583 20.4869ZM15.6648 17.9864C15.2947 18.523 14.5036 18.523 14.1334 17.9864L15.7797 16.8507C15.3548 16.2349 14.4434 16.2349 14.0186 16.8507L15.6648 17.9864ZM12.1788 20.4869C12.6036 21.1027 13.5151 21.1027 13.9399 20.4869L12.2936 19.3512C12.6638 18.8146 13.4549 18.8146 13.8251 19.3512L12.1788 20.4869ZM11.509 18.2941C11.1235 18.4338 10.6743 18.306 10.4268 17.9472L12.0731 16.8115C11.79 16.4012 11.2732 16.2522 10.8276 16.4137L11.509 18.2941ZM13.5612 24.6842L14.7618 23.395L13.2982 22.032L12.0976 23.3212L13.5612 24.6842ZM13.5533 23.5268L15.3948 24.798L16.531 23.152L14.6895 21.8809L13.5533 23.5268ZM16.6112 24.798L18.4697 23.515L17.3336 21.8691L15.475 23.152L16.6112 24.798ZM17.5534 23.5945L20.3616 24.8869L21.1977 23.07L18.3895 21.7777L17.5534 23.5945ZM21.6757 24.5431L22.6081 23.2558L20.9883 22.0826L20.0559 23.3699L21.6757 24.5431ZM20.3616 24.8869C20.815 25.0955 21.3695 24.9658 21.6757 24.5431L20.056 23.3699C20.3235 23.0005 20.8051 22.8894 21.1977 23.07L20.3616 24.8869ZM18.4697 23.515C18.1977 23.7028 17.8494 23.7308 17.5534 23.5945L18.3895 21.7777C18.0481 21.6206 17.6464 21.6531 17.3336 21.8691L18.4697 23.515ZM15.3948 24.798C15.7607 25.0506 16.2452 25.0506 16.6112 24.798L15.475 23.152C15.7929 22.9326 16.213 22.9326 16.531 23.152L15.3948 24.798ZM14.7618 23.395C14.4433 23.737 13.9285 23.7858 13.5533 23.5268L14.6895 21.8809C14.2571 21.5824 13.6636 21.6396 13.2982 22.032L14.7618 23.395ZM13.5193 1.00021H14.4162V-0.999793H13.5193V1.00021ZM13.8707 0.823226L15.658 2.11864L16.8317 0.499269L15.0444 -0.796144L13.8707 0.823226ZM16.7521 2.21564L19.4428 0.91551L18.5726 -0.885279L15.882 0.414855L16.7521 2.21564ZM18.6344 0.91551L21.3631 2.23407L22.2333 0.433283L19.5045 -0.885279L18.6344 0.91551ZM19.4428 0.915511C19.1874 1.03893 18.8898 1.03893 18.6344 0.915514L19.5045 -0.885283C19.2102 -1.02747 18.8669 -1.02747 18.5726 -0.88528L19.4428 0.915511ZM15.658 2.11864C15.9789 2.35125 16.3996 2.38597 16.7521 2.21564L15.882 0.414855C16.1877 0.267115 16.5526 0.296962 16.8317 0.499268L15.658 2.11864ZM14.4162 1.00021C14.2231 1.00021 14.0316 0.93988 13.8707 0.823225L15.0444 -0.796142C14.8596 -0.930109 14.6391 -0.999793 14.4162 -0.999793V1.00021ZM17.2773 25C15.1567 25 13.1118 23.7026 11.5509 21.3471C9.99492 18.9991 9 15.6973 9 12H7C7 16.0347 8.08188 19.7329 9.88369 22.4519C11.6805 25.1633 14.2743 27 17.2773 27V25ZM9 12C9 8.30269 9.99492 5.00088 11.5509 2.6529C13.1118 0.297356 15.1567 -1 17.2773 -1V-3C14.2743 -3 11.6805 -1.16335 9.88369 1.54812C8.08188 4.26713 7 7.96532 7 12H9ZM17.2773 -1H27.2683V-3H17.2773V-1ZM17.2773 27H27.982V25H17.2773V27ZM17.7627 11.109C17.8005 11.1235 17.8302 11.1376 17.8489 11.147C17.8666 11.1559 17.88 11.1634 17.8804 11.1636L16.9104 12.9127C16.9133 12.9143 16.9715 12.9477 17.0477 12.9768L17.7627 11.109Z" fill="#18181B"/>
<path d="M13.1133 12.2837L12.1863 11.9085L13.1133 12.2837C13.4691 11.4046 12.6201 10.5174 11.7263 10.8341L12.0602 11.7767L11.7263 10.8341L9.66114 11.5658C9.34964 11.6762 9.10426 11.9208 8.99287 12.2319C8.99287 12.2319 8.99287 12.2319 8.99287 12.2319L8.75021 12.9098L6.23866 15.313L6.22348 15.2971C5.80347 14.8582 5.10715 14.8428 4.66822 15.2628L4.31106 15.6046C3.94169 15.958 3.88804 16.4814 4.07855 16.8815C4.10602 16.9392 4.15023 17.0572 4.15371 17.1723C4.15523 17.2224 4.14852 17.2589 4.13841 17.2865C4.12972 17.3101 4.11098 17.3489 4.05701 17.4005C4.05699 17.4006 4.05696 17.4006 4.05692 17.4006C4.05525 17.4025 4.03232 17.4278 3.89412 17.4685C3.81848 17.4907 3.73011 17.5116 3.60357 17.5403C3.59147 17.5431 3.57903 17.5459 3.56628 17.5488C3.45418 17.5741 3.31801 17.6049 3.17485 17.6424C2.48268 17.8238 1.64195 18.1586 0.687342 19.072L-0.123281 19.8477C-1.14909 20.8293 -1.18496 22.4566 -0.203386 23.4824L-0.048257 23.6445C0.933313 24.6703 2.56062 24.7062 3.58642 23.7246L4.39705 22.9489C5.35166 22.0355 5.72319 21.2103 5.93488 20.5268C5.97866 20.3855 6.01541 20.2508 6.04567 20.1399C6.04911 20.1273 6.05247 20.115 6.05575 20.103C6.08998 19.9779 6.11477 19.8905 6.14033 19.8159C6.18702 19.6797 6.21335 19.6579 6.21528 19.6563C6.21533 19.6562 6.21536 19.6562 6.21538 19.6562C6.26935 19.6045 6.30889 19.5875 6.33293 19.5799C6.36088 19.571 6.39764 19.5659 6.44769 19.5696C6.56254 19.5782 6.67845 19.6276 6.73487 19.6575C7.12622 19.8655 7.65139 19.835 8.02076 19.4815L8.37792 19.1398C8.81686 18.7197 8.83221 18.0234 8.4122 17.5845L8.39702 17.5686L10.9086 15.1654L11.5964 14.9528C11.5964 14.9528 11.5964 14.9528 11.5964 14.9528C11.9122 14.8553 12.1673 14.6209 12.2913 14.3146L11.3948 13.9517L12.2913 14.3146L13.1133 12.2837ZM8.67859 13.1098C8.67862 13.1097 8.67866 13.1096 8.67869 13.1095L8.67859 13.1098Z" fill="black" stroke="white" stroke-width="2" stroke-linecap="round" stroke-linejoin="round"/>
</g>
<defs>
<clipPath id="clip0_5140_238062">
<rect width="24" height="24" fill="white"/>
</clipPath>
</defs>
</svg>
