<svg width="24" height="24" viewBox="0 0 24 24" fill="none" xmlns="http://www.w3.org/2000/svg">
<g clip-path="url(#clip0_5140_238066)">
<path d="M12.4208 7.71043C12.4208 7.71043 13.7055 8.13865 13.7055 11.9926C13.7055 15.8466 12.4208 16.2748 12.4208 16.2748M14.9597 3H8.75835C5.5781 3 3 7.02572 3 11.9917C3 16.9577 5.5781 20.9834 8.75835 20.9834H15.4026M19.2871 11.9916C19.2871 15.9643 17.5616 19.1849 15.4331 19.1849C13.3046 19.1849 11.5792 15.9643 11.5792 11.9916C11.5792 8.01877 13.3046 4.79819 15.4331 4.79819C17.5616 4.79819 19.2871 8.01877 19.2871 11.9916ZM21 11.9917C21 16.9577 18.5076 20.9834 15.4331 20.9834C12.3586 20.9834 9.86627 16.9577 9.86627 11.9917C9.86627 7.02572 12.3586 3 15.4331 3C18.5076 3 21 7.02572 21 11.9917Z" stroke="#18181B" stroke-width="1.33"/>
<path d="M6.1732 7.7C6.09622 7.83333 5.90377 7.83333 5.8268 7.7L1.84308 0.799999C1.7661 0.666666 1.86232 0.499999 2.01628 0.499999L9.98372 0.5C10.1377 0.5 10.2339 0.666666 10.1569 0.8L6.1732 7.7Z" fill="#18181B" stroke="white" stroke-width="1.33" stroke-linejoin="round"/>
</g>
<defs>
<clipPath id="clip0_5140_238066">
<rect width="24" height="24" fill="white"/>
</clipPath>
</defs>
</svg>
