<?xml version="1.0" encoding="UTF-8"?>
<svg id="Ebene_1" data-name="Ebene 1" xmlns="http://www.w3.org/2000/svg" viewBox="0 0 24 24">
  <defs>
    <style>
      .cls-1 {
        fill: var(--figma-grey-500);
      }
    </style>
  </defs>
  <path class="cls-1" d="m18.5,22c-1.93,0-3.5-1.57-3.5-3.5,0-.54.12-1.04.34-1.5h-6.68c.22.46.34.96.34,1.5,0,1.93-1.57,3.5-3.5,3.5s-3.5-1.57-3.5-3.5c0-.61.16-1.18.43-1.68-.26-.18-.43-.48-.43-.82,0-.55.45-1,1-1h12V4H2c-.55,0-1-.45-1-1s.45-1,1-1h14c.55,0,1,.45,1,1v4h3c.27,0,.52.11.71.29l3,3c.19.19.29.44.29.71v5c0,.55-.45,1-1,1h-1.34c.22.46.34.96.34,1.5,0,1.93-1.57,3.5-3.5,3.5Zm0-5c-.83,0-1.5.67-1.5,1.5s.67,1.5,1.5,1.5,1.5-.67,1.5-1.5-.67-1.5-1.5-1.5Zm-13,0c-.83,0-1.5.67-1.5,1.5s.67,1.5,1.5,1.5,1.5-.67,1.5-1.5-.67-1.5-1.5-1.5Zm13-2h3.5v-3.59l-2.41-2.41h-2.59v6h1.5Zm-10-2.5H1c-.55,0-1-.45-1-1s.45-1,1-1h7.5c.55,0,1,.45,1,1s-.45,1-1,1Zm0-4H2c-.55,0-1-.45-1-1s.45-1,1-1h6.5c.55,0,1,.45,1,1s-.45,1-1,1Z"/>
</svg>