<svg width="24" height="24" viewBox="0 0 24 24" fill="none" xmlns="http://www.w3.org/2000/svg">
<g clip-path="url(#clip0_5150_237730)">
<path d="M9 14.6458C8.37764 13.9407 8 13.0144 8 12C8 9.79086 9.79086 8 12 8C14.2091 8 16 9.79086 16 12C16 13.0144 15.6224 13.9407 15 14.6458" stroke="#18181B" stroke-width="2" stroke-linecap="round"/>
<path d="M6.1905 17.5C4.83275 16.0663 4 14.1304 4 12C4 7.58172 7.58172 4 12 4C16.4183 4 20 7.58172 20 12C20 14.1304 19.1672 16.0663 17.8095 17.5" stroke="#18181B" stroke-width="2" stroke-linecap="round"/>
<path fill-rule="evenodd" clip-rule="evenodd" d="M11.4767 22.9139C11.2336 22.5848 10.9382 21.9117 10.4126 21.0947C10.1146 20.6326 9.37576 19.7624 9.15573 19.3204C8.96481 18.9298 8.98536 18.7547 9.03073 18.431C9.11121 17.8552 9.66257 17.4068 10.2507 17.4673C10.6951 17.5122 11.0718 17.8267 11.4108 18.1238C11.6154 18.3026 11.8671 18.6502 12.0187 18.8464C12.1582 19.0261 12.1925 19.1004 12.3415 19.3131C12.5384 19.5946 12.6 19.734 12.5247 19.4241C12.4639 18.9692 12.3646 18.1926 12.2207 17.5058C12.1111 16.985 12.0846 16.9034 11.9802 16.5036C11.8697 16.0781 11.8132 15.7801 11.7096 15.329C11.6377 15.0099 11.5084 14.3579 11.4733 13.9912C11.4245 13.4896 11.3988 12.6717 11.6993 12.2957C11.9348 12.0014 12.475 11.9125 12.8098 12.094C13.2481 12.3315 13.4972 13.0137 13.6111 13.286C13.8157 13.7757 13.9424 14.3414 14.0529 15.0842C14.1933 16.0295 14.4518 17.3417 14.4604 17.6177C14.481 17.2793 14.4022 16.5669 14.457 16.2423C14.5066 15.9479 14.7378 15.6059 15.0272 15.5133C15.272 15.4354 15.5588 15.4069 15.8114 15.4629C16.0794 15.5215 16.3619 15.7269 16.4672 15.9204C16.7771 16.4926 16.7831 17.6617 16.796 17.5993C16.8696 17.2546 16.8568 16.4724 17.0391 16.1469C17.159 15.9323 17.4646 15.7389 17.6273 15.7077C17.879 15.66 18.1881 15.6453 18.4526 15.7004C18.6658 15.7453 18.9543 16.0167 19.0322 16.1469C19.2189 16.4623 19.325 17.3545 19.3567 17.6672C19.3696 17.7965 19.4201 17.3077 19.6076 16.9923C19.9552 16.4064 21.1854 16.2927 21.2325 17.5782C21.2539 18.1779 21.2497 18.1504 21.2497 18.5539C21.2497 19.0279 21.2394 19.3131 21.2154 19.656C21.1889 20.0228 21.1152 20.8517 21.0082 21.2534C20.9346 21.5294 20.6906 22.1501 20.45 22.5224C20.45 22.5224 19.5305 23.6686 19.4303 24.1848C19.3293 24.7001 19.3627 24.7038 19.343 25.0697C19.3233 25.4346 19.4466 25.9151 19.4466 25.9151C19.4466 25.9151 18.76 26.0104 18.3901 25.9472C18.0554 25.8894 17.641 25.176 17.534 24.9578C17.3867 24.657 17.0725 24.7148 16.9501 24.9367C16.7575 25.2879 16.3431 25.9178 16.0503 25.9573C15.4784 26.0343 14.2918 25.9857 13.3628 25.9756C13.3628 25.9756 13.5212 25.0486 13.1685 24.7304C12.9074 24.4929 12.4579 24.0115 12.1891 23.7584L11.4767 22.9139Z" fill="white" stroke="white" stroke-width="4" stroke-linecap="round" stroke-linejoin="round"/>
<path fill-rule="evenodd" clip-rule="evenodd" d="M11.4767 22.9139C11.2336 22.5848 10.9382 21.9117 10.4126 21.0947C10.1146 20.6326 9.37576 19.7624 9.15573 19.3204C8.96481 18.9298 8.98536 18.7547 9.03073 18.431C9.11121 17.8552 9.66257 17.4068 10.2507 17.4673C10.6951 17.5122 11.0718 17.8267 11.4108 18.1238C11.6154 18.3026 11.8671 18.6502 12.0187 18.8464C12.1582 19.0261 12.1925 19.1004 12.3415 19.3131C12.5384 19.5946 12.6 19.734 12.5247 19.4241C12.4639 18.9692 12.3646 18.1926 12.2207 17.5058C12.1111 16.985 12.0846 16.9034 11.9802 16.5036C11.8697 16.0781 11.8132 15.7801 11.7096 15.329C11.6377 15.0099 11.5084 14.3579 11.4733 13.9912C11.4245 13.4896 11.3988 12.6717 11.6993 12.2957C11.9348 12.0014 12.475 11.9125 12.8098 12.094C13.2481 12.3315 13.4972 13.0137 13.6111 13.286C13.8157 13.7757 13.9424 14.3414 14.0529 15.0842C14.1933 16.0295 14.4518 17.3417 14.4604 17.6177C14.481 17.2793 14.4022 16.5669 14.457 16.2423C14.5066 15.9479 14.7378 15.6059 15.0272 15.5133C15.272 15.4354 15.5588 15.4069 15.8114 15.4629C16.0794 15.5215 16.3619 15.7269 16.4672 15.9204C16.7771 16.4926 16.7831 17.6617 16.796 17.5993C16.8696 17.2546 16.8568 16.4724 17.0391 16.1469C17.159 15.9323 17.4646 15.7389 17.6273 15.7077C17.879 15.66 18.1881 15.6453 18.4526 15.7004C18.6658 15.7453 18.9543 16.0167 19.0322 16.1469C19.2189 16.4623 19.325 17.3545 19.3567 17.6672C19.3696 17.7965 19.4201 17.3077 19.6076 16.9923C19.9552 16.4064 21.1854 16.2927 21.2325 17.5782C21.2539 18.1779 21.2497 18.1504 21.2497 18.5539C21.2497 19.0279 21.2394 19.3131 21.2154 19.656C21.1889 20.0228 21.1152 20.8517 21.0082 21.2534C20.9346 21.5294 20.6906 22.1501 20.45 22.5224C20.45 22.5224 19.5305 23.6686 19.4303 24.1848C19.3293 24.7001 19.3627 24.7038 19.343 25.0697C19.3233 25.4346 19.4466 25.9151 19.4466 25.9151C19.4466 25.9151 18.76 26.0104 18.3901 25.9472C18.0554 25.8894 17.641 25.176 17.534 24.9578C17.3867 24.657 17.0725 24.7148 16.9501 24.9367C16.7575 25.2879 16.3431 25.9178 16.0503 25.9573C15.4784 26.0343 14.2918 25.9857 13.3628 25.9756C13.3628 25.9756 13.5212 25.0486 13.1685 24.7304C12.9074 24.4929 12.4579 24.0115 12.1891 23.7584L11.4767 22.9139Z" fill="white" stroke="#18181B" stroke-linecap="round" stroke-linejoin="round"/>
<path fill-rule="evenodd" clip-rule="evenodd" d="M15.1875 19.2354C15.1875 18.9592 14.9637 18.7354 14.6875 18.7354C14.4114 18.7354 14.1875 18.9592 14.1875 19.2354V21.8604C14.1875 22.1365 14.4114 22.3604 14.6875 22.3604C14.9637 22.3604 15.1875 22.1365 15.1875 21.8604V19.2354ZM16.4375 18.7354C16.7137 18.7354 16.9375 18.9592 16.9375 19.2354V21.8604C16.9375 22.1365 16.7137 22.3604 16.4375 22.3604C16.1614 22.3604 15.9375 22.1365 15.9375 21.8604V19.2354C15.9375 18.9592 16.1614 18.7354 16.4375 18.7354ZM18.1875 18.7354C18.4637 18.7354 18.6875 18.9592 18.6875 19.2354V21.8604C18.6875 22.1365 18.4637 22.3604 18.1875 22.3604C17.9114 22.3604 17.6875 22.1365 17.6875 21.8604V19.2354C17.6875 18.9592 17.9114 18.7354 18.1875 18.7354Z" fill="black"/>
</g>
<defs>
<clipPath id="clip0_5150_237730">
<rect width="24" height="24" fill="white"/>
</clipPath>
</defs>
</svg>
