<svg width="24" height="24" viewBox="0 0 24 24" fill="none" xmlns="http://www.w3.org/2000/svg">
<g clip-path="url(#clip0_5150_237690)">
<path d="M8 21H16M12 17V21M4 3H20C21.1046 3 22 3.89543 22 5V15C22 16.1046 21.1046 17 20 17H4C2.89543 17 2 16.1046 2 15V5C2 3.89543 2.89543 3 4 3Z" stroke="#18181B" stroke-width="2" stroke-linecap="round" stroke-linejoin="round"/>
<path d="M6.89571 10V9.71429H6.61V9.42857H7.18143V9.71429H8.03857V9.14286H6.89571V8.85714H6.61V8.28571H6.89571V8H8.32429V8.28571H8.61V8.57143H8.03857V8.28571H7.18143V8.85714H8.32429V9.14286H8.61V9.71429H8.32429V10H6.89571Z" fill="black"/>
<path d="M9.66143 10V8.85714H9.09V8.57143H9.66143V8H10.2329V8.57143H10.8043V8.85714H10.2329V10H9.66143Z" fill="black"/>
<path d="M11.2843 10V9.71429H10.9986V9.42857H11.2843V9.14286H12.4271V8.85714H11.2843V8.57143H12.7129V8.85714H12.9986V10H11.2843ZM11.57 9.71429H12.4271V9.42857H11.57V9.71429Z" fill="black"/>
<path d="M14.05 8.85714H14.3357V9.14286H14.05V10H13.4786V8.57143H14.05V8.85714ZM15.1929 8.57143V8.85714H14.3357V8.57143H15.1929Z" fill="black"/>
<path d="M16.2443 10V8.85714H15.6729V8.57143H16.2443V8H16.8157V8.57143H17.3871V8.85714H16.8157V10H16.2443Z" fill="black"/>
<rect x="5" y="7" width="14" height="4" rx="1" stroke="#18181B"/>
<path fill-rule="evenodd" clip-rule="evenodd" d="M13.4767 22.9139C13.2336 22.5848 12.9382 21.9117 12.4126 21.0947C12.1146 20.6326 11.3758 19.7624 11.1557 19.3204C10.9648 18.9298 10.9854 18.7547 11.0307 18.431C11.1112 17.8552 11.6626 17.4068 12.2507 17.4673C12.6951 17.5122 13.0718 17.8267 13.4108 18.1238C13.6154 18.3026 13.8671 18.6502 14.0187 18.8464C14.1582 19.0261 14.1925 19.1004 14.3415 19.3131C14.5384 19.5946 14.6 19.734 14.5247 19.4241C14.4639 18.9692 14.3646 18.1926 14.2207 17.5058C14.1111 16.985 14.0846 16.9034 13.9802 16.5036C13.8697 16.0781 13.8132 15.7801 13.7096 15.329C13.6377 15.0099 13.5084 14.3579 13.4733 13.9912C13.4245 13.4896 13.3988 12.6717 13.6993 12.2957C13.9348 12.0014 14.475 11.9125 14.8098 12.094C15.2481 12.3315 15.4972 13.0137 15.6111 13.286C15.8157 13.7757 15.9424 14.3414 16.0529 15.0842C16.1933 16.0295 16.4518 17.3417 16.4604 17.6177C16.481 17.2793 16.4022 16.5669 16.457 16.2423C16.5066 15.9479 16.7378 15.6059 17.0272 15.5133C17.272 15.4354 17.5588 15.4069 17.8114 15.4629C18.0794 15.5215 18.3619 15.7269 18.4672 15.9204C18.7771 16.4926 18.7831 17.6617 18.796 17.5993C18.8696 17.2546 18.8568 16.4724 19.0391 16.1469C19.159 15.9323 19.4646 15.7389 19.6273 15.7077C19.879 15.66 20.1881 15.6453 20.4526 15.7004C20.6658 15.7453 20.9543 16.0167 21.0322 16.1469C21.2189 16.4623 21.325 17.3545 21.3567 17.6672C21.3696 17.7965 21.4201 17.3077 21.6076 16.9923C21.9552 16.4064 23.1854 16.2927 23.2325 17.5782C23.2539 18.1779 23.2497 18.1504 23.2497 18.5539C23.2497 19.0279 23.2394 19.3131 23.2154 19.656C23.1889 20.0228 23.1152 20.8517 23.0082 21.2534C22.9346 21.5294 22.6906 22.1501 22.45 22.5224C22.45 22.5224 21.5305 23.6686 21.4303 24.1848C21.3293 24.7001 21.3627 24.7038 21.343 25.0697C21.3233 25.4346 21.4466 25.9151 21.4466 25.9151C21.4466 25.9151 20.76 26.0104 20.3901 25.9472C20.0554 25.8894 19.641 25.176 19.534 24.9578C19.3867 24.657 19.0725 24.7148 18.9501 24.9367C18.7575 25.2879 18.3431 25.9178 18.0503 25.9573C17.4784 26.0343 16.2918 25.9857 15.3628 25.9756C15.3628 25.9756 15.5212 25.0486 15.1685 24.7304C14.9074 24.4929 14.4579 24.0115 14.1891 23.7584L13.4767 22.9139Z" fill="white" stroke="white" stroke-width="2" stroke-linecap="round" stroke-linejoin="round"/>
<path fill-rule="evenodd" clip-rule="evenodd" d="M13.4767 22.9139C13.2336 22.5848 12.9382 21.9117 12.4126 21.0947C12.1146 20.6326 11.3758 19.7624 11.1557 19.3204C10.9648 18.9298 10.9854 18.7547 11.0307 18.431C11.1112 17.8552 11.6626 17.4068 12.2507 17.4673C12.6951 17.5122 13.0718 17.8267 13.4108 18.1238C13.6154 18.3026 13.8671 18.6502 14.0187 18.8464C14.1582 19.0261 14.1925 19.1004 14.3415 19.3131C14.5384 19.5946 14.6 19.734 14.5247 19.4241C14.4639 18.9692 14.3646 18.1926 14.2207 17.5058C14.1111 16.985 14.0846 16.9034 13.9802 16.5036C13.8697 16.0781 13.8132 15.7801 13.7096 15.329C13.6377 15.0099 13.5084 14.3579 13.4733 13.9912C13.4245 13.4896 13.3988 12.6717 13.6993 12.2957C13.9348 12.0014 14.475 11.9125 14.8098 12.094C15.2481 12.3315 15.4972 13.0137 15.6111 13.286C15.8157 13.7757 15.9424 14.3414 16.0529 15.0842C16.1933 16.0295 16.4518 17.3417 16.4604 17.6177C16.481 17.2793 16.4022 16.5669 16.457 16.2423C16.5066 15.9479 16.7378 15.6059 17.0272 15.5133C17.272 15.4354 17.5588 15.4069 17.8114 15.4629C18.0794 15.5215 18.3619 15.7269 18.4672 15.9204C18.7771 16.4926 18.7831 17.6617 18.796 17.5993C18.8696 17.2546 18.8568 16.4724 19.0391 16.1469C19.159 15.9323 19.4646 15.7389 19.6273 15.7077C19.879 15.66 20.1881 15.6453 20.4526 15.7004C20.6658 15.7453 20.9543 16.0167 21.0322 16.1469C21.2189 16.4623 21.325 17.3545 21.3567 17.6672C21.3696 17.7965 21.4201 17.3077 21.6076 16.9923C21.9552 16.4064 23.1854 16.2927 23.2325 17.5782C23.2539 18.1779 23.2497 18.1504 23.2497 18.5539C23.2497 19.0279 23.2394 19.3131 23.2154 19.656C23.1889 20.0228 23.1152 20.8517 23.0082 21.2534C22.9346 21.5294 22.6906 22.1501 22.45 22.5224C22.45 22.5224 21.5305 23.6686 21.4303 24.1848C21.3293 24.7001 21.3627 24.7038 21.343 25.0697C21.3233 25.4346 21.4466 25.9151 21.4466 25.9151C21.4466 25.9151 20.76 26.0104 20.3901 25.9472C20.0554 25.8894 19.641 25.176 19.534 24.9578C19.3867 24.657 19.0725 24.7148 18.9501 24.9367C18.7575 25.2879 18.3431 25.9178 18.0503 25.9573C17.4784 26.0343 16.2918 25.9857 15.3628 25.9756C15.3628 25.9756 15.5212 25.0486 15.1685 24.7304C14.9074 24.4929 14.4579 24.0115 14.1891 23.7584L13.4767 22.9139Z" fill="white" stroke="#18181B" stroke-linecap="round" stroke-linejoin="round"/>
<path fill-rule="evenodd" clip-rule="evenodd" d="M17.1875 19.2354C17.1875 18.9592 16.9637 18.7354 16.6875 18.7354C16.4114 18.7354 16.1875 18.9592 16.1875 19.2354V21.8604C16.1875 22.1365 16.4114 22.3604 16.6875 22.3604C16.9637 22.3604 17.1875 22.1365 17.1875 21.8604V19.2354ZM18.4375 18.7354C18.7137 18.7354 18.9375 18.9592 18.9375 19.2354V21.8604C18.9375 22.1365 18.7137 22.3604 18.4375 22.3604C18.1614 22.3604 17.9375 22.1365 17.9375 21.8604V19.2354C17.9375 18.9592 18.1614 18.7354 18.4375 18.7354ZM20.1875 18.7354C20.4637 18.7354 20.6875 18.9592 20.6875 19.2354V21.8604C20.6875 22.1365 20.4637 22.3604 20.1875 22.3604C19.9114 22.3604 19.6875 22.1365 19.6875 21.8604V19.2354C19.6875 18.9592 19.9114 18.7354 20.1875 18.7354Z" fill="black"/>
</g>
<defs>
<clipPath id="clip0_5150_237690">
<rect width="24" height="24" fill="white"/>
</clipPath>
</defs>
</svg>
