<svg width="24" height="24" viewBox="0 0 24 24" fill="none" xmlns="http://www.w3.org/2000/svg">
<path d="M6.8957 10V9.71429H6.60999V9.42857H7.18141V9.71429H8.03856V9.14286H6.8957V8.85714H6.60999V8.28571H6.8957V8H8.32427V8.28571H8.60999V8.57143H8.03856V8.28571H7.18141V8.85714H8.32427V9.14286H8.60999V9.71429H8.32427V10H6.8957Z" fill="black"/>
<path d="M9.66141 10V8.85714H9.08999V8.57143H9.66141V8H10.2328V8.57143H10.8043V8.85714H10.2328V10H9.66141Z" fill="black"/>
<path d="M11.2843 10V9.71429H10.9986V9.42857H11.2843V9.14286H12.4271V8.85714H11.2843V8.57143H12.7128V8.85714H12.9986V10H11.2843ZM11.57 9.71429H12.4271V9.42857H11.57V9.71429Z" fill="black"/>
<path d="M14.05 8.85714H14.3357V9.14286H14.05V10H13.4786V8.57143H14.05V8.85714ZM15.1928 8.57143V8.85714H14.3357V8.57143H15.1928Z" fill="black"/>
<path d="M16.2443 10V8.85714H15.6728V8.57143H16.2443V8H16.8157V8.57143H17.3871V8.85714H16.8157V10H16.2443Z" fill="black"/>
<rect x="5" y="7" width="14" height="4" rx="1" stroke="#18181B"/>
<path d="M19.5278 12.9618C19.6887 12.8752 19.7692 12.8319 19.7896 12.7797C19.8072 12.7345 19.8022 12.6836 19.7761 12.6426C19.7461 12.5954 19.6587 12.5685 19.4841 12.5147L16.0663 11.4619C15.9236 11.4179 15.8523 11.396 15.8041 11.4137C15.7621 11.4291 15.729 11.4621 15.7136 11.5041C15.696 11.5523 15.7179 11.6236 15.7619 11.7663L16.8147 15.1841C16.8685 15.3588 16.8954 15.4461 16.9426 15.4762C16.9835 15.5023 17.0345 15.5072 17.0797 15.4896C17.1318 15.4692 17.1752 15.3888 17.2618 15.2278L18.0203 13.8193C18.0332 13.7954 18.0396 13.7834 18.0479 13.7729C18.0552 13.7636 18.0636 13.7552 18.0729 13.7479C18.0834 13.7396 18.0953 13.7332 18.1193 13.7203L19.5278 12.9618Z" fill="white"/>
<path d="M15.9308 9.9566V9.5M14.7316 10.4317L14.4088 10.1088M14.7316 12.8484L14.4088 13.1712M17.1484 10.4317L17.4712 10.1088M14.2566 11.6308H13.8M18.0203 13.8193L17.2618 15.2278C17.1752 15.3888 17.1318 15.4692 17.0797 15.4896C17.0345 15.5072 16.9835 15.5023 16.9426 15.4762C16.8954 15.4461 16.8685 15.3588 16.8147 15.1841L15.7619 11.7663C15.7179 11.6236 15.696 11.5523 15.7136 11.5041C15.729 11.4621 15.7621 11.4291 15.8041 11.4137C15.8523 11.396 15.9236 11.4179 16.0663 11.4619L19.4841 12.5147C19.6587 12.5685 19.7461 12.5954 19.7761 12.6426C19.8022 12.6836 19.8072 12.7345 19.7896 12.7797C19.7692 12.8319 19.6887 12.8752 19.5278 12.9618L18.1193 13.7203C18.0953 13.7332 18.0834 13.7396 18.0729 13.7479C18.0636 13.7552 18.0552 13.7636 18.0479 13.7729C18.0396 13.7834 18.0332 13.7954 18.0203 13.8193Z" stroke="white" stroke-width="1.6" stroke-linecap="round" stroke-linejoin="round"/>
<path d="M19.5278 12.9618C19.6887 12.8752 19.7692 12.8319 19.7896 12.7797C19.8072 12.7345 19.8022 12.6836 19.7761 12.6426C19.7461 12.5954 19.6587 12.5685 19.4841 12.5147L16.0663 11.4619C15.9236 11.4179 15.8523 11.396 15.8041 11.4137C15.7621 11.4291 15.729 11.4621 15.7136 11.5041C15.696 11.5523 15.7179 11.6236 15.7619 11.7663L16.8147 15.1841C16.8685 15.3588 16.8954 15.4461 16.9426 15.4762C16.9835 15.5023 17.0345 15.5072 17.0797 15.4896C17.1318 15.4692 17.1752 15.3888 17.2618 15.2278L18.0203 13.8193C18.0332 13.7954 18.0396 13.7834 18.0479 13.7729C18.0552 13.7636 18.0636 13.7552 18.0729 13.7479C18.0834 13.7396 18.0953 13.7332 18.1193 13.7203L19.5278 12.9618Z" fill="white"/>
<path d="M15.9308 9.9566V9.5M14.7316 10.4317L14.4088 10.1088M14.7316 12.8484L14.4088 13.1712M17.1484 10.4317L17.4712 10.1088M14.2566 11.6308H13.8M18.0203 13.8193L17.2618 15.2279C17.1752 15.3888 17.1318 15.4692 17.0797 15.4896C17.0345 15.5072 16.9835 15.5023 16.9426 15.4762C16.8954 15.4461 16.8685 15.3588 16.8147 15.1841L15.7619 11.7663C15.7179 11.6236 15.696 11.5523 15.7136 11.5041C15.729 11.4621 15.7621 11.4291 15.8041 11.4137C15.8523 11.396 15.9236 11.4179 16.0663 11.4619L19.4841 12.5147C19.6587 12.5685 19.7461 12.5954 19.7761 12.6426C19.8022 12.6836 19.8072 12.7345 19.7896 12.7797C19.7692 12.8319 19.6887 12.8752 19.5278 12.9618L18.1193 13.7203C18.0953 13.7332 18.0834 13.7396 18.0729 13.7479C18.0636 13.7552 18.0552 13.7636 18.0479 13.7729C18.0396 13.7834 18.0332 13.7954 18.0203 13.8193Z" stroke="#18181B" stroke-width="0.75" stroke-linecap="round" stroke-linejoin="round"/>
<path d="M8 21H16M12 17V21M4 3H20C21.1046 3 22 3.89543 22 5V15C22 16.1046 21.1046 17 20 17H4C2.89543 17 2 16.1046 2 15V5C2 3.89543 2.89543 3 4 3Z" stroke="#18181B" stroke-width="2" stroke-linecap="round" stroke-linejoin="round"/>
</svg>
