<?xml version="1.0" encoding="UTF-8"?>
<svg id="Ebene_1" data-name="Ebene 1" xmlns="http://www.w3.org/2000/svg" viewBox="0 0 24 24">
  <path d="m5.96,13h-.46c-.55,0-1,.45-1,1s.45,1,1,1h.46c.55,0,1-.45,1-1s-.45-1-1-1Z"/>
  <path d="m5.96,9h-.46c-.55,0-1,.45-1,1s.45,1,1,1h.46c.55,0,1-.45,1-1s-.45-1-1-1Z"/>
  <path d="m19.5,6c0-.55-.45-1-1-1h-10.21c-.55,0-1,.45-1,1s.45,1,1,1h10.21c.55,0,1-.45,1-1Z"/>
  <path d="m16.95,10c0-.55-.45-1-1-1h-7.66c-.55,0-1,.45-1,1s.45,1,1,1h7.66c.55,0,1-.45,1-1Z"/>
  <path d="m8.29,13c-.55,0-1,.45-1,1s.45,1,1,1h3.21c.55,0,1-.45,1-1s-.45-1-1-1h-3.21Z"/>
  <path d="m5.96,5h-.46c-.55,0-1,.45-1,1s.45,1,1,1h.46c.55,0,1-.45,1-1s-.45-1-1-1Z"/>
  <path d="m12.35,16.47c.23.02.44.08.63.16-.06-.23-.1-.42-.15-.63H4c-.55,0-1-.45-1-1V5c0-.55.45-1,1-1h16c.55,0,1,.45,1,1v9.85c.4.2.75.54.89.79t0,0c.31-.08.64-.09.95,0,.03,0,.05.02.08.03.05-.21.08-.43.08-.65V5c0-1.65-1.35-3-3-3H4c-1.65,0-3,1.35-3,3v10c0,1.65,1.35,3,3,3h6.11c.28-.96,1.21-1.63,2.24-1.53Z"/>
  <path d="m11.1,21c-.27-.36-.53-.7-.71-1h-2.39c-.55,0-1,.45-1,1s.45,1,1,1h3.79c-.07-.12-.14-.24-.22-.36-.11-.17-.29-.4-.47-.64Z"/>
  <path d="m23.73,17.56c-.03-.75-.41-1.29-1.01-1.45-.37-.09-.78-.02-1.1.18-.05-.17-.1-.3-.16-.4-.12-.2-.5-.59-.91-.68-.3-.06-.67-.06-1.02,0-.2.04-.47.18-.68.38-.2-.29-.57-.54-.93-.62-.32-.07-.69-.05-1.04.06-.11.03-.21.09-.3.15,0-.06-.02-.12-.03-.18-.13-.85-.27-1.43-.5-1.98-.15-.37-.44-1.07-1-1.37-.56-.3-1.35-.15-1.74.33-.32.39-.43,1.09-.33,2.05.04.39.17,1.07.25,1.4l.09.41c.06.26.11.49.18.78l.04.16c.07.27.1.39.19.82.01.05.02.11.03.16l-.02-.02c-.33-.29-.82-.72-1.44-.78-.86-.09-1.65.54-1.77,1.39-.06.4-.07.68.17,1.18.15.31.48.74.79,1.15.19.25.38.49.49.67.27.42.48.8.65,1.11.17.31.31.56.43.73,0,0,.01.02.02.03l.65.76h1.4s-.09-.09-.14-.14c-.17-.17-.34-.34-.42-.42l-.7-.83c-.1-.14-.21-.35-.35-.61-.18-.33-.4-.73-.69-1.17-.12-.19-.32-.46-.53-.73-.27-.36-.58-.77-.69-.99-.13-.26-.12-.32-.08-.6.04-.32.34-.57.68-.53.28.03.58.27.88.54.13.12.33.37.45.54l.09.11c.07.09.11.15.16.23l.24.36c.09.13.33.49.73.32.4-.18.3-.59.27-.7l-.02-.13c-.06-.47-.16-1.18-.29-1.82-.1-.46-.13-.59-.21-.87l-.04-.15c-.07-.27-.12-.49-.17-.74l-.09-.42c-.07-.32-.19-.95-.23-1.28-.08-.78.02-1.21.12-1.33.08-.09.35-.15.48-.08.25.13.47.67.58.95.17.41.29.91.41,1.68.06.42.15.91.23,1.36.08.45.17,1,.18,1.12,0,.27.23.48.49.48.3,0,.49-.2.51-.47,0-.15,0-.38,0-.61-.01-.25-.02-.57,0-.71.03-.15.16-.31.23-.34.18-.06.37-.07.53-.04.14.03.29.15.32.21.13.24.22.7.26,1.38.02.25.22.55.47.56.24.01.47-.15.52-.4.03-.14.05-.33.07-.54.02-.23.06-.65.12-.77.04-.07.19-.17.25-.19.22-.04.46-.05.62-.01.07.02.22.16.26.22.06.1.18.53.26,1.31.02.24.22.45.47.47.19,0,.45-.06.55-.48.03-.11.08-.33.16-.46.07-.11.27-.21.44-.17.2.05.25.31.26.51.02.5.02.55.02.8v.16c0,.46,0,.74-.03,1.07-.04.53-.11,1.21-.19,1.5-.07.25-.29.82-.47,1.09-.22.28-.93,1.19-1.09,1.79h1.08c.17-.32.51-.8.83-1.21.27-.42.53-1.09.62-1.41.13-.5.21-1.49.22-1.69.03-.35.04-.65.04-1.14v-.15c0-.26,0-.32-.02-.84Z"/>
  <path d="m16.69,18.74c-.28,0-.5.22-.5.5v2.62c0,.28.22.5.5.5s.5-.22.5-.5v-2.62c0-.28-.22-.5-.5-.5Z"/>
  <path d="m18.44,18.74c-.28,0-.5.22-.5.5v2.62c0,.28.22.5.5.5s.5-.22.5-.5v-2.62c0-.28-.22-.5-.5-.5Z"/>
  <path d="m20.19,18.74c-.28,0-.5.22-.5.5v2.62c0,.28.22.5.5.5s.5-.22.5-.5v-2.62c0-.28-.22-.5-.5-.5Z"/>
</svg>