<?xml version="1.0" encoding="UTF-8"?>
<svg id="Ebene_1" data-name="Ebene 1" xmlns="http://www.w3.org/2000/svg" viewBox="0 0 24 24">
  <defs>
    <style>
      .cls-1 {
        fill: var(--figma-grey-500);
      }
    </style>
  </defs>
  <path class="cls-1" d="m19.47,21.13c-.26,0-.53-.1-.72-.31-.38-.4-.37-1.03.03-1.41,2.08-1.98,3.22-4.61,3.22-7.41s-1.14-5.43-3.22-7.41c-.4-.38-.41-1.01-.03-1.41.38-.4,1.01-.41,1.41-.03,2.44,2.33,3.84,5.55,3.84,8.85s-1.4,6.53-3.84,8.85c-.19.18-.44.28-.69.28Zm-14.94,0c-.25,0-.5-.09-.69-.28C1.4,18.53,0,15.3,0,12S1.4,5.47,3.84,3.15c.4-.38,1.03-.37,1.41.03.38.4.37,1.03-.03,1.41-2.08,1.98-3.22,4.61-3.22,7.41s1.14,5.42,3.22,7.41c.4.38.41,1.01.03,1.41-.2.21-.46.31-.72.31Zm11.2-3.56c-.26,0-.53-.1-.72-.31-.38-.4-.37-1.03.03-1.41,1.08-1.03,1.68-2.4,1.68-3.85s-.6-2.82-1.68-3.85c-.4-.38-.41-1.01-.03-1.41.38-.4,1.01-.41,1.41-.03,1.46,1.39,2.3,3.32,2.3,5.3s-.84,3.91-2.3,5.3c-.19.18-.44.28-.69.28Zm-7.47,0c-.25,0-.5-.09-.69-.28-1.46-1.39-2.3-3.32-2.3-5.3s.84-3.91,2.3-5.3c.4-.38,1.03-.37,1.41.03.38.4.37,1.03-.03,1.41-1.08,1.03-1.68,2.4-1.68,3.85s.6,2.82,1.68,3.85c.4.38.41,1.01.03,1.41-.2.21-.46.31-.72.31Zm3.74-3.85c-.44,0-.88-.16-1.22-.49s-.53-.76-.53-1.23c0-.47.19-.91.53-1.23.69-.65,1.76-.65,2.44,0,.34.32.53.76.53,1.23,0,.47-.19.91-.53,1.23h0c-.34.33-.78.49-1.22.49Z"/>
</svg>