<svg width="24" height="26" viewBox="0 0 24 26" fill="none" xmlns="http://www.w3.org/2000/svg">
<path d="M20.7882 9.37805L21.3966 9.64657L21.3994 9.64001L20.7882 9.37805ZM20.9856 10.4672L20.5102 10.9322L20.5154 10.9374L20.9856 10.4672ZM21.0215 10.5031L20.5513 10.9733L20.5516 10.9736L21.0215 10.5031ZM21.0215 12.1967L20.5516 11.7262L20.5511 11.7267L21.0215 12.1967ZM19.328 12.1967L19.7985 11.7267L19.7982 11.7264L19.328 12.1967ZM19.2921 12.1608L19.7623 11.6905L19.7571 11.6854L19.2921 12.1608ZM18.2029 11.9633L18.4649 12.5745L18.4714 12.5717L18.2029 11.9633ZM17.6045 12.8669L16.9395 12.8643V12.8669H17.6045ZM15.2108 12.9148H15.8758C15.8758 12.9096 15.8757 12.9044 15.8756 12.8992L15.2108 12.9148ZM14.5645 12.0112L14.296 12.6195C14.3088 12.6252 14.3218 12.6304 14.3349 12.6353L14.5645 12.0112ZM13.4753 12.2086L13.0103 11.7332L13.0051 11.7384L13.4753 12.2086ZM13.4394 12.2445L12.9692 11.7743L12.9689 11.7746L13.4394 12.2445ZM11.7458 12.2445L12.2163 11.7746L12.2158 11.7741L11.7458 12.2445ZM11.7458 10.551L12.2158 11.0215L12.2161 11.0212L11.7458 10.551ZM11.7818 10.5151L12.252 10.9853L12.2571 10.9801L11.7818 10.5151ZM11.9792 9.42592L11.368 9.6879L11.3709 9.69443L11.9792 9.42592ZM11.6169 8.99165L11.984 8.43721L11.6169 8.99165ZM11.0756 8.82749L11.0783 8.16249H11.0756V8.82749ZM10.9739 6.43376V7.09876V6.43376ZM11.0277 6.43376V7.09876C11.0329 7.09876 11.0381 7.0987 11.0433 7.09858L11.0277 6.43376ZM11.9314 5.78746L11.323 5.51895C11.3173 5.53177 11.3121 5.54476 11.3072 5.55791L11.9314 5.78746ZM11.7339 4.69831L12.2093 4.23327L12.2041 4.22809L11.7339 4.69831ZM11.698 4.6624L12.1682 4.19218L12.1679 4.19192L11.698 4.6624ZM11.698 2.96884L12.1679 3.43933L12.1685 3.43881L11.698 2.96884ZM13.3915 2.96884L12.921 3.43881L12.9213 3.43907L13.3915 2.96884ZM13.4274 3.00475L12.9572 3.47501L12.9624 3.48013L13.4274 3.00475ZM14.5166 3.20223V2.53723C14.4241 2.53723 14.3327 2.55651 14.2481 2.59385L14.5166 3.20223ZM14.5645 3.20223V3.86723C14.6545 3.86723 14.7436 3.84894 14.8264 3.81346L14.5645 3.20223ZM15.1629 2.2986L15.8279 2.30125V2.2986H15.1629ZM16.3598 1V0.335V1ZM17.2061 1.35055L16.7358 1.82078L17.2061 1.35055ZM17.5566 2.25072H16.8916L16.8916 2.25338L17.5566 2.25072ZM18.1551 3.15436L18.4236 2.54594L18.417 2.54313L18.1551 3.15436ZM19.2442 2.95687L19.7092 3.43229L19.7144 3.42709L19.2442 2.95687ZM19.2801 2.92097L19.7503 3.39119L19.7506 3.39093L19.2801 2.92097ZM20.1269 2.56994V3.23494V2.56994ZM20.9737 2.92097L20.5032 3.39093L20.5037 3.39145L20.9737 2.92097ZM20.9737 4.61453L20.5037 4.14404L20.5034 4.14431L20.9737 4.61453ZM20.9378 4.65044L20.4675 4.18018L20.4624 4.18542L20.9378 4.65044ZM20.7403 5.73958H21.4053C21.4053 5.64712 21.386 5.55567 21.3487 5.47108L20.7403 5.73958ZM20.7403 5.78746H20.0753C20.0753 5.87752 20.0936 5.96664 20.1291 6.04942L20.7403 5.78746ZM21.6439 6.38589L21.6413 7.05089H21.6439V6.38589ZM21.6918 8.77962V8.11461L21.6891 8.11462L21.6918 8.77962ZM21.1505 8.94377L20.7833 8.38933L21.1505 8.94377ZM6.97001 15.2638L6.95536 15.9286H6.95536L6.97001 15.2638ZM6.30621 15.2959L6.38359 15.9564L6.38432 15.9563L6.30621 15.2959ZM1.96861 15.8041L1.89123 15.1436L1.89122 15.1436L1.96861 15.8041ZM1.00002 16.9004H1.66504L1.66501 16.8961L1.00002 16.9004ZM2.36333 22.5828L2.20213 21.9376L2.20141 21.9378L2.36333 22.5828ZM4.76017 21.9839L4.92137 22.6291L4.92371 22.6285L4.76017 21.9839ZM6.58743 22.2031L6.27618 22.7907L6.27765 22.7915L6.58743 22.2031ZM11.1891 24.6256L10.8793 25.214L10.8809 25.2149L11.1891 24.6256ZM14.2369 24.6256L13.9318 24.0347L13.9288 24.0363L14.2369 24.6256ZM22.0206 20.6056L22.3258 21.1965L22.3282 21.1952L22.0206 20.6056ZM22.7479 18.293L22.1582 18.6002L22.1583 18.6005L22.7479 18.293ZM22.2804 17.7334L22.6882 17.2081C22.6642 17.1895 22.639 17.1726 22.6127 17.1574L22.2804 17.7334ZM22.2619 17.7227L21.8545 18.2483C21.8783 18.2668 21.9034 18.2836 21.9296 18.2987L22.2619 17.7227ZM20.8001 17.4194L20.6355 16.775L20.6334 16.7756L20.8001 17.4194ZM14.0249 17.4522L13.9768 16.7889L13.9765 16.789L14.0249 17.4522ZM13.2241 17.5107L13.2658 18.1744L13.2726 18.1739L13.2241 17.5107ZM12.329 17.3387L12.6131 16.7374L12.6128 16.7373L12.329 17.3387ZM8.89006 15.7163L9.1738 15.1149L9.17361 15.1148L8.89006 15.7163ZM14.3394 20.4316L14.5781 21.0523C14.5949 21.0458 14.6114 21.0387 14.6276 21.0309L14.3394 20.4316ZM12.1287 20.759L12.2302 20.1018C12.2253 20.1011 12.2205 20.1004 12.2156 20.0997L12.1287 20.759ZM15.5674 19.8469L15.9154 20.4135C15.9326 20.4029 15.9494 20.3915 15.9656 20.3794L15.5674 19.8469ZM11.1891 20.5251L10.9309 21.138C10.945 21.1439 10.9594 21.1494 10.9739 21.1543L11.1891 20.5251ZM9.49128 19.1117C9.16279 18.9475 8.76334 19.0806 8.59909 19.4091C8.43484 19.7376 8.56799 20.1371 8.89649 20.3013L9.49128 19.1117ZM17.4901 7.58275C17.4901 8.207 16.984 8.71305 16.3598 8.71305V10.043C17.7185 10.043 18.8201 8.94154 18.8201 7.58275H17.4901ZM16.3598 8.71305C15.7355 8.71305 15.2295 8.207 15.2295 7.58275H13.8995C13.8995 8.94154 15.001 10.043 16.3598 10.043V8.71305ZM15.2295 7.58275C15.2295 6.95851 15.7355 6.45246 16.3598 6.45246V5.12246C15.001 5.12246 13.8995 6.22397 13.8995 7.58275H15.2295ZM16.3598 6.45246C16.984 6.45246 17.4901 6.95851 17.4901 7.58275H18.8201C18.8201 6.22397 17.7185 5.12246 16.3598 5.12246V6.45246ZM20.1798 9.10955C20.0465 9.4116 20.0067 9.74667 20.0656 10.0715L21.3743 9.83425C21.3628 9.77087 21.3705 9.70549 21.3965 9.64655L20.1798 9.10955ZM20.0656 10.0715C20.1245 10.3964 20.2794 10.6962 20.5103 10.9322L21.461 10.0022C21.416 9.95613 21.3858 9.89764 21.3743 9.83425L20.0656 10.0715ZM20.5154 10.9374L20.5513 10.9733L21.4918 10.0329L21.4559 9.99696L20.5154 10.9374ZM20.5516 10.9736C20.601 11.023 20.6403 11.0816 20.667 11.1462L21.8956 10.6369C21.8019 10.4109 21.6646 10.2055 21.4915 10.0326L20.5516 10.9736ZM20.667 11.1462C20.6938 11.2108 20.7076 11.28 20.7076 11.3499H22.0376C22.0376 11.1052 21.9893 10.8629 21.8956 10.6369L20.667 11.1462ZM20.7076 11.3499C20.7076 11.4198 20.6938 11.489 20.667 11.5536L21.8956 12.0629C21.9893 11.8368 22.0376 11.5946 22.0376 11.3499H20.7076ZM20.667 11.5536C20.6403 11.6181 20.601 11.6768 20.5516 11.7262L21.4915 12.6672C21.6646 12.4942 21.8019 12.2889 21.8956 12.0629L20.667 11.5536ZM20.5511 11.7267C20.5017 11.7762 20.443 11.8154 20.3784 11.8421L20.8877 13.0708C21.1138 12.9771 21.3191 12.8397 21.492 12.6666L20.5511 11.7267ZM20.3784 11.8421C20.3139 11.8689 20.2447 11.8827 20.1748 11.8827V13.2127C20.4194 13.2127 20.6617 13.1645 20.8877 13.0708L20.3784 11.8421ZM20.1748 11.8827C20.1049 11.8827 20.0357 11.8689 19.9711 11.8421L19.4618 13.0708C19.6878 13.1645 19.9301 13.2127 20.1748 13.2127V11.8827ZM19.9711 11.8421C19.9065 11.8154 19.8479 11.7762 19.7985 11.7267L18.8575 12.6666C19.0304 12.8397 19.2358 12.9771 19.4618 13.0708L19.9711 11.8421ZM19.7982 11.7264L19.7623 11.6905L18.8218 12.631L18.8577 12.6669L19.7982 11.7264ZM19.7571 11.6854C19.5211 11.4545 19.2213 11.2996 18.8964 11.2407L18.6591 12.5494C18.7225 12.5609 18.781 12.5911 18.8271 12.6361L19.7571 11.6854ZM18.8964 11.2407C18.5715 11.1818 18.2365 11.2216 17.9344 11.3549L18.4714 12.5717C18.5304 12.5456 18.5957 12.5379 18.6591 12.5494L18.8964 11.2407ZM17.941 11.352C17.6448 11.479 17.3921 11.6898 17.2142 11.9585L18.3231 12.6928C18.3578 12.6404 18.4071 12.5993 18.4649 12.5745L17.941 11.352ZM17.2142 11.9585C17.0363 12.2271 16.9408 12.542 16.9395 12.8643L18.2695 12.8696C18.2697 12.8067 18.2884 12.7453 18.3231 12.6928L17.2142 11.9585ZM16.9395 12.8669V12.9686H18.2695V12.8669H16.9395ZM16.9395 12.9686C16.9395 13.1097 16.8835 13.245 16.7837 13.3447L17.7242 14.2852C18.0733 13.936 18.2695 13.4624 18.2695 12.9686H16.9395ZM16.7837 13.3447C16.684 13.4445 16.5487 13.5005 16.4076 13.5005V14.8305C16.9014 14.8305 17.375 14.6343 17.7242 14.2852L16.7837 13.3447ZM16.4076 13.5005C16.2666 13.5005 16.1313 13.4445 16.0315 13.3447L15.0911 14.2852C15.4403 14.6343 15.9138 14.8305 16.4076 14.8305V13.5005ZM16.0315 13.3447C15.9318 13.245 15.8758 13.1097 15.8758 12.9686H14.5458C14.5458 13.4624 14.7419 13.936 15.0911 14.2852L16.0315 13.3447ZM15.8758 12.9686V12.9148H14.5458V12.9686H15.8758ZM15.8756 12.8992C15.8678 12.5678 15.7605 12.2463 15.5676 11.9766L14.4859 12.7503C14.5235 12.8029 14.5444 12.8657 14.5459 12.9303L15.8756 12.8992ZM15.5676 11.9766C15.3748 11.7069 15.1052 11.5015 14.794 11.387L14.3349 12.6353C14.3956 12.6576 14.4482 12.6977 14.4859 12.7503L15.5676 11.9766ZM14.833 11.4028C14.5309 11.2695 14.1958 11.2297 13.871 11.2886L14.1083 12.5973C14.1716 12.5858 14.237 12.5935 14.296 12.6195L14.833 11.4028ZM13.871 11.2886C13.5461 11.3475 13.2463 11.5024 13.0103 11.7332L13.9403 12.684C13.9864 12.639 14.0449 12.6088 14.1083 12.5973L13.871 11.2886ZM13.0051 11.7384L12.9692 11.7743L13.9096 12.7148L13.9455 12.6789L13.0051 11.7384ZM12.9689 11.7746C12.9195 11.824 12.8609 11.8633 12.7963 11.89L13.3056 13.1186C13.5316 13.0249 13.737 12.8876 13.9099 12.7145L12.9689 11.7746ZM12.7963 11.89C12.7317 11.9168 12.6625 11.9306 12.5926 11.9306V13.2606C12.8373 13.2606 13.0796 13.2123 13.3056 13.1186L12.7963 11.89ZM12.5926 11.9306C12.5227 11.9306 12.4535 11.9168 12.389 11.89L11.8796 13.1186C12.1057 13.2123 12.3479 13.2606 12.5926 13.2606V11.9306ZM12.389 11.89C12.3244 11.8633 12.2657 11.824 12.2163 11.7746L11.2754 12.7145C11.4483 12.8876 11.6536 13.0249 11.8796 13.1186L12.389 11.89ZM12.2158 11.7741C12.1664 11.7247 12.1271 11.666 12.1004 11.6014L10.8717 12.1107C10.9654 12.3368 11.1028 12.5421 11.2759 12.715L12.2158 11.7741ZM12.1004 11.6014C12.0736 11.5369 12.0598 11.4677 12.0598 11.3978H10.7298C10.7298 11.6424 10.778 11.8847 10.8717 12.1107L12.1004 11.6014ZM12.0598 11.3978C12.0598 11.3279 12.0736 11.2587 12.1004 11.1941L10.8717 10.6848C10.778 10.9108 10.7298 11.1531 10.7298 11.3978H12.0598ZM12.1004 11.1941C12.1271 11.1295 12.1664 11.0709 12.2158 11.0215L11.2759 10.0805C11.1028 10.2534 10.9654 10.4587 10.8717 10.6848L12.1004 11.1941ZM12.2161 11.0212L12.252 10.9853L11.3115 10.0448L11.2756 10.0807L12.2161 11.0212ZM12.2571 10.9801C12.488 10.7441 12.6429 10.4443 12.7018 10.1194L11.3931 9.88213C11.3816 9.94552 11.3514 10.004 11.3064 10.0501L12.2571 10.9801ZM12.7018 10.1194C12.7607 9.79455 12.7209 9.45948 12.5876 9.15742L11.3709 9.69443C11.3969 9.75336 11.4046 9.81874 11.3931 9.88213L12.7018 10.1194ZM12.5905 9.16396C12.4635 8.86776 12.2527 8.61514 11.984 8.43721L11.2497 9.54609C11.3021 9.58081 11.3432 9.6301 11.368 9.68789L12.5905 9.16396ZM11.984 8.43721C11.7154 8.25927 11.4005 8.16378 11.0783 8.1625L11.0729 9.49249C11.1358 9.49274 11.1973 9.51137 11.2497 9.54609L11.984 8.43721ZM11.0756 8.16249H10.9739V9.49249H11.0756V8.16249ZM10.9739 8.16249C10.8328 8.16249 10.6975 8.10646 10.5978 8.00671L9.65733 8.94716C10.0065 9.29633 10.4801 9.49249 10.9739 9.49249V8.16249ZM10.5978 8.00671C10.498 7.90697 10.442 7.77169 10.442 7.63063H9.112C9.112 8.12442 9.30816 8.598 9.65733 8.94716L10.5978 8.00671ZM10.442 7.63063C10.442 7.48957 10.498 7.35429 10.5978 7.25454L9.65733 6.31409C9.30816 6.66326 9.112 7.13683 9.112 7.63063H10.442ZM10.5978 7.25454C10.6975 7.1548 10.8328 7.09876 10.9739 7.09876V5.76876C10.4801 5.76876 10.0065 5.96492 9.65733 6.31409L10.5978 7.25454ZM10.9739 7.09876H11.0277V5.76876H10.9739V7.09876ZM11.0433 7.09858C11.3748 7.09083 11.6962 6.98353 11.9659 6.79064L11.1922 5.70886C11.1396 5.7465 11.0769 5.76743 11.0122 5.76894L11.0433 7.09858ZM11.9659 6.79064C12.2356 6.59775 12.441 6.32819 12.5555 6.017L11.3072 5.55791C11.2849 5.61863 11.2448 5.67122 11.1922 5.70886L11.9659 6.79064ZM12.5397 6.05596C12.6731 5.7539 12.7128 5.41884 12.6539 5.09397L11.3453 5.33125C11.3567 5.39464 11.349 5.46002 11.323 5.51895L12.5397 6.05596ZM12.6539 5.09397C12.595 4.7691 12.4401 4.46932 12.2093 4.2333L11.2585 5.16332C11.3035 5.20938 11.3338 5.26787 11.3453 5.33125L12.6539 5.09397ZM12.2041 4.22809L12.1682 4.19218L11.2277 5.13263L11.2636 5.16853L12.2041 4.22809ZM12.1679 4.19192C12.1185 4.14252 12.0793 4.08386 12.0525 4.0193L10.8239 4.52861C10.9176 4.75463 11.0549 4.95998 11.228 5.13289L12.1679 4.19192ZM12.0525 4.0193C12.0257 3.95473 12.0119 3.88552 12.0119 3.81562H10.6819C10.6819 4.0603 10.7302 4.30258 10.8239 4.52861L12.0525 4.0193ZM12.0119 3.81562C12.0119 3.74573 12.0257 3.67652 12.0525 3.61195L10.8239 3.10264C10.7302 3.32867 10.6819 3.57094 10.6819 3.81562H12.0119ZM12.0525 3.61195C12.0793 3.54738 12.1185 3.48873 12.1679 3.43933L11.228 2.49835C11.0549 2.67127 10.9176 2.87661 10.8239 3.10264L12.0525 3.61195ZM12.1685 3.43881C12.2179 3.38936 12.2765 3.35013 12.3411 3.32336L11.8318 2.09474C11.6057 2.18844 11.4004 2.32577 11.2275 2.49888L12.1685 3.43881ZM12.3411 3.32336C12.4056 3.29659 12.4749 3.28282 12.5448 3.28282V1.95282C12.3001 1.95282 12.0578 2.00104 11.8318 2.09474L12.3411 3.32336ZM12.5448 3.28282C12.6146 3.28282 12.6839 3.29659 12.7484 3.32336L13.2577 2.09474C13.0317 2.00104 12.7894 1.95282 12.5448 1.95282V3.28282ZM12.7484 3.32336C12.813 3.35012 12.8716 3.38935 12.921 3.43881L13.862 2.49888C13.6891 2.32577 13.4838 2.18844 13.2577 2.09474L12.7484 3.32336ZM12.9213 3.43907L12.9572 3.47498L13.8977 2.53452L13.8618 2.49861L12.9213 3.43907ZM12.9624 3.48013C13.1985 3.71101 13.4982 3.86588 13.8231 3.92478L14.0604 2.61612C13.997 2.60463 13.9385 2.57441 13.8925 2.52936L12.9624 3.48013ZM13.8231 3.92478C14.148 3.98369 14.483 3.94392 14.7851 3.81061L14.2481 2.59385C14.1891 2.61986 14.1238 2.62762 14.0604 2.61612L13.8231 3.92478ZM14.5166 3.86723H14.5645V2.53723H14.5166V3.86723ZM14.8264 3.81346C15.1226 3.68651 15.3752 3.47572 15.5532 3.20704L14.4443 2.47268C14.4096 2.5251 14.3603 2.56623 14.3025 2.591L14.8264 3.81346ZM15.5532 3.20704C15.7311 2.93836 15.8266 2.62351 15.8279 2.30125L14.4979 2.29595C14.4976 2.35882 14.479 2.42026 14.4443 2.47268L15.5532 3.20704ZM15.8279 2.2986V2.19686H14.4979V2.2986H15.8279ZM15.8279 2.19686C15.8279 2.05581 15.8839 1.92052 15.9837 1.82078L15.0432 0.880327C14.6941 1.22949 14.4979 1.70307 14.4979 2.19686H15.8279ZM15.9837 1.82078C16.0834 1.72104 16.2187 1.665 16.3598 1.665V0.335C15.866 0.335 15.3924 0.53116 15.0432 0.880327L15.9837 1.82078ZM16.3598 1.665C16.5008 1.665 16.6361 1.72104 16.7358 1.82078L17.6763 0.880327C17.3271 0.53116 16.8536 0.335 16.3598 0.335V1.665ZM16.7358 1.82078C16.8356 1.92052 16.8916 2.0558 16.8916 2.19686H18.2216C18.2216 1.70307 18.0255 1.22949 17.6763 0.880327L16.7358 1.82078ZM16.8916 2.19686V2.25072H18.2216V2.19686H16.8916ZM16.8916 2.25338C16.8929 2.57563 16.9884 2.89048 17.1663 3.15916L18.2752 2.42481C18.2405 2.37238 18.2219 2.31095 18.2216 2.24807L16.8916 2.25338ZM17.1663 3.15916C17.3443 3.42785 17.5969 3.63864 17.8931 3.76558L18.417 2.54313C18.3592 2.51836 18.3099 2.47723 18.2752 2.42481L17.1663 3.15916ZM17.8865 3.76274C18.1886 3.89605 18.5237 3.93582 18.8485 3.87691L18.6113 2.56825C18.5479 2.57974 18.4825 2.57198 18.4236 2.54597L17.8865 3.76274ZM18.8485 3.87691C19.1734 3.81801 19.4732 3.66313 19.7092 3.43226L18.7792 2.48149C18.7331 2.52654 18.6746 2.55676 18.6113 2.56825L18.8485 3.87691ZM19.7144 3.42709L19.7503 3.39119L18.8099 2.45075L18.774 2.48665L19.7144 3.42709ZM19.7506 3.39093C19.8 3.34148 19.8586 3.30225 19.9232 3.27549L19.4139 2.04687C19.1879 2.14056 18.9825 2.27789 18.8096 2.451L19.7506 3.39093ZM19.9232 3.27549C19.9878 3.24872 20.057 3.23494 20.1269 3.23494V1.90494C19.8822 1.90494 19.6399 1.95317 19.4139 2.04687L19.9232 3.27549ZM20.1269 3.23494C20.1968 3.23494 20.266 3.24872 20.3306 3.27549L20.8399 2.04687C20.6138 1.95317 20.3716 1.90494 20.1269 1.90494V3.23494ZM20.3306 3.27549C20.3951 3.30225 20.4538 3.34148 20.5032 3.39093L21.4442 2.451C21.2712 2.27789 21.0659 2.14056 20.8399 2.04687L20.3306 3.27549ZM20.5037 3.39145C20.5532 3.44085 20.5924 3.49951 20.6192 3.56408L21.8478 3.05477C21.7541 2.82874 21.6167 2.6234 21.4436 2.45048L20.5037 3.39145ZM20.6192 3.56408C20.6459 3.62865 20.6597 3.69786 20.6597 3.76775H21.9897C21.9897 3.52307 21.9415 3.28079 21.8478 3.05477L20.6192 3.56408ZM20.6597 3.76775C20.6597 3.83764 20.6459 3.90685 20.6192 3.97142L21.8478 4.48073C21.9415 4.25471 21.9897 4.01243 21.9897 3.76775H20.6597ZM20.6192 3.97142C20.5924 4.03599 20.5532 4.09465 20.5037 4.14404L21.4436 5.08502C21.6167 4.9121 21.7541 4.70676 21.8478 4.48073L20.6192 3.97142ZM20.5034 4.14431L20.4675 4.18021L21.408 5.12066L21.4439 5.08475L20.5034 4.14431ZM20.4624 4.18542C20.2315 4.42145 20.0766 4.72123 20.0177 5.04609L21.3264 5.28338C21.3379 5.21999 21.3681 5.1615 21.4131 5.11545L20.4624 4.18542ZM20.0177 5.04609C19.9588 5.37096 19.9986 5.70602 20.1319 6.00809L21.3487 5.47108C21.3227 5.41215 21.3149 5.34677 21.3264 5.28338L20.0177 5.04609ZM20.0753 5.73958V5.78746H21.4053V5.73958H20.0753ZM20.1291 6.04942C20.256 6.34562 20.4668 6.59824 20.7355 6.77618L21.4698 5.66729C21.4174 5.63258 21.3763 5.58328 21.3515 5.52549L20.1291 6.04942ZM20.7355 6.77618C21.0042 6.95411 21.319 7.0496 21.6413 7.05088L21.6466 5.72089C21.5837 5.72064 21.5223 5.70201 21.4698 5.66729L20.7355 6.77618ZM21.6439 7.05089H21.7456V5.72089H21.6439V7.05089ZM21.7456 7.05089C21.8867 7.05089 22.022 7.10692 22.1217 7.20667L23.0622 6.26622C22.713 5.91705 22.2394 5.72089 21.7456 5.72089V7.05089ZM22.1217 7.20667C22.2215 7.30641 22.2775 7.44169 22.2775 7.58275H23.6075C23.6075 7.08896 23.4114 6.61539 23.0622 6.26622L22.1217 7.20667ZM22.2775 7.58275C22.2775 7.72381 22.2215 7.8591 22.1217 7.95884L23.0622 8.89929C23.4114 8.55012 23.6075 8.07655 23.6075 7.58275H22.2775ZM22.1217 7.95884C22.022 8.05858 21.8867 8.11462 21.7456 8.11462V9.44462C22.2394 9.44462 22.713 9.24846 23.0622 8.89929L22.1217 7.95884ZM21.7456 8.11462H21.6918V9.44462H21.7456V8.11462ZM21.6891 8.11462C21.3669 8.11591 21.052 8.2114 20.7833 8.38933L21.5177 9.49821C21.5701 9.46349 21.6316 9.44486 21.6944 9.44461L21.6891 8.11462ZM20.7833 8.38933C20.5147 8.56727 20.3039 8.81988 20.1769 9.11609L21.3994 9.64001C21.4242 9.58222 21.4653 9.53293 21.5177 9.49821L20.7833 8.38933ZM6.98466 14.5989C6.73235 14.5934 6.47924 14.6058 6.22809 14.6355L6.38432 15.9563C6.575 15.9337 6.76612 15.9244 6.95536 15.9286L6.98466 14.5989ZM6.22882 14.6354L1.89123 15.1436L2.046 16.4646L6.38359 15.9564L6.22882 14.6354ZM1.89122 15.1436C0.99903 15.2482 0.329169 16.0074 0.335038 16.9048L1.66501 16.8961C1.66357 16.6759 1.82795 16.4901 2.04601 16.4646L1.89122 15.1436ZM0.335024 16.9004V21.5193H1.66502V16.9004H0.335024ZM0.335024 21.5193C0.335024 22.4921 1.12356 23.2806 2.09638 23.2806V21.9506C1.85809 21.9506 1.66502 21.7575 1.66502 21.5193H0.335024ZM2.09638 23.2806C2.24001 23.2806 2.38413 23.2632 2.52525 23.2278L2.20141 21.9378C2.16784 21.9462 2.13255 21.9506 2.09638 21.9506V23.2806ZM2.52452 23.2279L4.92137 22.6291L4.59898 21.3388L2.20213 21.9376L2.52452 23.2279ZM4.92371 22.6285C5.37889 22.513 5.86091 22.5708 6.27618 22.7907L6.89868 21.6154C6.19201 21.2411 5.37157 21.1427 4.59664 21.3393L4.92371 22.6285ZM6.27765 22.7915L10.8793 25.214L11.4989 24.0372L6.89721 21.6146L6.27765 22.7915ZM10.8809 25.2149C12.0286 25.815 13.3975 25.815 14.5451 25.2149L13.9288 24.0363C13.1672 24.4346 12.2588 24.4346 11.4973 24.0363L10.8809 25.2149ZM14.5421 25.2164L22.3258 21.1965L21.7155 20.0148L13.9318 24.0347L14.5421 25.2164ZM22.3282 21.1952C23.4926 20.5877 23.9454 19.1508 23.3376 17.9855L22.1583 18.6005C22.4262 19.1141 22.2268 19.748 21.713 20.0161L22.3282 21.1952ZM23.3377 17.9858C23.1795 17.682 22.9577 17.4174 22.6882 17.2081L21.8726 18.2587C21.9919 18.3513 22.0891 18.4676 22.1582 18.6002L23.3377 17.9858ZM22.6127 17.1574L22.5942 17.1467L21.9296 18.2987L21.9481 18.3094L22.6127 17.1574ZM22.6693 17.1971C22.0926 16.7502 21.3422 16.5946 20.6355 16.775L20.9646 18.0637C21.2739 17.9847 21.6023 18.0528 21.8545 18.2483L22.6693 17.1971ZM20.6334 16.7756L15.722 18.0468L16.0552 19.3344L20.9667 18.0631L20.6334 16.7756ZM16.5188 18.4783C16.1558 17.4008 15.11 16.7067 13.9768 16.7889L14.0731 18.1154C14.602 18.0771 15.0893 18.4009 15.2584 18.9029L16.5188 18.4783ZM13.9765 16.789L13.1756 16.8475L13.2726 18.1739L14.0734 18.1154L13.9765 16.789ZM13.1824 16.847C12.9872 16.8593 12.7914 16.8217 12.6131 16.7374L12.0449 17.94C12.425 18.1196 12.8449 18.2009 13.2658 18.1744L13.1824 16.847ZM12.6128 16.7373L9.1738 15.1149L8.60632 16.3177L12.0453 17.9401L12.6128 16.7373ZM9.17361 15.1148C8.48579 14.7905 7.74001 14.6156 6.98466 14.5989L6.95536 15.9286C7.52469 15.9411 8.08724 16.073 8.60651 16.3178L9.17361 15.1148ZM14.1007 19.8109C13.542 20.0258 12.8655 20.1998 12.2302 20.1018L12.0273 21.4162C13.0065 21.5673 13.9458 21.2955 14.5781 21.0523L14.1007 19.8109ZM15.2403 18.8389C15.2558 18.9063 15.2721 18.9692 15.285 19.019C15.2988 19.0724 15.3084 19.1096 15.3157 19.1432C15.3306 19.2108 15.3255 19.2176 15.3273 19.2006C15.3306 19.1711 15.3426 19.1536 15.3375 19.161C15.3256 19.1779 15.2835 19.2287 15.1691 19.3143L15.9656 20.3794C16.3276 20.1087 16.6009 19.7867 16.6494 19.346C16.6707 19.1519 16.6417 18.9808 16.6148 18.8581C16.6013 18.7964 16.5854 18.7353 16.5726 18.6859C16.5589 18.6329 16.5474 18.5883 16.5368 18.5423L15.2403 18.8389ZM15.2194 19.2802C15.1266 19.3371 14.9958 19.4004 14.7893 19.4938C14.5934 19.5823 14.3404 19.6932 14.0513 19.8323L14.6276 21.0309C14.8979 20.9009 15.1256 20.8013 15.3371 20.7057C15.538 20.6149 15.7415 20.5203 15.9154 20.4135L15.2194 19.2802ZM12.1287 20.759C12.2156 20.0997 12.2157 20.0997 12.2158 20.0997C12.2158 20.0997 12.2159 20.0998 12.216 20.0998C12.2161 20.0998 12.2162 20.0998 12.2162 20.0998C12.2164 20.0998 12.2166 20.0998 12.2167 20.0999C12.2169 20.0999 12.2171 20.0999 12.2171 20.0999C12.2172 20.0999 12.217 20.0999 12.2163 20.0998C12.215 20.0996 12.2122 20.0992 12.2079 20.0986C12.1994 20.0973 12.1852 20.0951 12.1658 20.0919C12.1271 20.0853 12.0681 20.0746 11.9936 20.0588C11.8439 20.0269 11.6355 19.975 11.4044 19.8959L10.9739 21.1543C11.2659 21.2543 11.5273 21.3193 11.7166 21.3596C11.8116 21.3798 11.8895 21.3941 11.9452 21.4034C11.973 21.4081 11.9954 21.4116 12.0117 21.414C12.0199 21.4153 12.0265 21.4162 12.0316 21.4169C12.0341 21.4173 12.0362 21.4176 12.0379 21.4178C12.0388 21.4179 12.0395 21.418 12.0402 21.4181C12.0405 21.4181 12.0408 21.4182 12.0411 21.4182C12.0412 21.4182 12.0414 21.4183 12.0415 21.4183C12.0415 21.4183 12.0416 21.4183 12.0417 21.4183C12.0417 21.4183 12.0418 21.4183 12.1287 20.759ZM11.4473 19.9123C11.0652 19.7513 10.6281 19.5783 10.261 19.4318C9.87538 19.2779 9.59823 19.1652 9.49128 19.1117L8.89649 20.3013C9.06696 20.3865 9.41273 20.5253 9.76803 20.6671C10.1418 20.8162 10.5636 20.9832 10.9309 21.138L11.4473 19.9123Z" fill="#D1D1D6"/>
</svg>
