<svg width="18" height="20" viewBox="0 0 18 20" fill="none" xmlns="http://www.w3.org/2000/svg">
<path d="M1.725 5.79991L5.3625 7.90408M16.275 5.79991L9 10.0082L5.3625 7.90408M9 18.3999V9.99991M5.3625 7.90408L12.75 3.55825M12.75 3.55825L15.6667 5.22491C15.9198 5.37105 16.13 5.58118 16.2763 5.83422C16.4225 6.08725 16.4997 6.37431 16.5 6.66658V13.3332C16.4997 13.6255 16.4225 13.9126 16.2763 14.1656C16.13 14.4187 15.9198 14.6288 15.6667 14.7749L9.83333 18.1082C9.57997 18.2545 9.29256 18.3315 9 18.3315C8.70744 18.3315 8.42003 18.2545 8.16667 18.1082L2.33333 14.7749C2.08022 14.6288 1.86998 14.4187 1.72372 14.1656C1.57745 13.9126 1.5003 13.6255 1.5 13.3332V6.66658C1.5003 6.37431 1.57745 6.08725 1.72372 5.83422C1.86998 5.58118 2.08022 5.37105 2.33333 5.22491L8.16667 1.89158C8.42003 1.7453 8.70744 1.66829 9 1.66829C9.29256 1.66829 9.57997 1.7453 9.83333 1.89158L12.75 3.55825Z" stroke="#3F3F46" stroke-width="1.67" stroke-linecap="round" stroke-linejoin="round"/>
</svg>
