<svg width="20" height="20" viewBox="0 0 20 20" fill="none" xmlns="http://www.w3.org/2000/svg">
<path d="M6.66671 4.99833C6.20555 4.99833 5.83171 5.37218 5.83171 5.83333C5.83171 6.29449 6.20555 6.66833 6.66671 6.66833V4.99833ZM16.6667 5.83333L17.2571 6.42377C17.5832 6.09768 17.5832 5.56899 17.2571 5.2429L16.6667 5.83333ZM13.9238 1.90957C13.5977 1.58348 13.069 1.58348 12.7429 1.90957C12.4169 2.23565 12.4169 2.76435 12.7429 3.09043L13.9238 1.90957ZM12.7429 8.57623C12.4169 8.90232 12.4169 9.43101 12.7429 9.7571C13.069 10.0832 13.5977 10.0832 13.9238 9.7571L12.7429 8.57623ZM13.3334 15.0017C13.7945 15.0017 14.1684 14.6278 14.1684 14.1667C14.1684 13.7055 13.7945 13.3317 13.3334 13.3317V15.0017ZM3.33337 14.1667L2.74294 13.5762C2.41685 13.9023 2.41685 14.431 2.74294 14.7571L3.33337 14.1667ZM6.07627 18.0904C6.40236 18.4165 6.93105 18.4165 7.25714 18.0904C7.58323 17.7643 7.58323 17.2357 7.25714 16.9096L6.07627 18.0904ZM7.25714 11.4238C7.58323 11.0977 7.58323 10.569 7.25714 10.2429C6.93105 9.91681 6.40236 9.91681 6.07627 10.2429L7.25714 11.4238ZM6.66671 6.66833H16.6667V4.99833H6.66671V6.66833ZM17.2571 5.2429L13.9238 1.90957L12.7429 3.09043L16.0763 6.42377L17.2571 5.2429ZM16.0763 5.2429L12.7429 8.57623L13.9238 9.7571L17.2571 6.42377L16.0763 5.2429ZM13.3334 13.3317H3.33337V15.0017H13.3334V13.3317ZM2.74294 14.7571L6.07627 18.0904L7.25714 16.9096L3.92381 13.5762L2.74294 14.7571ZM3.92381 14.7571L7.25714 11.4238L6.07627 10.2429L2.74294 13.5762L3.92381 14.7571Z" fill="#F4F4F5"/>
</svg>
