<svg width="24" height="25" viewBox="0 0 24 25" fill="none" xmlns="http://www.w3.org/2000/svg">
<path d="M14.9644 1.83334H7.72359C4.01025 1.83334 1 6.53386 1 12.3323C1 18.1306 4.01025 22.8312 7.72359 22.8312H15.4816M22.0172 12.3323C22.0172 18.1306 19.1071 22.8312 15.5172 22.8312C11.9274 22.8312 9.01721 18.1306 9.01721 12.3323C9.01721 6.53386 11.9274 1.83334 15.5172 1.83334C19.1071 1.83334 22.0172 6.53386 22.0172 12.3323Z" stroke="#18181B" stroke-width="2"/>
<path d="M12.7644 8.16729C12.7644 8.16729 13.9311 8.584 13.9311 12.3344C13.9311 16.0848 12.7644 16.5015 12.7644 16.5015M19 12.3333C19 16.1993 17.433 19.3333 15.5 19.3333C13.567 19.3333 12 16.1993 12 12.3333C12 8.46734 13.567 5.33334 15.5 5.33334C17.433 5.33334 19 8.46734 19 12.3333Z" stroke="#18181B" stroke-width="2"/>
</svg>
