<svg width="24" height="24" viewBox="0 0 24 24" fill="none" xmlns="http://www.w3.org/2000/svg">
<path d="M2 6.335H1.335V7.665H2V6.335ZM2.24556 7.01609L1.75692 7.46714L1.75692 7.46714L2.24556 7.01609ZM4.0179 8.93612L3.52926 9.38718L3.52926 9.38718L4.0179 8.93612ZM4.10243 8.91691L4.73802 9.11248L4.73802 9.11248L4.10243 8.91691ZM4.66669 7.08309L4.03109 6.88752V6.88752L4.66669 7.08309ZM4.75122 7.06388L4.26257 7.51493L4.26257 7.51493L4.75122 7.06388ZM6.50167 8.9602L6.99031 8.50915L6.99031 8.50914L6.50167 8.9602ZM6.57515 8.9602L7.06379 9.41126L7.06379 9.41125L6.57515 8.9602ZM7.74281 7.69523L8.23145 8.14629L8.23145 8.14629L7.74281 7.69523ZM7.80336 7.68518L7.48663 8.26991L7.48663 8.26991L7.80336 7.68518ZM1.12449 11.9512L0.575656 12.3267L1.32669 13.4243L1.87551 13.0488L1.12449 11.9512ZM2.19511 12.0244L2.57062 12.5732H2.57062L2.19511 12.0244ZM2.26008 12.0318L2.74872 11.5807H2.74872L2.26008 12.0318ZM4.03218 13.9515L4.52082 13.5005L4.52082 13.5005L4.03218 13.9515ZM4.1115 13.9438L3.54515 13.5953L3.54514 13.5953L4.1115 13.9438ZM5.26511 12.0692L4.69876 11.7207L4.69876 11.7207L5.26511 12.0692ZM5.35028 12.0692L5.91663 11.7207L5.91663 11.7207L5.35028 12.0692ZM6.49588 13.9308L7.06223 13.5823L7.06223 13.5823L6.49588 13.9308ZM6.58104 13.9308L6.01469 13.5823L6.01469 13.5823L6.58104 13.9308ZM7.74173 12.0447L8.30808 12.3932L8.30808 12.3932L7.74173 12.0447ZM1.7665 15.8773L1.14384 16.1108L1.61084 17.3562L2.2335 17.1227L1.7665 15.8773ZM3.29618 16.0139L3.06269 15.3913H3.06269L3.29618 16.0139ZM3.35534 16.033L3.90866 15.6641L3.35534 16.033ZM4.62506 17.9376L5.17838 17.5687L4.62506 17.9376ZM4.70827 17.9376L4.15496 17.5687L4.70827 17.9376ZM5.9584 16.0624L5.40508 15.6935L5.9584 16.0624ZM6.0416 16.0624L6.59492 15.6935L6.0416 16.0624ZM7.29173 17.9376L7.84504 17.5687L7.29173 17.9376ZM7.37494 17.9376L6.82162 17.5687L7.37494 17.9376ZM8.65182 16.0223L8.09851 15.6534L8.09851 15.6534L8.65182 16.0223ZM4.00571 20.5551L3.56085 21.0494L4.54943 21.9392L4.99429 21.4449L4.00571 20.5551ZM5.37012 20.0332L5.86441 20.4781H5.86441L5.37012 20.0332ZM5.43635 20.026L5.82287 19.4848L5.43635 20.026ZM6.77094 20.9792L7.15746 20.4381H7.15746L6.77094 20.9792ZM6.82906 20.9792L6.44254 20.4381H6.44254L6.82906 20.9792ZM8.17603 20.0171L8.56256 20.5583L8.56256 20.5582L8.17603 20.0171ZM8.22659 20.0127L7.94069 20.6131H7.94069L8.22659 20.0127ZM10.2618 20.9818L9.9759 21.5822H9.9759L10.2618 20.9818ZM10.3243 20.9653L10.869 21.3467L10.8691 21.3467L10.3243 20.9653ZM5 2.335H4.335V3.665H5V2.335ZM5.68 3.01L5.281 3.542L5.281 3.542L5.68 3.01ZM6.97528 3.98146L6.57628 4.51346L6.57628 4.51346L6.97528 3.98146ZM8.97764 3.01118L8.68024 2.41639L8.68024 2.41639L8.97764 3.01118ZM9.02236 3.01118L9.31976 2.41639L9.31975 2.41638L9.02236 3.01118ZM7.81775 12.0317L8.06265 11.4134L7.81775 12.0317ZM7.80776 12.0267L7.49507 12.6136L7.80776 12.0267ZM19.3522 11.9987C19.3522 14.2306 18.8661 16.2182 18.113 17.6238C17.345 19.0572 16.3963 19.7329 15.5172 19.7329V21.0629C17.1234 21.0629 18.4247 19.8583 19.2854 18.2519C20.161 16.6176 20.6822 14.4056 20.6822 11.9987H19.3522ZM15.5172 19.7329C14.6382 19.7329 13.6894 19.0572 12.9214 17.6238C12.1683 16.2182 11.6822 14.2306 11.6822 11.9987H10.3522C10.3522 14.4056 10.8735 16.6176 11.7491 18.2519C12.6097 19.8583 13.911 21.0629 15.5172 21.0629V19.7329ZM11.6822 11.9987C11.6822 9.7669 12.1683 7.77932 12.9214 6.37371C13.6894 4.94024 14.6382 4.26461 15.5172 4.26461V2.93461C13.911 2.93461 12.6097 4.13919 11.7491 5.74561C10.8735 7.37988 10.3522 9.59187 10.3522 11.9987H11.6822ZM15.5172 4.26461C16.3963 4.26461 17.345 4.94024 18.113 6.37371C18.8661 7.77932 19.3522 9.7669 19.3522 11.9987H20.6822C20.6822 9.59187 20.161 7.37988 19.2854 5.74561C18.4247 4.13919 17.1234 2.93461 15.5172 2.93461V4.26461ZM21.3522 11.9989C21.3522 14.7946 20.6493 17.2938 19.548 19.0727C18.4404 20.8618 16.997 21.8328 15.5172 21.8328V23.1628C17.6272 23.1628 19.4339 21.7836 20.6788 19.7728C21.93 17.7518 22.6822 15.0016 22.6822 11.9989H21.3522ZM15.5172 21.8328C14.0374 21.8328 12.5941 20.8618 11.4864 19.0727C10.3851 17.2938 9.68221 14.7946 9.68221 11.9989H8.35221C8.35221 15.0016 9.10439 17.7518 10.3556 19.7728C11.6005 21.7836 13.4072 23.1628 15.5172 23.1628V21.8328ZM9.68221 11.9989C9.68221 9.20326 10.3851 6.70399 11.4864 4.92511C12.5941 3.13603 14.0374 2.165 15.5172 2.165V0.835C13.4072 0.835 11.6005 2.21423 10.3556 4.22501C9.10439 6.24599 8.35221 8.99618 8.35221 11.9989H9.68221ZM15.5172 2.165C16.997 2.165 18.4404 3.13603 19.548 4.92511C20.6493 6.70399 21.3522 9.20326 21.3522 11.9989H22.6822C22.6822 8.99618 21.93 6.24599 20.6788 4.22501C19.4339 2.21423 17.6272 0.835 15.5172 0.835V2.165ZM12 7C11.7897 7.63087 11.7889 7.6306 11.7881 7.63032C11.7878 7.63023 11.787 7.62996 11.7864 7.62978C11.7854 7.62942 11.7843 7.62906 11.7833 7.62871C11.7813 7.628 11.7793 7.62731 11.7774 7.62664C11.7737 7.6253 11.7702 7.62403 11.7671 7.62285C11.761 7.62048 11.7561 7.61847 11.7524 7.61689C11.7451 7.61373 11.7429 7.61235 11.745 7.61354C11.7492 7.61581 11.7721 7.62882 11.8087 7.6593C11.8806 7.71924 12.016 7.85555 12.1662 8.13094C12.4697 8.68738 12.835 9.81577 12.835 12H14.165C14.165 9.68423 13.7803 8.31262 13.3338 7.49406C13.109 7.08195 12.8694 6.81201 12.6601 6.63757C12.5561 6.55087 12.4617 6.48966 12.3839 6.447C12.345 6.42573 12.3105 6.40922 12.2813 6.39654C12.2666 6.3902 12.2533 6.38483 12.2415 6.3803C12.2355 6.37803 12.2299 6.37598 12.2248 6.37412C12.2222 6.37319 12.2196 6.37231 12.2172 6.37148C12.216 6.37107 12.2148 6.37066 12.2137 6.37027C12.2131 6.37007 12.2123 6.36979 12.212 6.36969C12.2111 6.36941 12.2103 6.36913 12 7ZM12.835 12C12.835 14.1842 12.4697 15.3126 12.1662 15.8691C12.016 16.1444 11.8806 16.2808 11.8087 16.3407C11.7721 16.3712 11.7492 16.3842 11.745 16.3865C11.7429 16.3876 11.7451 16.3863 11.7524 16.3831C11.7561 16.3815 11.761 16.3795 11.7671 16.3772C11.7702 16.376 11.7737 16.3747 11.7774 16.3734C11.7793 16.3727 11.7813 16.372 11.7833 16.3713C11.7843 16.3709 11.7854 16.3706 11.7864 16.3702C11.787 16.37 11.7878 16.3698 11.7881 16.3697C11.7889 16.3694 11.7897 16.3691 12 17C12.2103 17.6309 12.2111 17.6306 12.212 17.6303C12.2123 17.6302 12.2131 17.6299 12.2137 17.6297C12.2148 17.6293 12.216 17.6289 12.2172 17.6285C12.2196 17.6277 12.2222 17.6268 12.2248 17.6259C12.2299 17.624 12.2355 17.622 12.2415 17.6197C12.2533 17.6152 12.2666 17.6098 12.2813 17.6035C12.3105 17.5908 12.345 17.5743 12.3839 17.553C12.4617 17.5103 12.5561 17.4491 12.6601 17.3624C12.8694 17.188 13.109 16.9181 13.3338 16.5059C13.7803 15.6874 14.165 14.3158 14.165 12H12.835ZM2 7.665H2.20882V6.335H2V7.665ZM1.75692 7.46714L3.52926 9.38718L4.50655 8.48507L2.73421 6.56503L1.75692 7.46714ZM4.73802 9.11248L5.30228 7.27865L4.03109 6.88752L3.46684 8.72135L4.73802 9.11248ZM4.26257 7.51493L6.01302 9.41125L6.99031 8.50914L5.23986 6.61282L4.26257 7.51493ZM7.06379 9.41125L8.23145 8.14629L7.25416 7.24418L6.0865 8.50914L7.06379 9.41125ZM7.48663 8.26991L8.68322 8.91806L9.31667 7.7486L8.12009 7.10045L7.48663 8.26991ZM8.23145 8.14629C8.04066 8.35298 7.73395 8.40388 7.48663 8.26991L8.12009 7.10046C7.83255 6.9447 7.47597 7.00388 7.25416 7.24418L8.23145 8.14629ZM6.01302 9.41125C6.29613 9.71797 6.78068 9.71796 7.06379 9.41126L6.0865 8.50914C6.33002 8.24534 6.74679 8.24533 6.99031 8.50915L6.01302 9.41125ZM5.30228 7.27866C5.16278 7.73201 4.58429 7.86346 4.26257 7.51493L5.23986 6.61282C4.86583 6.20762 4.19327 6.36045 4.03109 6.88752L5.30228 7.27866ZM3.52926 9.38718C3.90329 9.79238 4.57585 9.63955 4.73802 9.11248L3.46684 8.72134C3.60633 8.26799 4.18483 8.13654 4.50655 8.48506L3.52926 9.38718ZM2.20882 7.665C2.03717 7.665 1.87334 7.59327 1.75692 7.46714L2.73421 6.56503C2.59885 6.4184 2.40838 6.335 2.20882 6.335V7.665ZM1.87551 13.0488L2.57062 12.5732L1.81959 11.4756L1.12449 11.9512L1.87551 13.0488ZM1.77144 12.4828L3.54353 14.4026L4.52082 13.5005L2.74872 11.5807L1.77144 12.4828ZM4.67785 14.2923L5.83146 12.4177L4.69876 11.7207L3.54515 13.5953L4.67785 14.2923ZM4.78392 12.4177L5.92953 14.2793L7.06223 13.5823L5.91663 11.7207L4.78392 12.4177ZM7.1474 14.2793L8.30808 12.3932L7.17537 11.6962L6.01469 13.5823L7.1474 14.2793ZM7.57284 12.65L8.7551 13.1183L9.2449 11.8817L8.06265 11.4134L7.57284 12.65ZM8.30808 12.3932C8.13585 12.6731 7.77848 12.7646 7.49507 12.6136L8.12045 11.4398C7.79107 11.2644 7.37556 11.3709 7.17537 11.6962L8.30808 12.3932ZM5.92952 14.2793C6.20872 14.733 6.8682 14.733 7.1474 14.2793L6.01469 13.5823C6.25484 13.192 6.82208 13.192 7.06223 13.5823L5.92952 14.2793ZM5.83146 12.4177C5.59131 12.808 5.02407 12.808 4.78392 12.4177L5.91663 11.7207C5.63743 11.267 4.97795 11.267 4.69876 11.7207L5.83146 12.4177ZM3.54353 14.4026C3.86482 14.7506 4.42961 14.6957 4.67785 14.2923L3.54514 13.5953C3.75867 13.2483 4.24447 13.2011 4.52082 13.5005L3.54353 14.4026ZM2.57062 12.5732C2.31871 12.7456 1.97848 12.7071 1.77144 12.4828L2.74872 11.5807C2.50801 11.3199 2.11246 11.2752 1.81959 11.4756L2.57062 12.5732ZM2.2335 17.1227L3.52968 16.6366L3.06269 15.3913L1.7665 15.8773L2.2335 17.1227ZM2.80203 16.4019L4.07175 18.3065L5.17838 17.5687L3.90866 15.6641L2.80203 16.4019ZM5.26158 18.3065L6.51171 16.4313L5.40508 15.6935L4.15496 17.5687L5.26158 18.3065ZM5.48829 16.4313L6.73842 18.3065L7.84504 17.5687L6.59492 15.6935L5.48829 16.4313ZM7.92825 18.3065L9.20514 16.3911L8.09851 15.6534L6.82162 17.5687L7.92825 18.3065ZM8.69343 16.665H9V15.335H8.69343V16.665ZM9.20513 16.3911C9.09107 16.5622 8.89904 16.665 8.69343 16.665V15.335C8.45438 15.335 8.23113 15.4545 8.09851 15.6534L9.20513 16.3911ZM6.73842 18.3065C7.02143 18.731 7.64524 18.731 7.92825 18.3065L6.82162 17.5687C7.06505 17.2036 7.60161 17.2036 7.84504 17.5687L6.73842 18.3065ZM6.51171 16.4313C6.26828 16.7964 5.73172 16.7964 5.48829 16.4313L6.59492 15.6935C6.3119 15.269 5.6881 15.269 5.40508 15.6935L6.51171 16.4313ZM4.07175 18.3065C4.35476 18.731 4.97857 18.731 5.26158 18.3065L4.15496 17.5687C4.39839 17.2036 4.93495 17.2036 5.17838 17.5687L4.07175 18.3065ZM3.52968 16.6366C3.26207 16.7369 2.96058 16.6397 2.80203 16.4019L3.90866 15.6641C3.72433 15.3876 3.37381 15.2746 3.06269 15.3913L3.52968 16.6366ZM4.99429 21.4449L5.86441 20.4781L4.87583 19.5883L4.00571 20.5551L4.99429 21.4449ZM5.04982 20.5671L6.38441 21.5204L7.15746 20.4381L5.82287 19.4848L5.04982 20.5671ZM7.21559 21.5204L8.56256 20.5583L7.78951 19.476L6.44254 20.4381L7.21559 21.5204ZM7.94069 20.6131L9.9759 21.5822L10.5477 20.3814L8.5125 19.4123L7.94069 20.6131ZM10.8691 21.3467L11.5448 20.3814L10.4552 19.6186L9.77947 20.584L10.8691 21.3467ZM9.9759 21.5822C10.2912 21.7324 10.6688 21.6328 10.869 21.3467L9.77947 20.584C9.95172 20.3379 10.2765 20.2523 10.5477 20.3814L9.9759 21.5822ZM8.56256 20.5582C8.38062 20.6882 8.14251 20.7092 7.94069 20.6131L8.5125 19.4123C8.27785 19.3005 8.00103 19.3249 7.78951 19.476L8.56256 20.5582ZM6.38441 21.5204C6.63302 21.698 6.96698 21.698 7.21559 21.5204L6.44254 20.4381C6.65637 20.2854 6.94363 20.2854 7.15746 20.4381L6.38441 21.5204ZM5.86441 20.4781C5.65508 20.7107 5.30446 20.749 5.04982 20.5671L5.82287 19.4848C5.52683 19.2734 5.1192 19.3179 4.87583 19.5883L5.86441 20.4781ZM5 3.665H5.65V2.335H5V3.665ZM5.281 3.542L6.57628 4.51346L7.37428 3.44946L6.079 2.478L5.281 3.542ZM7.32504 4.58097L9.27504 3.60597L8.68024 2.41639L6.73024 3.39139L7.32504 4.58097ZM8.72496 3.60597L10.7026 4.59479L11.2974 3.40521L9.31976 2.41639L8.72496 3.60597ZM9.27503 3.60598C9.1019 3.69254 8.89811 3.69254 8.72497 3.60598L9.31975 2.41638C9.11846 2.31574 8.88153 2.31574 8.68024 2.41639L9.27503 3.60598ZM6.57628 4.51346C6.79294 4.67596 7.08281 4.70209 7.32504 4.58097L6.73024 3.39139C6.93859 3.28721 7.18792 3.30969 7.37428 3.44946L6.57628 4.51346ZM5.65 3.665C5.51694 3.665 5.38746 3.62184 5.281 3.542L6.079 2.478C5.95523 2.38517 5.8047 2.335 5.65 2.335V3.665ZM7.72359 21.8328C6.17112 21.8328 4.67246 20.8492 3.5293 19.0641C2.39088 17.2865 1.665 14.7904 1.665 11.9989H0.335C0.335 15.0059 1.11425 17.7592 2.40929 19.7814C3.69959 21.7962 5.56272 23.1628 7.72359 23.1628V21.8328ZM1.665 11.9989C1.665 9.20746 2.39088 6.71134 3.5293 4.93369C4.67246 3.14865 6.17112 2.165 7.72359 2.165V0.835C5.56272 0.835 3.69959 2.20162 2.40929 4.21643C1.11425 6.23864 0.335 8.99198 0.335 11.9989H1.665ZM7.72359 2.165H14.9644V0.835H7.72359V2.165ZM7.72359 23.1628H15.4816V21.8328H7.72359V23.1628ZM8.06265 11.4134C8.08874 11.4238 8.10822 11.4336 8.11675 11.4379C8.12115 11.4402 8.12437 11.4419 8.12469 11.4421C8.12702 11.4434 8.12216 11.4407 8.12045 11.4398L7.49507 12.6136C7.495 12.6136 7.49178 12.6119 7.49575 12.614C7.4977 12.615 7.50257 12.6177 7.50862 12.6208C7.52046 12.6269 7.54329 12.6383 7.57284 12.65L8.06265 11.4134Z" fill="#18181B"/>
</svg>
