<svg width="24" height="24" viewBox="0 0 24 24" fill="none" xmlns="http://www.w3.org/2000/svg">
<path d="M3.27 5.9599L7.635 8.4849M20.73 5.9599L12 11.0099L7.635 8.4849M12 21.0799V10.9999M7.635 8.4849L16.5 3.2699M16.5 3.2699L20 5.2699C20.3037 5.44526 20.556 5.69742 20.7315 6.00106C20.9071 6.30471 20.9996 6.64918 21 6.9999V14.9999C20.9996 15.3506 20.9071 15.6951 20.7315 15.9987C20.556 16.3024 20.3037 16.5545 20 16.7299L13 20.7299C12.696 20.9054 12.3511 20.9979 12 20.9979C11.6489 20.9979 11.304 20.9054 11 20.7299L4 16.7299C3.69626 16.5545 3.44398 16.3024 3.26846 15.9987C3.09294 15.6951 3.00036 15.3506 3 14.9999V6.9999C3.00036 6.64918 3.09294 6.30471 3.26846 6.00106C3.44398 5.69742 3.69626 5.44526 4 5.2699L11 1.2699C11.304 1.09437 11.6489 1.00195 12 1.00195C12.3511 1.00195 12.696 1.09437 13 1.2699L16.5 3.2699Z" stroke="#18181B" stroke-width="2" stroke-linecap="round" stroke-linejoin="round"/>
<rect x="12.5" y="12.5" width="11" height="11" rx="5.5" fill="#18181B"/>
<path fill-rule="evenodd" clip-rule="evenodd" d="M20.1235 16.0792L17.1401 18.9584L16.3485 18.1125C16.2026 17.975 15.9735 17.9667 15.8068 18.0834C15.6443 18.2042 15.5985 18.4167 15.6985 18.5875L16.636 20.1125C16.7276 20.2542 16.886 20.3417 17.0651 20.3417C17.236 20.3417 17.3985 20.2542 17.4901 20.1125C17.6401 19.9167 20.5026 16.5042 20.5026 16.5042C20.8776 16.1209 20.4235 15.7834 20.1235 16.075V16.0792Z" fill="white"/>
<rect x="12.5" y="12.5" width="11" height="11" rx="5.5" stroke="white"/>
</svg>
