<svg width="26" height="22" viewBox="0 0 26 22" fill="none" xmlns="http://www.w3.org/2000/svg">
<rect x="0.5" width="25" height="22" rx="11" fill="#FFF8E3"/>
<path d="M15.1472 6.27273H16.4682V12.0128C16.4682 12.6236 16.3248 13.1648 16.0378 13.6364C15.7509 14.1051 15.3475 14.4744 14.8276 14.7443C14.3077 15.0114 13.6983 15.1449 12.9995 15.1449C12.3034 15.1449 11.6955 15.0114 11.1756 14.7443C10.6557 14.4744 10.2523 14.1051 9.96538 13.6364C9.67844 13.1648 9.53498 12.6236 9.53498 12.0128V6.27273H10.8517V11.9062C10.8517 12.3011 10.9384 12.652 11.1117 12.9588C11.2878 13.2656 11.5364 13.5071 11.8574 13.6832C12.1784 13.8565 12.5591 13.9432 12.9995 13.9432C13.4426 13.9432 13.8248 13.8565 14.1458 13.6832C14.4696 13.5071 14.7168 13.2656 14.8873 12.9588C15.0605 12.652 15.1472 12.3011 15.1472 11.9062V6.27273Z" fill="#DE7E02"/>
</svg>
