<svg width="24" height="24" viewBox="0 0 24 24" fill="none" xmlns="http://www.w3.org/2000/svg">
<rect width="24" height="24" rx="12" fill="#FAFAFA"/>
<path d="M17.3337 18V16.6667C17.3337 15.9594 17.0527 15.2811 16.5526 14.781C16.0525 14.281 15.3742 14 14.667 14H9.33366C8.62641 14 7.94814 14.281 7.44804 14.781C6.94794 15.2811 6.66699 15.9594 6.66699 16.6667V18M14.667 8.66667C14.667 10.1394 13.4731 11.3333 12.0003 11.3333C10.5276 11.3333 9.33366 10.1394 9.33366 8.66667C9.33366 7.19391 10.5276 6 12.0003 6C13.4731 6 14.667 7.19391 14.667 8.66667Z" stroke="#51525C" stroke-width="1.33" stroke-linecap="round" stroke-linejoin="round"/>
</svg>
