<svg width="24" height="24" viewBox="0 0 24 24" fill="none" xmlns="http://www.w3.org/2000/svg">
<g clip-path="url(#clip0_5140_238068)">
<path fill-rule="evenodd" clip-rule="evenodd" d="M16.1233 4.55314L15.5246 4.31434C15.3844 4.25842 15.2925 4.12303 15.2925 3.97247V3.83207L15.0628 4.20429C15.0208 4.27235 14.9464 4.31381 14.8663 4.31381H8.24172C8.16158 4.31381 8.08718 4.27235 8.04518 4.20429L7.81547 3.83207V3.97247C7.81547 4.12303 7.72355 4.25842 7.58337 4.31434L6.98469 4.55314V4.63598C6.98469 5.27146 6.46809 5.78661 5.83083 5.78661C5.19357 5.78661 4.67696 5.27146 4.67696 4.63598V2.15063C4.67696 1.51515 5.19357 1 5.83083 1C6.46809 1 6.98469 1.51515 6.98469 2.15063V2.32552L7.58337 2.56432C7.72355 2.62024 7.81547 2.75563 7.81547 2.90619V3.11715H15.2925V2.90619C15.2925 2.75563 15.3844 2.62024 15.5246 2.56432L16.1233 2.32552V2.15063C16.1233 1.51515 16.6399 1 17.2772 1C17.9144 1 18.431 1.51515 18.431 2.15063V4.63598C18.431 5.27146 17.9144 5.78661 17.2772 5.78661C16.6399 5.78661 16.1233 5.27146 16.1233 4.63598V4.55314ZM18.3387 4.63598V2.15063C18.3387 1.56599 17.8634 1.09205 17.2772 1.09205C16.6909 1.09205 16.2156 1.56599 16.2156 2.15063V4.63598C16.2156 5.22062 16.6909 5.69456 17.2772 5.69456C17.8634 5.69456 18.3387 5.22062 18.3387 4.63598ZM15.2925 3.20921V3.62343H7.81547V3.20921H15.2925ZM16.1233 4.454V2.42466L15.5589 2.64979C15.4538 2.69173 15.3848 2.79327 15.3848 2.90619V3.97247C15.3848 4.08539 15.4538 4.18694 15.5589 4.22887L16.1233 4.454ZM6.89238 2.15063V4.63598C6.89238 5.22062 6.41711 5.69456 5.83083 5.69456C5.24455 5.69456 4.76927 5.22062 4.76927 4.63598V2.15063C4.76927 1.56599 5.24455 1.09205 5.83083 1.09205C6.41711 1.09205 6.89238 1.56599 6.89238 2.15063ZM6.98469 4.454V2.42466L7.54908 2.64979C7.65422 2.69173 7.72316 2.79327 7.72316 2.90619V3.97247C7.72316 4.08539 7.65422 4.18694 7.54908 4.22887L6.98469 4.454ZM7.85191 3.71548L8.1238 4.15605C8.14899 4.19688 8.19364 4.22176 8.24172 4.22176H14.8663C14.9143 4.22176 14.959 4.19688 14.9842 4.15605L15.2561 3.71548H7.85191Z" fill="#18181B"/>
<path fill-rule="evenodd" clip-rule="evenodd" d="M19.9541 7.07531C19.3169 7.07531 18.8003 7.59047 18.8003 8.22594V10.7113C18.8003 11.3468 19.3169 11.8619 19.9541 11.8619C20.5914 11.8619 21.108 11.3468 21.108 10.7113V8.22594C21.108 7.59047 20.5914 7.07531 19.9541 7.07531ZM19.9541 11.7699C20.5404 11.7699 21.0157 11.2959 21.0157 10.7113V8.22594C21.0157 7.64131 20.5404 7.16736 19.9541 7.16736C19.3678 7.16736 18.8926 7.64131 18.8926 8.22594V10.7113C18.8926 11.2959 19.3678 11.7699 19.9541 11.7699Z" fill="#18181B"/>
<path fill-rule="evenodd" clip-rule="evenodd" d="M6.98469 14.3013V14.3841L7.58337 14.6229C7.72355 14.6788 7.81547 14.8142 7.81547 14.9648V15.1757H15.2925V14.9648C15.2925 14.8142 15.3844 14.6788 15.5246 14.6229L16.1233 14.3841V14.3013C16.1233 13.6658 16.6399 13.1506 17.2772 13.1506C17.9144 13.1506 18.431 13.6658 18.431 14.3013V16.7866C18.431 17.4221 17.9144 17.9372 17.2772 17.9372C16.6399 17.9372 16.1233 17.4221 16.1233 16.7866V16.6117L15.5246 16.3729C15.3844 16.317 15.2925 16.1816 15.2925 16.0311V15.7741H7.81547V16.0311C7.81547 16.1816 7.72355 16.317 7.58337 16.3729L6.98469 16.6117V16.7866C6.98469 17.4221 6.46809 17.9372 5.83083 17.9372C5.19357 17.9372 4.67696 17.4221 4.67696 16.7866V14.3013C4.67696 13.6658 5.19357 13.1506 5.83083 13.1506C6.46809 13.1506 6.98469 13.6658 6.98469 14.3013ZM6.89238 14.3013V16.7866C6.89238 17.3712 6.41711 17.8452 5.83083 17.8452C5.24455 17.8452 4.76927 17.3712 4.76927 16.7866V14.3013C4.76927 13.7166 5.24455 13.2427 5.83083 13.2427C6.41711 13.2427 6.89238 13.7166 6.89238 14.3013ZM7.81547 15.682V15.2678H15.2925V15.682H7.81547ZM6.98469 16.5126V14.4832L7.54908 14.7084C7.65422 14.7503 7.72316 14.8518 7.72316 14.9648V16.0311C7.72316 16.144 7.65422 16.2455 7.54908 16.2875L6.98469 16.5126ZM18.3387 16.7866V14.3013C18.3387 13.7166 17.8634 13.2427 17.2772 13.2427C16.6909 13.2427 16.2156 13.7166 16.2156 14.3013V16.7866C16.2156 17.3712 16.6909 17.8452 17.2772 17.8452C17.8634 17.8452 18.3387 17.3712 18.3387 16.7866ZM16.1233 16.5126V14.4832L15.5589 14.7084C15.4538 14.7503 15.3848 14.8518 15.3848 14.9648V16.0311C15.3848 16.144 15.4538 16.2455 15.5589 16.2875L16.1233 16.5126Z" fill="#18181B"/>
<path fill-rule="evenodd" clip-rule="evenodd" d="M8.69241 20.6987C9.32967 20.6987 9.84627 21.2139 9.84627 21.8494C9.84627 22.4848 9.32967 23 8.69241 23H6.20006C5.5628 23 5.0462 22.4848 5.0462 21.8494C5.0462 21.2139 5.5628 20.6987 6.20006 20.6987H8.69241ZM8.69241 22.9079H6.20006C5.61378 22.9079 5.13851 22.434 5.13851 21.8494C5.13851 21.2647 5.61378 20.7908 6.20006 20.7908H8.69241C9.27869 20.7908 9.75396 21.2647 9.75396 21.8494C9.75396 22.434 9.27869 22.9079 8.69241 22.9079Z" fill="#18181B"/>
<path fill-rule="evenodd" clip-rule="evenodd" d="M16.9079 20.6987C17.5452 20.6987 18.0618 21.2139 18.0618 21.8494C18.0618 22.4848 17.5452 23 16.9079 23H14.4156C13.7783 23 13.2617 22.4848 13.2617 21.8494C13.2617 21.2139 13.7783 20.6987 14.4156 20.6987H16.9079ZM16.9079 22.9079H14.4156C13.8293 22.9079 13.354 22.434 13.354 21.8494C13.354 21.2647 13.8293 20.7908 14.4156 20.7908H16.9079C17.4942 20.7908 17.9695 21.2647 17.9695 21.8494C17.9695 22.434 17.4942 22.9079 16.9079 22.9079Z" fill="#18181B"/>
<path fill-rule="evenodd" clip-rule="evenodd" d="M15.5246 10.3897L16.1233 10.6285V10.7113C16.1233 11.3468 16.6399 11.8619 17.2772 11.8619C17.9144 11.8619 18.431 11.3468 18.431 10.7113V8.22594C18.431 7.59047 17.9144 7.07531 17.2772 7.07531C16.6399 7.07531 16.1233 7.59047 16.1233 8.22594V8.40084L15.5246 8.63964C15.3844 8.69555 15.2925 8.83094 15.2925 8.9815V9.19247H13.1312C12.9682 8.61344 12.3033 8.17992 11.5078 8.17992C10.7124 8.17992 10.0475 8.61344 9.88451 9.19247H7.81547V8.9815C7.81547 8.83094 7.72355 8.69555 7.58337 8.63964L6.98469 8.40084V8.22594C6.98469 7.59047 6.46809 7.07531 5.83083 7.07531C5.19357 7.07531 4.67696 7.59047 4.67696 8.22594V10.7113C4.67696 11.3468 5.19357 11.8619 5.83083 11.8619C6.46809 11.8619 6.98469 11.3468 6.98469 10.7113V10.6285L7.58337 10.3897C7.72355 10.3337 7.81547 10.1983 7.81547 10.0478V9.7908H9.89862C10.0831 10.3466 10.7336 10.7573 11.5078 10.7573C12.291 10.7573 12.9476 10.3371 13.1232 9.77152V9.7908H15.2925V10.0478C15.2925 10.1983 15.3844 10.3337 15.5246 10.3897ZM17.2772 7.16736C17.8634 7.16736 18.3387 7.64131 18.3387 8.22594V10.7113C18.3387 11.2959 17.8634 11.7699 17.2772 11.7699C16.6909 11.7699 16.2156 11.2959 16.2156 10.7113V8.22594C16.2156 7.64131 16.6909 7.16736 17.2772 7.16736ZM13.143 9.69874H15.2925V9.28452H13.1526C13.1637 9.34465 13.1694 9.40611 13.1694 9.46862C13.1694 9.54717 13.1603 9.62407 13.143 9.69874ZM9.87269 9.69874H7.81547V9.28452H9.8631C9.85201 9.34465 9.84627 9.40611 9.84627 9.46862C9.84627 9.54717 9.85533 9.62407 9.87269 9.69874ZM16.1233 8.49998V10.5293L15.5589 10.3042C15.4538 10.2622 15.3848 10.1607 15.3848 10.0478V8.9815C15.3848 8.86858 15.4538 8.76704 15.5589 8.7251L16.1233 8.49998ZM6.89238 8.22594C6.89238 7.64131 6.41711 7.16736 5.83083 7.16736C5.24455 7.16736 4.76927 7.64131 4.76927 8.22594V10.7113C4.76927 11.2959 5.24455 11.7699 5.83083 11.7699C6.41711 11.7699 6.89238 11.2959 6.89238 10.7113V8.22594ZM6.98469 8.49998V10.5293L7.54908 10.3042C7.65422 10.2622 7.72316 10.1607 7.72316 10.0478V8.9815C7.72316 8.86858 7.65422 8.76704 7.54908 8.7251L6.98469 8.49998ZM13.0771 9.46862C13.0771 10.1093 12.3974 10.6653 11.5078 10.6653C10.6182 10.6653 9.93858 10.1093 9.93858 9.46862C9.93858 8.82791 10.6182 8.27197 11.5078 8.27197C12.3974 8.27197 13.0771 8.82791 13.0771 9.46862Z" fill="#18181B"/>
<path fill-rule="evenodd" clip-rule="evenodd" d="M2 8.31799C2 7.68252 2.5166 7.16736 3.15386 7.16736C3.79113 7.16736 4.30773 7.68252 4.30773 8.31799V10.8033C4.30773 11.4388 3.79113 11.954 3.15386 11.954C2.5166 11.954 2 11.4388 2 10.8033V8.31799ZM4.21542 8.31799V10.8033C4.21542 11.388 3.74014 11.8619 3.15386 11.8619C2.56758 11.8619 2.09231 11.388 2.09231 10.8033V8.31799C2.09231 7.73336 2.56758 7.25941 3.15386 7.25941C3.74014 7.25941 4.21542 7.73336 4.21542 8.31799Z" fill="#18181B"/>
<path d="M5.83083 5.69456C6.41711 5.69456 6.89238 5.22062 6.89238 4.63598V2.15063C6.89238 1.56599 6.41711 1.09205 5.83083 1.09205C5.24455 1.09205 4.76927 1.56599 4.76927 2.15063V4.63598C4.76927 5.22062 5.24455 5.69456 5.83083 5.69456Z" fill="#18181B"/>
<path d="M6.98469 2.42466V4.454L7.54908 4.22887C7.65422 4.18694 7.72316 4.08539 7.72316 3.97247V2.90619C7.72316 2.79327 7.65422 2.69173 7.54908 2.64979L6.98469 2.42466Z" fill="#18181B"/>
<path d="M18.3387 2.15063V4.63598C18.3387 5.22062 17.8634 5.69456 17.2772 5.69456C16.6909 5.69456 16.2156 5.22062 16.2156 4.63598V2.15063C16.2156 1.56599 16.6909 1.09205 17.2772 1.09205C17.8634 1.09205 18.3387 1.56599 18.3387 2.15063Z" fill="#18181B"/>
<path d="M16.1233 2.42466V4.454L15.5589 4.22887C15.4538 4.18694 15.3848 4.08539 15.3848 3.97247V2.90619C15.3848 2.79327 15.4538 2.69173 15.5589 2.64979L16.1233 2.42466Z" fill="#18181B"/>
<path d="M18.3387 8.22594C18.3387 7.64131 17.8634 7.16736 17.2772 7.16736C16.6909 7.16736 16.2156 7.64131 16.2156 8.22594V10.7113C16.2156 11.2959 16.6909 11.7699 17.2772 11.7699C17.8634 11.7699 18.3387 11.2959 18.3387 10.7113V8.22594Z" fill="#18181B"/>
<path d="M21.0157 10.7113C21.0157 11.2959 20.5404 11.7699 19.9541 11.7699C19.3678 11.7699 18.8926 11.2959 18.8926 10.7113V8.22594C18.8926 7.64131 19.3678 7.16736 19.9541 7.16736C20.5404 7.16736 21.0157 7.64131 21.0157 8.22594V10.7113Z" fill="#18181B"/>
<path d="M16.1233 10.5293V8.49998L15.5589 8.7251C15.4538 8.76704 15.3848 8.86858 15.3848 8.9815V10.0478C15.3848 10.1607 15.4538 10.2622 15.5589 10.3042L16.1233 10.5293Z" fill="#18181B"/>
<path d="M11.5078 10.6653C12.3974 10.6653 13.0771 10.1093 13.0771 9.46862C13.0771 8.82791 12.3974 8.27197 11.5078 8.27197C10.6182 8.27197 9.93858 8.82791 9.93858 9.46862C9.93858 10.1093 10.6182 10.6653 11.5078 10.6653Z" fill="#18181B"/>
<path d="M5.83083 7.16736C6.41711 7.16736 6.89238 7.64131 6.89238 8.22594V10.7113C6.89238 11.2959 6.41711 11.7699 5.83083 11.7699C5.24455 11.7699 4.76927 11.2959 4.76927 10.7113V8.22594C4.76927 7.64131 5.24455 7.16736 5.83083 7.16736Z" fill="#18181B"/>
<path d="M6.98469 10.5293V8.49998L7.54908 8.7251C7.65422 8.76704 7.72316 8.86858 7.72316 8.9815V10.0478C7.72316 10.1607 7.65422 10.2622 7.54908 10.3042L6.98469 10.5293Z" fill="#18181B"/>
<path d="M5.83083 17.8452C6.41711 17.8452 6.89238 17.3712 6.89238 16.7866V14.3013C6.89238 13.7166 6.41711 13.2427 5.83083 13.2427C5.24455 13.2427 4.76927 13.7166 4.76927 14.3013V16.7866C4.76927 17.3712 5.24455 17.8452 5.83083 17.8452Z" fill="#18181B"/>
<path d="M6.98469 14.4832V16.5126L7.54908 16.2875C7.65422 16.2455 7.72316 16.144 7.72316 16.0311V14.9648C7.72316 14.8518 7.65422 14.7503 7.54908 14.7084L6.98469 14.4832Z" fill="#18181B"/>
<path d="M18.3387 14.3013V16.7866C18.3387 17.3712 17.8634 17.8452 17.2772 17.8452C16.6909 17.8452 16.2156 17.3712 16.2156 16.7866V14.3013C16.2156 13.7166 16.6909 13.2427 17.2772 13.2427C17.8634 13.2427 18.3387 13.7166 18.3387 14.3013Z" fill="#18181B"/>
<path d="M16.1233 14.4832V16.5126L15.5589 16.2875C15.4538 16.2455 15.3848 16.144 15.3848 16.0311V14.9648C15.3848 14.8518 15.4538 14.7503 15.5589 14.7084L16.1233 14.4832Z" fill="#18181B"/>
<path d="M7.81547 15.2678V15.682H15.2925V15.2678H7.81547Z" fill="#18181B"/>
<path d="M13.143 9.69874H15.2925V9.28452H13.1526C13.1637 9.34465 13.1694 9.40611 13.1694 9.46862C13.1694 9.54717 13.1603 9.62407 13.143 9.69874Z" fill="#18181B"/>
<path d="M7.81547 9.69874H9.87269C9.85533 9.62407 9.84627 9.54717 9.84627 9.46862C9.84627 9.40611 9.85201 9.34465 9.8631 9.28452H7.81547V9.69874Z" fill="#18181B"/>
<path d="M15.2925 3.62343V3.20921H7.81547V3.62343H15.2925Z" fill="#18181B"/>
<path d="M8.1238 4.15605L7.85191 3.71548H15.2561L14.9842 4.15605C14.959 4.19688 14.9143 4.22176 14.8663 4.22176H8.24172C8.19364 4.22176 8.14899 4.19688 8.1238 4.15605Z" fill="#18181B"/>
<path d="M4.21542 10.8033V8.31799C4.21542 7.73336 3.74014 7.25941 3.15386 7.25941C2.56758 7.25941 2.09231 7.73336 2.09231 8.31799V10.8033C2.09231 11.388 2.56758 11.8619 3.15386 11.8619C3.74014 11.8619 4.21542 11.388 4.21542 10.8033Z" fill="#18181B"/>
<path d="M14.4156 22.9079H16.9079C17.4942 22.9079 17.9695 22.434 17.9695 21.8494C17.9695 21.2647 17.4942 20.7908 16.9079 20.7908H14.4156C13.8293 20.7908 13.354 21.2647 13.354 21.8494C13.354 22.434 13.8293 22.9079 14.4156 22.9079Z" fill="#18181B"/>
<path d="M6.20006 22.9079H8.69241C9.27869 22.9079 9.75396 22.434 9.75396 21.8494C9.75396 21.2647 9.27869 20.7908 8.69241 20.7908H6.20006C5.61378 20.7908 5.13851 21.2647 5.13851 21.8494C5.13851 22.434 5.61378 22.9079 6.20006 22.9079Z" fill="#18181B"/>
<path d="M19.5 24C21.9853 24 24 21.9853 24 19.5C24 17.0147 21.9853 15 19.5 15C17.0147 15 15 17.0147 15 19.5C15 21.9853 17.0147 24 19.5 24Z" fill="#D92D20"/>
<path d="M19.5 17.7V19.5M19.5 21.3H19.5045M24 19.5C24 21.9853 21.9853 24 19.5 24C17.0147 24 15 21.9853 15 19.5C15 17.0147 17.0147 15 19.5 15C21.9853 15 24 17.0147 24 19.5Z" stroke="white" stroke-width="1.33" stroke-linecap="round" stroke-linejoin="round"/>
</g>
<defs>
<clipPath id="clip0_5140_238068">
<rect width="24" height="24" fill="white"/>
</clipPath>
</defs>
</svg>
