<?xml version="1.0" encoding="UTF-8"?>
<svg id="Ebene_1" data-name="Ebene 1" xmlns="http://www.w3.org/2000/svg" viewBox="0 0 24 24">
  <defs>
    <style>
      .cls-1 {
        fill: var(--figma-grey-500);
      }

      .cls-2 {
        fill: #d92d20;
      }
    </style>
  </defs>
  <path class="cls-1" d="m19.95,7.08c-.64,0-1.15.52-1.15,1.15v2.49c0,.64.52,1.15,1.15,1.15s1.15-.52,1.15-1.15v-2.49c0-.64-.52-1.15-1.15-1.15Z"/>
  <path class="cls-1" d="m17.28,7.08c-.64,0-1.15.52-1.15,1.15v.17l-.6.24c-.14.06-.23.19-.23.34v.21h-2.16c-.16-.58-.83-1.01-1.62-1.01s-1.46.43-1.62,1.01h-2.07v-.21c0-.15-.09-.29-.23-.34l-.6-.24v-.17c0-.64-.52-1.15-1.15-1.15s-1.15.52-1.15,1.15v2.49c0,.64.52,1.15,1.15,1.15s1.15-.52,1.15-1.15v-.08l.6-.24c.14-.06.23-.19.23-.34v-.26h2.08c.18.56.83.97,1.61.97s1.44-.42,1.62-.99v.02h2.17v.26c0,.15.09.29.23.34l.6.24v.08c0,.64.52,1.15,1.15,1.15s1.15-.52,1.15-1.15v-2.49c0-.64-.52-1.15-1.15-1.15Z"/>
  <path class="cls-1" d="m17.28,1c-.64,0-1.15.52-1.15,1.15v.17l-.6.24c-.14.06-.23.19-.23.34v.21h-7.48v-.21c0-.15-.09-.29-.23-.34l-.6-.24v-.17c0-.64-.52-1.15-1.15-1.15s-1.15.52-1.15,1.15v2.49c0,.64.52,1.15,1.15,1.15s1.15-.52,1.15-1.15v-.08l.6-.24c.14-.06.23-.19.23-.34v-.14l.23.37c.04.07.12.11.2.11h6.62c.08,0,.15-.04.2-.11l.23-.37v.14c0,.15.09.29.23.34l.6.24v.08c0,.64.52,1.15,1.15,1.15s1.15-.52,1.15-1.15v-2.49c0-.64-.52-1.15-1.15-1.15Z"/>
  <path class="cls-1" d="m3.15,7.17c-.64,0-1.15.52-1.15,1.15v2.49c0,.64.52,1.15,1.15,1.15s1.15-.52,1.15-1.15v-2.49c0-.64-.52-1.15-1.15-1.15Z"/>
  <path class="cls-1" d="m8.69,20.7h-2.49c-.64,0-1.15.52-1.15,1.15s.52,1.15,1.15,1.15h2.49c.64,0,1.15-.52,1.15-1.15s-.52-1.15-1.15-1.15Z"/>
  <path class="cls-2" d="m19.5,15.67c-2.11,0-3.83,1.72-3.83,3.83s1.72,3.83,3.83,3.83,3.83-1.72,3.83-3.83-1.72-3.83-3.83-3.83Zm-.67,2.04c0-.37.3-.67.67-.67s.67.3.67.67v1.8c0,.37-.3.67-.67.67s-.67-.3-.67-.67v-1.8Zm.67,4.26c-.37,0-.67-.3-.67-.67s.29-.67.66-.67h0c.37,0,.67.3.67.67s-.3.67-.67.67Z"/>
  <path class="cls-1" d="m14.49,20.7h-.07c-.64,0-1.15.52-1.15,1.15s.52,1.15,1.15,1.15h1.31c-.59-.64-1.03-1.43-1.24-2.3Z"/>
  <path class="cls-1" d="m15.29,16.03c0,.12.07.22.17.29.74-.93,1.77-1.62,2.97-1.87v-.15c0-.64-.52-1.15-1.15-1.15s-1.15.52-1.15,1.15v.08l-.6.24c-.14.06-.23.19-.23.34v.21h-7.48v-.21c0-.15-.09-.29-.23-.34l-.6-.24v-.08c0-.64-.52-1.15-1.15-1.15s-1.15.52-1.15,1.15v2.49c0,.64.52,1.15,1.15,1.15s1.15-.52,1.15-1.15v-.17l.6-.24c.14-.06.23-.19.23-.34v-.26h7.48v.26Z"/>
</svg>