<?xml version="1.0" encoding="UTF-8"?>
<svg id="Ebene_1" data-name="Ebene 1" xmlns="http://www.w3.org/2000/svg" viewBox="0 0 24 24">
  <defs>
    <style>
      .cls-1 {
        fill: var(--figma-grey-500);
      }
    </style>
  </defs>
  <path class="cls-1" d="m18.2,16.07l-1.14-2.82c-.31-.76-1.04-1.25-1.85-1.25h-6.42c-.82,0-1.55.49-1.86,1.25l-1.14,2.82c-.46.17-.8.61-.8,1.13v3.8c0,.59.44,1.06,1,1.16v1.44c0,.22.18.4.4.4h1.2c.22,0,.4-.18.4-.4v-1.4h8v1.4c0,.22.18.4.4.4h1.2c.22,0,.4-.18.4-.4v-1.44c.56-.1,1-.57,1-1.16v-3.8c0-.52-.33-.96-.8-1.13Zm-9.41-2.07h6.42s.81,2,.81,2H7.98l.81-2Zm-1.79,4h10v2.2H7v-2.2Z"/>
  <path class="cls-1" d="m18.5,9.5H6c-.55,0-1,.45-1,1s.45,1,1,1h12.5c.55,0,1-.45,1-1s-.45-1-1-1Z"/>
  <path class="cls-1" d="m21.36,6.57l-9-3.5c-.23-.09-.49-.09-.72,0L2.64,6.57c-.38.15-.64.52-.64.93v15.5c0,.55.45,1,1,1s1-.45,1-1v-14h16v14c0,.55.45,1,1,1s1-.45,1-1V7.5c0-.41-.25-.78-.64-.93Zm-14.32.43l4.96-1.93,4.96,1.93H7.04Z"/>
  <path class="cls-1" d="m23.38,4.57L12.38.07c-.24-.1-.51-.1-.76,0L.62,4.57c-.51.21-.76.79-.55,1.3.21.51.79.75,1.3.55L12,2.08l10.62,4.35c.12.05.25.07.38.07.39,0,.77-.23.93-.62.21-.51-.04-1.1-.55-1.3Z"/>
  <path class="cls-1" d="m8.9,18.2c-.5,0-.9.4-.9.9s.4.9.9.9.9-.4.9-.9-.4-.9-.9-.9Z"/>
  <path class="cls-1" d="m14.9,18.2c-.5,0-.9.4-.9.9s.4.9.9.9.9-.4.9-.9-.4-.9-.9-.9Z"/>
</svg>